<svg width="377" height="131" viewBox="0 0 377 131" fill="none" xmlns="http://www.w3.org/2000/svg">
<g clip-path="url(#clip0_693_651)">
<path d="M62.6502 81.6446V98.2882H33.226C13.8214 98.2882 2.01172 81.6446 2.01172 65.918V2.20093H62.6502V19.2159H19.3164V39.5007H55.6661V57.0898H19.3164V65.918C19.3164 70.8376 22.3851 81.6446 33.226 81.6446H62.6502Z" fill="#1B5A70"/>
<path d="M71.0137 31.6442V96.981H88.4354V49.9093H102.305C109.603 49.9093 116.065 56.803 116.065 63.753V96.981H133.192V63.753C133.192 47.8798 120.67 31.6442 102.305 31.6442H71.0137Z" fill="#1B5A70"/>
<path fill-rule="evenodd" clip-rule="evenodd" d="M174.608 97.9348C179.201 97.9348 183.578 97.0064 187.563 95.326L180.679 78.307C178.82 79.1203 176.766 79.5714 174.608 79.5714C166.195 79.5714 159.375 72.7188 159.375 64.2657C159.375 55.8125 166.195 48.9598 174.608 48.9598C181.643 48.9598 187.563 53.7516 189.314 60.2641H189.348V96.8868H207.881V60.2641V60.155C205.865 43.4988 191.73 30.5965 174.608 30.5965C156.101 30.5965 141.1 45.6707 141.1 64.2657C141.1 82.8607 156.101 97.9348 174.608 97.9348Z" fill="#1B5A70"/>
<path fill-rule="evenodd" clip-rule="evenodd" d="M282.452 95.4979V64.2657V61.5896H282.347C280.988 44.2457 266.553 30.5965 248.945 30.5965C230.437 30.5965 215.438 45.6707 215.438 64.2657C215.438 82.8607 230.437 97.9348 248.945 97.9348C254.393 97.9348 259.536 96.6281 264.084 94.3095C264.145 94.8635 264.177 95.4264 264.177 95.9965C264.177 104.45 257.357 111.302 248.945 111.302C244.662 111.302 240.79 109.526 238.023 106.667L225.005 119.556C231.088 125.795 239.566 129.666 248.945 129.666C267.451 129.666 282.452 114.591 282.452 95.9965C282.452 95.8301 282.452 95.6638 282.452 95.4979ZM264.084 65.9523C264.145 65.3983 264.177 64.8358 264.177 64.2657C264.177 55.8125 257.357 48.9598 248.945 48.9598C240.532 48.9598 233.712 55.8125 233.712 64.2657C233.712 64.8358 233.744 65.3981 233.804 65.9521C233.856 66.4249 233.93 66.8915 234.023 67.3503C235.444 74.3248 241.585 79.5714 248.945 79.5714C256.783 79.5714 263.237 73.6236 264.082 65.975C264.082 65.9676 264.084 65.9597 264.084 65.9523Z" fill="#1B5A70"/>
<path d="M302.14 24.8256C307.663 24.8256 312.141 20.3264 312.141 14.7764C312.141 9.22644 307.663 4.72729 302.14 4.72729C296.616 4.72729 292.139 9.22644 292.139 14.7764C292.139 20.3264 296.616 24.8256 302.14 24.8256Z" fill="#1B5A70"/>
<path d="M310.823 31.3931H293.309V96.7825H310.823V31.3931Z" fill="#1B5A70"/>
<path fill-rule="evenodd" clip-rule="evenodd" d="M376.549 40.6738C370.469 34.4541 362.006 30.5965 352.644 30.5965C334.138 30.5965 319.137 45.6707 319.137 64.2657C319.137 82.8607 334.138 97.9348 352.644 97.9348C362.047 97.9348 370.54 94.0449 376.626 87.7794L363.657 74.8405C360.882 77.7556 356.974 79.5714 352.644 79.5714C344.232 79.5714 337.411 72.7188 337.411 64.2657C337.411 55.8125 344.232 48.9598 352.644 48.9598C356.982 48.9598 360.898 50.7828 363.673 53.7082L376.549 40.6738Z" fill="#1B5A70"/>
</g>
<defs>
<clipPath id="clip0_693_651">
<rect width="376" height="130" fill="white" transform="translate(0.681641 0.925194)"/>
</clipPath>
</defs>
</svg>
