<svg width="3049" height="361" viewBox="0 0 3049 361" fill="none" xmlns="http://www.w3.org/2000/svg">
<g filter="url(#filter0_dddddd_401_1122)">
<path fill-rule="evenodd" clip-rule="evenodd" d="M829.382 148.203C829.217 148.287 829.048 148.369 828.875 148.449C826.046 149.761 757.951 180.647 623.458 180.647C554.011 180.647 502.695 164.791 453.056 149.454L452.836 149.386C405.23 134.61 359.928 120.639 300.158 120.639C182.672 120.639 121.222 146.909 117.726 148.403L117.626 148.446C117.6 148.457 117.583 148.464 117.574 148.468C116.065 149.161 114.276 149.71 112.309 150.083C110.342 150.455 108.237 150.645 106.112 150.639C103.988 150.634 101.887 150.435 99.9286 150.052C97.9705 149.67 96.194 149.112 94.7007 148.411C91.6899 147.006 90 145.105 90 143.123C90 141.142 91.6907 35.9583 94.7015 34.5529C96.3661 33.7914 119.984 33.9134 165.785 34.1502C198.93 34.3215 243.692 34.5529 300.158 34.5529L566.68 34.5529L709.054 34.5529C717.808 34.5529 725.798 35.1011 733.088 36.1177C735.631 36.4722 738.405 34.5529 740.973 34.5529L798.93 34.5529L1005.14 34.553L1060.71 34.5529L1156.33 34.553L1264.78 34.553L1323.07 34.553C1407.5 34.553 1481.6 34.4455 1518.29 34.3814C1520.88 34.0793 1528.67 33.9716 1541.7 33.9695C1542.26 33.9694 1542.41 32.577 1542.78 33.0036C1543.13 33.4056 1543.32 33.9697 1543.85 33.9701C1555.13 33.9776 1570.01 34.0546 1588.51 34.1502C1621.66 34.3215 1666.42 34.5529 1722.88 34.5529L1989.41 34.5529L2131.78 34.5529C2140.53 34.5529 2148.52 35.1011 2155.81 36.1177C2158.36 36.4722 2161.13 34.5529 2163.7 34.5529L2221.66 34.5529L2427.87 34.553L2579.06 34.553L2745.79 34.553C2846.04 34.553 2931.72 34.4015 2957.52 34.3509C2961.93 34.3423 2965.76 35.2093 2966 39.6143C2966.62 51.0514 2967.54 75.1957 2967.54 94.9527V131.283C2967.54 134.393 2969.37 137.915 2968.22 140.805C2968.21 140.847 2968.19 140.89 2968.17 140.932L2968.17 140.934C2967.85 141.739 2967.54 142.512 2967.54 143.146C2967.53 145.136 2965.82 147.044 2962.78 148.449C2959.96 149.761 2891.86 180.647 2757.37 180.647C2687.92 180.647 2636.61 164.792 2586.97 149.455L2586.75 149.386C2539.14 134.61 2493.84 120.639 2434.07 120.639C2320.12 120.639 2258.88 145.35 2252.11 148.202C2251.94 148.286 2251.77 148.368 2251.6 148.449C2248.77 149.761 2180.68 180.647 2046.18 180.647C1976.74 180.647 1925.42 164.791 1875.78 149.454L1875.56 149.386C1827.96 134.61 1782.65 120.639 1722.88 120.639C1605.4 120.639 1543.95 146.909 1540.45 148.403C1540.37 148.439 1540.32 148.461 1540.3 148.468C1539.62 148.782 1538.87 149.067 1538.08 149.319C1525.75 154.566 1458.23 180.647 1334.64 180.647C1265.2 180.647 1213.88 164.792 1164.24 149.455L1164.02 149.386C1116.41 134.61 1071.11 120.639 1011.34 120.639C897.384 120.639 836.147 145.355 829.382 148.203Z" fill="#1B5A70"/>
</g>
<path fill-rule="evenodd" clip-rule="evenodd" d="M739.382 115.203C739.217 115.287 739.048 115.369 738.875 115.449C736.046 116.761 667.951 147.647 533.458 147.647C464.011 147.647 412.695 131.791 363.056 116.454L362.836 116.386C315.23 101.61 269.928 87.6392 210.158 87.6392C92.6724 87.6392 31.222 113.909 27.7257 115.403L27.626 115.446C27.6001 115.457 27.5828 115.464 27.5741 115.468C26.0649 116.161 24.2758 116.71 22.309 117.083C20.3423 117.455 18.2366 117.645 16.1123 117.639C13.9879 117.634 11.8866 117.435 9.92855 117.052C7.97046 116.67 6.19397 116.112 4.70066 115.411C1.68992 114.006 0 112.105 0 110.123C0 108.142 1.69073 2.95829 4.70148 1.5529C6.36611 0.791351 29.9842 0.913437 75.785 1.15019C108.93 1.32152 153.692 1.5529 210.158 1.5529L476.68 1.55291L619.054 1.5529C629.61 1.5529 639.056 2.35014 647.504 3.80451C647.982 2.34768 649.101 1.55287 650.973 1.55287L708.93 1.5529L915.141 1.55295L970.712 1.55293L1066.33 1.553L1174.78 1.55302L1233.07 1.55295C1317.5 1.55295 1391.6 1.44549 1428.29 1.3814C1430.94 1.07146 1439.07 0.966143 1452.72 0.969576C1452.73 -0.373848 1452.8 -0.271542 1452.91 0.969631C1464.3 0.973332 1479.49 1.05187 1498.51 1.15019C1531.66 1.32152 1576.42 1.5529 1632.88 1.5529L1899.41 1.55291L2041.78 1.5529C2052.34 1.5529 2061.78 2.35013 2070.23 3.8045C2070.71 2.34768 2071.83 1.55287 2073.7 1.55287L2131.66 1.5529L2337.87 1.55295L2489.06 1.553L2655.79 1.55295C2776.1 1.55295 2875.44 1.33476 2875.44 1.33476C2875.44 -7.82336 2877.54 32.0798 2877.54 61.9527V103.382C2879.6 104.343 2878.86 106.21 2878.17 107.932L2878.17 107.934C2877.85 108.739 2877.54 109.512 2877.54 110.146C2877.53 112.136 2875.82 114.044 2872.78 115.449C2869.96 116.761 2801.86 147.647 2667.37 147.647C2597.92 147.647 2546.61 131.792 2496.97 116.455L2496.75 116.386C2449.14 101.61 2403.84 87.6392 2344.07 87.6392C2230.12 87.6392 2168.88 112.35 2162.11 115.202C2161.94 115.286 2161.77 115.368 2161.6 115.449C2158.77 116.761 2090.68 147.647 1956.18 147.647C1886.74 147.647 1835.42 131.791 1785.78 116.454L1785.56 116.386C1737.96 101.61 1692.65 87.6392 1632.88 87.6392C1515.4 87.6392 1453.95 113.909 1450.45 115.403C1450.37 115.439 1450.32 115.461 1450.3 115.468C1449.62 115.782 1448.87 116.067 1448.08 116.319C1435.75 121.566 1368.23 147.647 1244.64 147.647C1175.2 147.647 1123.88 131.792 1074.24 116.455L1074.02 116.386C1026.41 101.61 981.112 87.6392 921.342 87.6392C807.384 87.6392 746.147 112.355 739.382 115.203Z" fill="white"/>
<defs>
<filter id="filter0_dddddd_401_1122" x="10" y="31.6224" width="3038.6" height="329.024" filterUnits="userSpaceOnUse" color-interpolation-filters="sRGB">
<feFlood flood-opacity="0" result="BackgroundImageFix"/>
<feColorMatrix in="SourceAlpha" type="matrix" values="0 0 0 0 0 0 0 0 0 0 0 0 0 0 0 0 0 0 127 0" result="hardAlpha"/>
<feOffset dy="1.85"/>
<feGaussianBlur stdDeviation="1.575"/>
<feComposite in2="hardAlpha" operator="out"/>
<feColorMatrix type="matrix" values="0 0 0 0 0.105882 0 0 0 0 0.352941 0 0 0 0 0.439216 0 0 0 0.0241 0"/>
<feBlend mode="normal" in2="BackgroundImageFix" result="effect1_dropShadow_401_1122"/>
<feColorMatrix in="SourceAlpha" type="matrix" values="0 0 0 0 0 0 0 0 0 0 0 0 0 0 0 0 0 0 127 0" result="hardAlpha"/>
<feOffset dy="8.15"/>
<feGaussianBlur stdDeviation="3.26"/>
<feComposite in2="hardAlpha" operator="out"/>
<feColorMatrix type="matrix" values="0 0 0 0 0.105882 0 0 0 0 0.352941 0 0 0 0 0.439216 0 0 0 0.0393 0"/>
<feBlend mode="normal" in2="effect1_dropShadow_401_1122" result="effect2_dropShadow_401_1122"/>
<feColorMatrix in="SourceAlpha" type="matrix" values="0 0 0 0 0 0 0 0 0 0 0 0 0 0 0 0 0 0 127 0" result="hardAlpha"/>
<feOffset dy="20"/>
<feGaussianBlur stdDeviation="6.5"/>
<feComposite in2="hardAlpha" operator="out"/>
<feColorMatrix type="matrix" values="0 0 0 0 0.105882 0 0 0 0 0.352941 0 0 0 0 0.439216 0 0 0 0.05 0"/>
<feBlend mode="normal" in2="effect2_dropShadow_401_1122" result="effect3_dropShadow_401_1122"/>
<feColorMatrix in="SourceAlpha" type="matrix" values="0 0 0 0 0 0 0 0 0 0 0 0 0 0 0 0 0 0 127 0" result="hardAlpha"/>
<feOffset dy="38.52"/>
<feGaussianBlur stdDeviation="12.74"/>
<feComposite in2="hardAlpha" operator="out"/>
<feColorMatrix type="matrix" values="0 0 0 0 0.105882 0 0 0 0 0.352941 0 0 0 0 0.439216 0 0 0 0.0607 0"/>
<feBlend mode="normal" in2="effect3_dropShadow_401_1122" result="effect4_dropShadow_401_1122"/>
<feColorMatrix in="SourceAlpha" type="matrix" values="0 0 0 0 0 0 0 0 0 0 0 0 0 0 0 0 0 0 127 0" result="hardAlpha"/>
<feOffset dy="64.81"/>
<feGaussianBlur stdDeviation="23.425"/>
<feComposite in2="hardAlpha" operator="out"/>
<feColorMatrix type="matrix" values="0 0 0 0 0.105882 0 0 0 0 0.352941 0 0 0 0 0.439216 0 0 0 0.0759 0"/>
<feBlend mode="normal" in2="effect4_dropShadow_401_1122" result="effect5_dropShadow_401_1122"/>
<feColorMatrix in="SourceAlpha" type="matrix" values="0 0 0 0 0 0 0 0 0 0 0 0 0 0 0 0 0 0 127 0" result="hardAlpha"/>
<feOffset dy="100"/>
<feGaussianBlur stdDeviation="40"/>
<feComposite in2="hardAlpha" operator="out"/>
<feColorMatrix type="matrix" values="0 0 0 0 0.105882 0 0 0 0 0.352941 0 0 0 0 0.439216 0 0 0 0.1 0"/>
<feBlend mode="normal" in2="effect5_dropShadow_401_1122" result="effect6_dropShadow_401_1122"/>
<feBlend mode="normal" in="SourceGraphic" in2="effect6_dropShadow_401_1122" result="shape"/>
</filter>
</defs>
</svg>
