<svg width="2390" height="3066" viewBox="0 0 2390 3066" fill="none" xmlns="http://www.w3.org/2000/svg">
<path fill-rule="evenodd" clip-rule="evenodd" d="M0.375 39.2596C44.8534 9.74539 164.266 -31.5745 286.092 39.2596V39.2503C407.327 109.741 528.659 69.1628 574.908 39.6806V39.2588C622.856 9.7452 751.583 -31.5738 882.911 39.2588V39.2495C1014.24 110.082 1145.67 68.7632 1194.98 39.2495L1194.98 39.2596C1239.46 9.74539 1358.87 -31.5745 1480.69 39.2596V39.2503C1601.93 109.741 1723.26 69.1627 1769.51 39.6805V39.2588C1817.46 9.74519 1946.19 -31.5738 2077.51 39.2588V39.2495C2208.84 110.082 2340.28 68.7632 2389.58 39.2495V247.406H2077.51V247.416H1769.51V247.412H1480.69V247.421H1194.98L1194.98 247.406H882.911V247.416H574.908V247.412H286.092V247.421H0.375V39.2596ZM2389.58 247.424H0.375V3065.35H2389.58V247.424Z" fill="url(#paint0_linear_493_7580)"/>
<defs>
<linearGradient id="paint0_linear_493_7580" x1="1194.98" y1="0.148437" x2="1194.98" y2="3065.35" gradientUnits="userSpaceOnUse">
<stop offset="0.0520833" stop-color="#1B5A70"/>
<stop offset="1" stop-color="#D9D9D9" stop-opacity="0"/>
</linearGradient>
</defs>
</svg>
