<svg width="2869" height="1487" viewBox="0 0 2869 1487" fill="none" xmlns="http://www.w3.org/2000/svg">
<path fill-rule="evenodd" clip-rule="evenodd" d="M2124.28 30.2868C2181.84 8.13839 2336.4 -22.8694 2494.07 30.2868V30.2798C2651.75 83.4362 2809.55 52.4283 2868.75 30.2798V186.491H2494.07V186.498H2124.28V186.495H1777.52V186.502H1434.48L1434.48 186.491H1059.8V186.498H690.004V186.495H343.243V186.502H0.204727V30.2874C53.6067 8.13854 196.977 -22.8699 343.243 30.2874V30.2804C488.802 83.18 634.476 52.7283 690.004 30.6034V30.2868C747.571 8.13839 902.124 -22.8694 1059.8 30.2868V30.2798C1217.48 83.4362 1375.28 52.4283 1434.48 30.2798L1434.48 30.2874C1487.88 8.13854 1631.25 -22.8699 1777.52 30.2874V30.2804C1923.07 83.18 2068.75 52.7283 2124.28 30.6034V30.2868ZM2868.75 1486.5V186.505H0.204727V1486.5H2868.75Z" fill="url(#paint0_linear_493_7363)"/>
<defs>
<linearGradient id="paint0_linear_493_7363" x1="1434.48" y1="-190.702" x2="1434.48" y2="1486.5" gradientUnits="userSpaceOnUse">
<stop offset="0.206707" stop-color="#1B5A70"/>
<stop offset="0.962609" stop-color="#D9D9D9" stop-opacity="0"/>
</linearGradient>
</defs>
</svg>
