<svg width="658" height="843" viewBox="0 0 658 843" fill="none" xmlns="http://www.w3.org/2000/svg">
<path fill-rule="evenodd" clip-rule="evenodd" d="M158.171 10.7556C171.357 2.63916 206.757 -8.72381 242.873 10.7556V10.753C278.989 30.2325 315.135 18.8695 328.694 10.753V10.7558C340.926 2.63922 373.765 -8.72399 407.267 10.7558V10.7532C440.608 30.1386 473.975 18.9794 486.694 10.8716V10.7556C499.88 2.63916 535.28 -8.72381 571.396 10.7556V10.753C607.513 30.2325 643.658 18.8695 657.217 10.753V67.9974H571.396V68H486.694V67.9988H407.267V68.0014H328.694V67.9974H242.873V68H158.171V67.9988H78.7444V68.0014H0.170654V10.7558C12.4025 2.63922 45.2417 -8.72399 78.7444 10.7558V10.7532C112.085 30.1386 145.452 18.9794 158.171 10.8716V10.7556ZM657.217 842.947V68.002H0.170654V842.947H657.217Z" fill="url(#paint0_linear_493_7363)"/>
<defs>
<linearGradient id="paint0_linear_493_7363" x1="328.694" y1="0" x2="328.694" y2="761.085" gradientUnits="userSpaceOnUse">
<stop offset="0.132131" stop-color="#1B5A70"/>
<stop offset="0.962609" stop-color="#D9D9D9" stop-opacity="0"/>
</linearGradient>
</defs>
</svg>
