<svg width="124" height="124" viewBox="0 0 124 124" fill="none" xmlns="http://www.w3.org/2000/svg">
<g clip-path="url(#clip0_566_54)">
<g clip-path="url(#clip1_566_54)">
<rect width="60" height="60" rx="5" fill="#1B5A70"/>
<g clip-path="url(#clip2_566_54)">
<path d="M4.60227 13.5V12.9886L6.52273 10.8864C6.74811 10.6402 6.93371 10.4261 7.07955 10.2443C7.22538 10.0606 7.33333 9.88826 7.40341 9.72727C7.47538 9.56439 7.51136 9.39394 7.51136 9.21591C7.51136 9.01136 7.46212 8.83428 7.36364 8.68466C7.26705 8.53504 7.13447 8.41951 6.96591 8.33807C6.79735 8.25663 6.60795 8.21591 6.39773 8.21591C6.17424 8.21591 5.97917 8.26231 5.8125 8.35511C5.64773 8.44602 5.51989 8.57386 5.42898 8.73864C5.33996 8.90341 5.29545 9.09659 5.29545 9.31818H4.625C4.625 8.97727 4.7036 8.67803 4.8608 8.42045C5.01799 8.16288 5.23201 7.96212 5.50284 7.81818C5.77557 7.67424 6.08144 7.60227 6.42045 7.60227C6.76136 7.60227 7.06345 7.67424 7.3267 7.81818C7.58996 7.96212 7.7964 8.15625 7.94602 8.40057C8.09564 8.64489 8.17045 8.91667 8.17045 9.21591C8.17045 9.42992 8.13163 9.6392 8.05398 9.84375C7.97822 10.0464 7.84564 10.2727 7.65625 10.5227C7.46875 10.7708 7.20833 11.0739 6.875 11.4318L5.56818 12.8295V12.875H8.27273V13.5H4.60227ZM9.44602 13.5V12.9886L11.3665 10.8864C11.5919 10.6402 11.7775 10.4261 11.9233 10.2443C12.0691 10.0606 12.1771 9.88826 12.2472 9.72727C12.3191 9.56439 12.3551 9.39394 12.3551 9.21591C12.3551 9.01136 12.3059 8.83428 12.2074 8.68466C12.1108 8.53504 11.9782 8.41951 11.8097 8.33807C11.6411 8.25663 11.4517 8.21591 11.2415 8.21591C11.018 8.21591 10.8229 8.26231 10.6562 8.35511C10.4915 8.44602 10.3636 8.57386 10.2727 8.73864C10.1837 8.90341 10.1392 9.09659 10.1392 9.31818H9.46875C9.46875 8.97727 9.54735 8.67803 9.70455 8.42045C9.86174 8.16288 10.0758 7.96212 10.3466 7.81818C10.6193 7.67424 10.9252 7.60227 11.2642 7.60227C11.6051 7.60227 11.9072 7.67424 12.1705 7.81818C12.4337 7.96212 12.6402 8.15625 12.7898 8.40057C12.9394 8.64489 13.0142 8.91667 13.0142 9.21591C13.0142 9.42992 12.9754 9.6392 12.8977 9.84375C12.822 10.0464 12.6894 10.2727 12.5 10.5227C12.3125 10.7708 12.0521 11.0739 11.7188 11.4318L10.4119 12.8295V12.875H13.1165V13.5H9.44602ZM14.7898 13.5455C14.6496 13.5455 14.5294 13.4953 14.429 13.3949C14.3286 13.2945 14.2784 13.1742 14.2784 13.0341C14.2784 12.8939 14.3286 12.7737 14.429 12.6733C14.5294 12.5729 14.6496 12.5227 14.7898 12.5227C14.9299 12.5227 15.0502 12.5729 15.1506 12.6733C15.2509 12.7737 15.3011 12.8939 15.3011 13.0341C15.3011 13.1269 15.2775 13.2121 15.2301 13.2898C15.1847 13.3674 15.1231 13.4299 15.0455 13.4773C14.9697 13.5227 14.8845 13.5455 14.7898 13.5455ZM18.2905 7.60227C18.5291 7.60417 18.7678 7.64962 19.0064 7.73864C19.245 7.82765 19.4628 7.97538 19.6598 8.18182C19.8568 8.38636 20.0149 8.66572 20.1342 9.01989C20.2536 9.37405 20.3132 9.81818 20.3132 10.3523C20.3132 10.8693 20.264 11.3286 20.1655 11.7301C20.0689 12.1297 19.9287 12.4669 19.745 12.7415C19.5632 13.0161 19.3416 13.2244 19.0803 13.3665C18.8208 13.5085 18.5272 13.5795 18.1996 13.5795C17.8738 13.5795 17.5831 13.5152 17.3274 13.3864C17.0736 13.2557 16.8653 13.0748 16.7024 12.8438C16.5414 12.6108 16.4382 12.3409 16.3928 12.0341H17.0859C17.1484 12.3011 17.2725 12.5218 17.4581 12.696C17.6456 12.8684 17.8928 12.9545 18.1996 12.9545C18.6484 12.9545 19.0026 12.7585 19.2621 12.3665C19.5234 11.9744 19.6541 11.4205 19.6541 10.7045H19.6087C19.5026 10.8636 19.3767 11.0009 19.2308 11.1165C19.085 11.232 18.9231 11.321 18.745 11.3835C18.567 11.446 18.3776 11.4773 18.1768 11.4773C17.8435 11.4773 17.5376 11.3949 17.2592 11.2301C16.9827 11.0634 16.7611 10.8352 16.5945 10.5455C16.4297 10.2538 16.3473 9.92045 16.3473 9.54545C16.3473 9.18939 16.4268 8.86364 16.5859 8.56818C16.7469 8.27083 16.9723 8.03409 17.2621 7.85795C17.5537 7.68182 17.8965 7.59659 18.2905 7.60227ZM18.2905 8.22727C18.0518 8.22727 17.8369 8.28693 17.6456 8.40625C17.4562 8.52367 17.3056 8.68276 17.1939 8.88352C17.084 9.08239 17.0291 9.30303 17.0291 9.54545C17.0291 9.78788 17.0821 10.0085 17.1882 10.2074C17.2962 10.4044 17.4429 10.5616 17.6286 10.679C17.8161 10.7945 18.0291 10.8523 18.2678 10.8523C18.4477 10.8523 18.6153 10.8172 18.7706 10.7472C18.9259 10.6752 19.0613 10.5777 19.1768 10.4545C19.2943 10.3295 19.3861 10.1884 19.4524 10.0312C19.5187 9.87216 19.5518 9.70644 19.5518 9.53409C19.5518 9.30682 19.4969 9.09375 19.3871 8.89489C19.2791 8.69602 19.1295 8.53504 18.9382 8.41193C18.7488 8.28883 18.5329 8.22727 18.2905 8.22727ZM23.294 13.5795C22.9039 13.5795 22.5592 13.5104 22.2599 13.3722C21.9626 13.232 21.7306 13.0398 21.5639 12.7955C21.3973 12.5492 21.3149 12.2689 21.3168 11.9545C21.3149 11.7083 21.3632 11.4811 21.4616 11.2727C21.5601 11.0625 21.6946 10.8873 21.8651 10.7472C22.0374 10.6051 22.2296 10.5152 22.4418 10.4773V10.4432C22.1634 10.3712 21.9418 10.215 21.777 9.97443C21.6122 9.73201 21.5308 9.45644 21.5327 9.14773C21.5308 8.85227 21.6056 8.58807 21.7571 8.35511C21.9086 8.12216 22.117 7.93845 22.3821 7.80398C22.6491 7.66951 22.9531 7.60227 23.294 7.60227C23.6312 7.60227 23.9323 7.66951 24.1974 7.80398C24.4626 7.93845 24.6709 8.12216 24.8224 8.35511C24.9759 8.58807 25.0535 8.85227 25.0554 9.14773C25.0535 9.45644 24.9692 9.73201 24.8026 9.97443C24.6378 10.215 24.419 10.3712 24.1463 10.4432V10.4773C24.3565 10.5152 24.5459 10.6051 24.7145 10.7472C24.883 10.8873 25.0175 11.0625 25.1179 11.2727C25.2183 11.4811 25.2694 11.7083 25.2713 11.9545C25.2694 12.2689 25.1842 12.5492 25.0156 12.7955C24.849 13.0398 24.617 13.232 24.3196 13.3722C24.0241 13.5104 23.6823 13.5795 23.294 13.5795ZM23.294 12.9545C23.5573 12.9545 23.7846 12.9119 23.9759 12.8267C24.1671 12.7415 24.3149 12.6212 24.419 12.4659C24.5232 12.3106 24.5762 12.1288 24.5781 11.9205C24.5762 11.7008 24.5194 11.5066 24.4077 11.3381C24.2959 11.1695 24.1435 11.0369 23.9503 10.9403C23.759 10.8437 23.5402 10.7955 23.294 10.7955C23.0459 10.7955 22.8243 10.8437 22.6293 10.9403C22.4361 11.0369 22.2836 11.1695 22.1719 11.3381C22.062 11.5066 22.008 11.7008 22.0099 11.9205C22.008 12.1288 22.0582 12.3106 22.1605 12.4659C22.2647 12.6212 22.4134 12.7415 22.6065 12.8267C22.7997 12.9119 23.0289 12.9545 23.294 12.9545ZM23.294 10.1932C23.5024 10.1932 23.687 10.1515 23.848 10.0682C24.0109 9.98485 24.1387 9.86837 24.2315 9.71875C24.3243 9.56913 24.3717 9.39394 24.3736 9.19318C24.3717 8.99621 24.3253 8.82481 24.2344 8.67898C24.1435 8.53125 24.0175 8.41761 23.8565 8.33807C23.6955 8.25663 23.508 8.21591 23.294 8.21591C23.0762 8.21591 22.8859 8.25663 22.723 8.33807C22.5601 8.41761 22.4342 8.53125 22.3452 8.67898C22.2562 8.82481 22.2126 8.99621 22.2145 9.19318C22.2126 9.39394 22.2571 9.56913 22.348 9.71875C22.4408 9.86837 22.5687 9.98485 22.7315 10.0682C22.8944 10.1515 23.0819 10.1932 23.294 10.1932ZM28.2124 7.60227C28.451 7.60417 28.6896 7.64962 28.9283 7.73864C29.1669 7.82765 29.3847 7.97538 29.5817 8.18182C29.7786 8.38636 29.9368 8.66572 30.0561 9.01989C30.1754 9.37405 30.2351 9.81818 30.2351 10.3523C30.2351 10.8693 30.1858 11.3286 30.0874 11.7301C29.9908 12.1297 29.8506 12.4669 29.6669 12.7415C29.4851 13.0161 29.2635 13.2244 29.0021 13.3665C28.7427 13.5085 28.4491 13.5795 28.1214 13.5795C27.7957 13.5795 27.505 13.5152 27.2493 13.3864C26.9955 13.2557 26.7872 13.0748 26.6243 12.8438C26.4633 12.6108 26.3601 12.3409 26.3146 12.0341H27.0078C27.0703 12.3011 27.1944 12.5218 27.38 12.696C27.5675 12.8684 27.8146 12.9545 28.1214 12.9545C28.5703 12.9545 28.9245 12.7585 29.1839 12.3665C29.4453 11.9744 29.576 11.4205 29.576 10.7045H29.5305C29.4245 10.8636 29.2985 11.0009 29.1527 11.1165C29.0069 11.232 28.8449 11.321 28.6669 11.3835C28.4889 11.446 28.2995 11.4773 28.0987 11.4773C27.7654 11.4773 27.4595 11.3949 27.1811 11.2301C26.9046 11.0634 26.683 10.8352 26.5163 10.5455C26.3516 10.2538 26.2692 9.92045 26.2692 9.54545C26.2692 9.18939 26.3487 8.86364 26.5078 8.56818C26.6688 8.27083 26.8942 8.03409 27.1839 7.85795C27.4756 7.68182 27.8184 7.59659 28.2124 7.60227ZM28.2124 8.22727C27.9737 8.22727 27.7588 8.28693 27.5675 8.40625C27.3781 8.52367 27.2275 8.68276 27.1158 8.88352C27.0059 9.08239 26.951 9.30303 26.951 9.54545C26.951 9.78788 27.004 10.0085 27.1101 10.2074C27.218 10.4044 27.3648 10.5616 27.5504 10.679C27.7379 10.7945 27.951 10.8523 28.1896 10.8523C28.3696 10.8523 28.5372 10.8172 28.6925 10.7472C28.8478 10.6752 28.9832 10.5777 29.0987 10.4545C29.2161 10.3295 29.308 10.1884 29.3743 10.0312C29.4406 9.87216 29.4737 9.70644 29.4737 9.53409C29.4737 9.30682 29.4188 9.09375 29.3089 8.89489C29.201 8.69602 29.0514 8.53504 28.8601 8.41193C28.6707 8.28883 28.4548 8.22727 28.2124 8.22727ZM31.3778 13.5L33.9801 8.35227V8.30682H30.9801V7.68182H34.7074V8.34091L32.1165 13.5H31.3778Z" fill="white"/>
<path d="M47.9716 6.27273V15H46.9148V7.38068H46.8636L44.733 8.79545V7.72159L46.9148 6.27273H47.9716ZM53.5497 6.27273V15H52.4929V7.38068H52.4418L50.3111 8.79545V7.72159L52.4929 6.27273H53.5497Z" fill="white"/>
</g>
<g clip-path="url(#clip3_566_54)">
<path d="M29.9545 23.5455V41H27.9091L18.3977 27.2955H18.2273V41H16.1136V23.5455H18.1591L27.7045 37.2841H27.875V23.5455H29.9545ZM37.7635 41.3068C36.9339 41.3068 36.1811 41.1506 35.505 40.8381C34.8288 40.5199 34.2919 40.0625 33.8942 39.4659C33.4964 38.8636 33.2976 38.1364 33.2976 37.2841C33.2976 36.5341 33.4453 35.9261 33.7408 35.4602C34.0362 34.9886 34.4311 34.6193 34.9254 34.3523C35.4197 34.0852 35.9652 33.8864 36.5618 33.7557C37.1641 33.6193 37.7692 33.5114 38.3771 33.4318C39.1726 33.3295 39.8175 33.2528 40.3118 33.2017C40.8118 33.1449 41.1754 33.0511 41.4027 32.9205C41.6357 32.7898 41.7521 32.5625 41.7521 32.2386V32.1705C41.7521 31.3295 41.522 30.6761 41.0618 30.2102C40.6072 29.7443 39.9169 29.5114 38.9908 29.5114C38.0305 29.5114 37.2777 29.7216 36.7322 30.142C36.1868 30.5625 35.8033 31.0114 35.5817 31.4886L33.6726 30.8068C34.0135 30.0114 34.468 29.392 35.0362 28.9489C35.6101 28.5 36.2351 28.1875 36.9112 28.0114C37.593 27.8295 38.2635 27.7386 38.9226 27.7386C39.343 27.7386 39.826 27.7898 40.3714 27.892C40.9226 27.9886 41.4538 28.1903 41.9652 28.4972C42.4822 28.804 42.9112 29.267 43.2521 29.8864C43.593 30.5057 43.7635 31.3352 43.7635 32.375V41H41.7521V39.2273H41.6499C41.5135 39.5114 41.2862 39.8153 40.968 40.1392C40.6499 40.4631 40.2266 40.7386 39.6982 40.9659C39.1697 41.1932 38.5249 41.3068 37.7635 41.3068ZM38.0703 39.5C38.8658 39.5 39.5362 39.3438 40.0817 39.0312C40.6328 38.7188 41.0476 38.3153 41.326 37.821C41.6101 37.3267 41.7521 36.8068 41.7521 36.2614V34.4205C41.6669 34.5227 41.4794 34.6165 41.1896 34.7017C40.9055 34.7812 40.576 34.8523 40.201 34.9148C39.8317 34.9716 39.4709 35.0227 39.1186 35.0682C38.772 35.108 38.4908 35.142 38.2749 35.1705C37.7521 35.2386 37.2635 35.3494 36.8089 35.5028C36.3601 35.6506 35.9964 35.875 35.718 36.1761C35.4453 36.4716 35.3089 36.875 35.3089 37.3864C35.3089 38.0852 35.5675 38.6136 36.0845 38.9716C36.6072 39.3239 37.2692 39.5 38.0703 39.5Z" fill="white"/>
<path d="M22.8864 50.6364C22.8523 50.3485 22.714 50.125 22.4716 49.9659C22.2292 49.8068 21.9318 49.7273 21.5795 49.7273C21.322 49.7273 21.0966 49.7689 20.9034 49.8523C20.7121 49.9356 20.5625 50.0502 20.4545 50.196C20.3485 50.3419 20.2955 50.5076 20.2955 50.6932C20.2955 50.8485 20.3324 50.982 20.4062 51.0938C20.482 51.2036 20.5786 51.2955 20.696 51.3693C20.8134 51.4413 20.9366 51.5009 21.0653 51.5483C21.1941 51.5937 21.3125 51.6307 21.4205 51.6591L22.0114 51.8182C22.1629 51.858 22.3314 51.9129 22.517 51.983C22.7045 52.053 22.8835 52.1487 23.054 52.2699C23.2263 52.3892 23.3684 52.5426 23.4801 52.7301C23.5919 52.9176 23.6477 53.1477 23.6477 53.4205C23.6477 53.7348 23.5653 54.0189 23.4006 54.2727C23.2377 54.5265 22.9991 54.7282 22.6847 54.8778C22.3722 55.0275 21.9924 55.1023 21.5455 55.1023C21.1288 55.1023 20.768 55.035 20.4631 54.9006C20.16 54.7661 19.9214 54.5786 19.7472 54.3381C19.5748 54.0975 19.4773 53.8182 19.4545 53.5H20.1818C20.2008 53.7197 20.2746 53.9015 20.4034 54.0455C20.5341 54.1875 20.6989 54.2936 20.8977 54.3636C21.0985 54.4318 21.3144 54.4659 21.5455 54.4659C21.8144 54.4659 22.0559 54.4223 22.2699 54.3352C22.4839 54.2462 22.6534 54.1231 22.7784 53.9659C22.9034 53.8068 22.9659 53.6212 22.9659 53.4091C22.9659 53.2159 22.9119 53.0587 22.804 52.9375C22.696 52.8163 22.554 52.7178 22.3778 52.642C22.2017 52.5663 22.0114 52.5 21.8068 52.4432L21.0909 52.2386C20.6364 52.108 20.2765 51.9214 20.0114 51.679C19.7462 51.4366 19.6136 51.1193 19.6136 50.7273C19.6136 50.4015 19.7017 50.1174 19.8778 49.875C20.0559 49.6307 20.2945 49.4413 20.5938 49.3068C20.8949 49.1705 21.2311 49.1023 21.6023 49.1023C21.9773 49.1023 22.3106 49.1695 22.6023 49.304C22.8939 49.4366 23.125 49.6184 23.2955 49.8494C23.4678 50.0805 23.5587 50.3428 23.5682 50.6364H22.8864ZM26.4879 55.0909C26.094 55.0909 25.7483 54.9972 25.451 54.8097C25.1555 54.6222 24.9245 54.3598 24.7578 54.0227C24.593 53.6856 24.5107 53.2917 24.5107 52.8409C24.5107 52.3864 24.593 51.9896 24.7578 51.6506C24.9245 51.3116 25.1555 51.0483 25.451 50.8608C25.7483 50.6733 26.094 50.5795 26.4879 50.5795C26.8819 50.5795 27.2266 50.6733 27.522 50.8608C27.8194 51.0483 28.0504 51.3116 28.2152 51.6506C28.3819 51.9896 28.4652 52.3864 28.4652 52.8409C28.4652 53.2917 28.3819 53.6856 28.2152 54.0227C28.0504 54.3598 27.8194 54.6222 27.522 54.8097C27.2266 54.9972 26.8819 55.0909 26.4879 55.0909ZM26.4879 54.4886C26.7872 54.4886 27.0334 54.4119 27.2266 54.2585C27.4197 54.1051 27.5627 53.9034 27.6555 53.6534C27.7483 53.4034 27.7947 53.1326 27.7947 52.8409C27.7947 52.5492 27.7483 52.2775 27.6555 52.0256C27.5627 51.7737 27.4197 51.5701 27.2266 51.4148C27.0334 51.2595 26.7872 51.1818 26.4879 51.1818C26.1887 51.1818 25.9425 51.2595 25.7493 51.4148C25.5561 51.5701 25.4131 51.7737 25.3203 52.0256C25.2275 52.2775 25.1811 52.5492 25.1811 52.8409C25.1811 53.1326 25.2275 53.4034 25.3203 53.6534C25.4131 53.9034 25.5561 54.1051 25.7493 54.2585C25.9425 54.4119 26.1887 54.4886 26.4879 54.4886ZM26.1811 50.0455L26.8743 48.7273H27.6584L26.772 50.0455H26.1811ZM31.1364 55.0909C30.7727 55.0909 30.4517 54.9991 30.1733 54.8153C29.8949 54.6297 29.6771 54.3684 29.5199 54.0312C29.3627 53.6922 29.2841 53.2917 29.2841 52.8295C29.2841 52.3712 29.3627 51.9735 29.5199 51.6364C29.6771 51.2992 29.8958 51.0388 30.1761 50.8551C30.4564 50.6714 30.7803 50.5795 31.1477 50.5795C31.4318 50.5795 31.6563 50.6269 31.821 50.7216C31.9877 50.8144 32.1146 50.9205 32.2017 51.0398C32.2907 51.1572 32.3598 51.2538 32.4091 51.3295H32.4659V49.1818H33.1364V55H32.4886V54.3295H32.4091C32.3598 54.4091 32.2898 54.5095 32.1989 54.6307C32.108 54.75 31.9782 54.857 31.8097 54.9517C31.6411 55.0445 31.4167 55.0909 31.1364 55.0909ZM31.2273 54.4886C31.4962 54.4886 31.7235 54.4186 31.9091 54.2784C32.0947 54.1364 32.2358 53.9403 32.3324 53.6903C32.429 53.4384 32.4773 53.1477 32.4773 52.8182C32.4773 52.4924 32.4299 52.2074 32.3352 51.9631C32.2405 51.7169 32.1004 51.5256 31.9148 51.3892C31.7292 51.2509 31.5 51.1818 31.2273 51.1818C30.9432 51.1818 30.7064 51.2547 30.517 51.4006C30.3295 51.5445 30.1884 51.7405 30.0938 51.9886C30.0009 52.2348 29.9545 52.5114 29.9545 52.8182C29.9545 53.1288 30.0019 53.411 30.0966 53.6648C30.1932 53.9167 30.3352 54.1174 30.5227 54.267C30.7121 54.4148 30.947 54.4886 31.2273 54.4886ZM34.4574 55V50.6364H35.1278V55H34.4574ZM34.7983 49.9091C34.6676 49.9091 34.5549 49.8646 34.4602 49.7756C34.3674 49.6866 34.321 49.5795 34.321 49.4545C34.321 49.3295 34.3674 49.2225 34.4602 49.1335C34.5549 49.0445 34.6676 49 34.7983 49C34.929 49 35.0407 49.0445 35.1335 49.1335C35.2282 49.2225 35.2756 49.3295 35.2756 49.4545C35.2756 49.5795 35.2282 49.6866 35.1335 49.7756C35.0407 49.8646 34.929 49.9091 34.7983 49.9091ZM38.1286 55.0909C37.7346 55.0909 37.389 54.9972 37.0916 54.8097C36.7962 54.6222 36.5651 54.3598 36.3984 54.0227C36.2337 53.6856 36.1513 53.2917 36.1513 52.8409C36.1513 52.3864 36.2337 51.9896 36.3984 51.6506C36.5651 51.3116 36.7962 51.0483 37.0916 50.8608C37.389 50.6733 37.7346 50.5795 38.1286 50.5795C38.5225 50.5795 38.8672 50.6733 39.1626 50.8608C39.46 51.0483 39.6911 51.3116 39.8558 51.6506C40.0225 51.9896 40.1058 52.3864 40.1058 52.8409C40.1058 53.2917 40.0225 53.6856 39.8558 54.0227C39.6911 54.3598 39.46 54.6222 39.1626 54.8097C38.8672 54.9972 38.5225 55.0909 38.1286 55.0909ZM38.1286 54.4886C38.4278 54.4886 38.674 54.4119 38.8672 54.2585C39.0604 54.1051 39.2034 53.9034 39.2962 53.6534C39.389 53.4034 39.4354 53.1326 39.4354 52.8409C39.4354 52.5492 39.389 52.2775 39.2962 52.0256C39.2034 51.7737 39.0604 51.5701 38.8672 51.4148C38.674 51.2595 38.4278 51.1818 38.1286 51.1818C37.8293 51.1818 37.5831 51.2595 37.3899 51.4148C37.1967 51.5701 37.0537 51.7737 36.9609 52.0256C36.8681 52.2775 36.8217 52.5492 36.8217 52.8409C36.8217 53.1326 36.8681 53.4034 36.9609 53.6534C37.0537 53.9034 37.1967 54.1051 37.3899 54.2585C37.5831 54.4119 37.8293 54.4886 38.1286 54.4886Z" fill="white"/>
</g>
<rect x="64" width="60" height="60" rx="5" fill="#1B5A70"/>
<g clip-path="url(#clip4_566_54)">
<path d="M68.1023 13.5V12.9886L70.0227 10.8864C70.2481 10.6402 70.4337 10.4261 70.5795 10.2443C70.7254 10.0606 70.8333 9.88826 70.9034 9.72727C70.9754 9.56439 71.0114 9.39394 71.0114 9.21591C71.0114 9.01136 70.9621 8.83428 70.8636 8.68466C70.767 8.53504 70.6345 8.41951 70.4659 8.33807C70.2973 8.25663 70.108 8.21591 69.8977 8.21591C69.6742 8.21591 69.4792 8.26231 69.3125 8.35511C69.1477 8.44602 69.0199 8.57386 68.929 8.73864C68.84 8.90341 68.7955 9.09659 68.7955 9.31818H68.125C68.125 8.97727 68.2036 8.67803 68.3608 8.42045C68.518 8.16288 68.732 7.96212 69.0028 7.81818C69.2756 7.67424 69.5814 7.60227 69.9205 7.60227C70.2614 7.60227 70.5634 7.67424 70.8267 7.81818C71.09 7.96212 71.2964 8.15625 71.446 8.40057C71.5956 8.64489 71.6705 8.91667 71.6705 9.21591C71.6705 9.42992 71.6316 9.6392 71.554 9.84375C71.4782 10.0464 71.3456 10.2727 71.1562 10.5227C70.9688 10.7708 70.7083 11.0739 70.375 11.4318L69.0682 12.8295V12.875H71.7727V13.5H68.1023ZM72.6847 12.3068V11.7273L75.2415 7.68182H75.6619V8.57955H75.3778L73.446 11.6364V11.6818H76.8892V12.3068H72.6847ZM75.4233 13.5V12.1307V11.8608V7.68182H76.0938V13.5H75.4233ZM78.1804 13.5455C78.0402 13.5455 77.92 13.4953 77.8196 13.3949C77.7192 13.2945 77.669 13.1742 77.669 13.0341C77.669 12.8939 77.7192 12.7737 77.8196 12.6733C77.92 12.5729 78.0402 12.5227 78.1804 12.5227C78.3205 12.5227 78.4408 12.5729 78.5412 12.6733C78.6416 12.7737 78.6918 12.8939 78.6918 13.0341C78.6918 13.1269 78.6681 13.2121 78.6207 13.2898C78.5753 13.3674 78.5137 13.4299 78.4361 13.4773C78.3603 13.5227 78.2751 13.5455 78.1804 13.5455ZM81.6307 13.5795C81.2557 13.5795 80.9214 13.5152 80.6278 13.3864C80.3362 13.2576 80.1042 13.0786 79.9318 12.8494C79.7614 12.6184 79.6686 12.3504 79.6534 12.0455H80.3693C80.3845 12.233 80.4489 12.3949 80.5625 12.5312C80.6761 12.6657 80.8248 12.7699 81.0085 12.8438C81.1922 12.9176 81.3958 12.9545 81.6193 12.9545C81.8693 12.9545 82.0909 12.911 82.2841 12.8239C82.4773 12.7367 82.6288 12.6155 82.7386 12.4602C82.8485 12.3049 82.9034 12.125 82.9034 11.9205C82.9034 11.7064 82.8504 11.518 82.7443 11.3551C82.6383 11.1903 82.483 11.0616 82.2784 10.9688C82.0739 10.8759 81.8239 10.8295 81.5284 10.8295H81.0625V10.2045H81.5284C81.7595 10.2045 81.9621 10.1629 82.1364 10.0795C82.3125 9.99621 82.4498 9.87879 82.5483 9.72727C82.6487 9.57576 82.6989 9.39773 82.6989 9.19318C82.6989 8.99621 82.6553 8.82481 82.5682 8.67898C82.4811 8.53314 82.358 8.41951 82.1989 8.33807C82.0417 8.25663 81.8561 8.21591 81.642 8.21591C81.4413 8.21591 81.2519 8.25284 81.0739 8.3267C80.8977 8.39867 80.7538 8.50379 80.642 8.64205C80.5303 8.77841 80.4697 8.94318 80.4602 9.13636H79.7784C79.7898 8.83144 79.8816 8.56439 80.054 8.33523C80.2263 8.10417 80.4517 7.92424 80.7301 7.79545C81.0104 7.66667 81.3182 7.60227 81.6534 7.60227C82.0133 7.60227 82.322 7.67519 82.5795 7.82102C82.8371 7.96496 83.035 8.1553 83.1733 8.39205C83.3116 8.62879 83.3807 8.88447 83.3807 9.15909C83.3807 9.48674 83.2945 9.7661 83.1222 9.99716C82.9517 10.2282 82.7197 10.3883 82.4261 10.4773V10.5227C82.7936 10.5833 83.0805 10.7396 83.2869 10.9915C83.4934 11.2415 83.5966 11.5511 83.5966 11.9205C83.5966 12.2367 83.5104 12.5208 83.3381 12.7727C83.1676 13.0227 82.9347 13.2197 82.6392 13.3636C82.3438 13.5076 82.0076 13.5795 81.6307 13.5795ZM86.6562 13.5795C86.2282 13.5795 85.8636 13.4631 85.5625 13.2301C85.2614 12.9953 85.0313 12.6553 84.8722 12.2102C84.7131 11.7633 84.6335 11.2235 84.6335 10.5909C84.6335 9.96212 84.7131 9.42519 84.8722 8.98011C85.0331 8.53314 85.2642 8.19223 85.5653 7.95739C85.8684 7.72064 86.232 7.60227 86.6562 7.60227C87.0805 7.60227 87.4432 7.72064 87.7443 7.95739C88.0473 8.19223 88.2784 8.53314 88.4375 8.98011C88.5985 9.42519 88.679 9.96212 88.679 10.5909C88.679 11.2235 88.5994 11.7633 88.4403 12.2102C88.2812 12.6553 88.0511 12.9953 87.75 13.2301C87.4489 13.4631 87.0843 13.5795 86.6562 13.5795ZM86.6562 12.9545C87.0805 12.9545 87.41 12.75 87.6449 12.3409C87.8797 11.9318 87.9972 11.3485 87.9972 10.5909C87.9972 10.0871 87.9432 9.65814 87.8352 9.30398C87.7292 8.94981 87.5758 8.67992 87.375 8.49432C87.1761 8.30871 86.9366 8.21591 86.6562 8.21591C86.2358 8.21591 85.9072 8.4233 85.6705 8.83807C85.4337 9.25095 85.3153 9.83523 85.3153 10.5909C85.3153 11.0947 85.3684 11.5227 85.4744 11.875C85.5805 12.2273 85.733 12.4953 85.9318 12.679C86.1326 12.8627 86.3741 12.9545 86.6562 12.9545ZM91.5767 13.5795C91.2434 13.5795 90.9432 13.5133 90.6761 13.3807C90.4091 13.2481 90.1951 13.0663 90.0341 12.8352C89.8731 12.6042 89.785 12.3409 89.7699 12.0455H90.4517C90.4782 12.3087 90.5975 12.5265 90.8097 12.6989C91.0237 12.8693 91.2794 12.9545 91.5767 12.9545C91.8153 12.9545 92.0275 12.8987 92.2131 12.7869C92.4006 12.6752 92.5473 12.5218 92.6534 12.3267C92.7614 12.1297 92.8153 11.9072 92.8153 11.6591C92.8153 11.4053 92.7595 11.179 92.6477 10.9801C92.5379 10.7794 92.3864 10.6212 92.1932 10.5057C92 10.3902 91.7794 10.3314 91.5312 10.3295C91.3532 10.3277 91.1705 10.3551 90.983 10.4119C90.7955 10.4669 90.6411 10.5379 90.5199 10.625L89.8608 10.5455L90.2131 7.68182H93.2358V8.30682H90.804L90.5994 10.0227H90.6335C90.7528 9.92803 90.9025 9.84943 91.0824 9.78693C91.2623 9.72443 91.4498 9.69318 91.6449 9.69318C92.0009 9.69318 92.3182 9.77841 92.5966 9.94886C92.8769 10.1174 93.0966 10.3485 93.2557 10.642C93.4167 10.9356 93.4972 11.2708 93.4972 11.6477C93.4972 12.0189 93.4138 12.3504 93.2472 12.642C93.0824 12.9318 92.8551 13.161 92.5653 13.3295C92.2756 13.4962 91.946 13.5795 91.5767 13.5795ZM96.5234 13.5795C96.0954 13.5795 95.7308 13.4631 95.4297 13.2301C95.1286 12.9953 94.8984 12.6553 94.7393 12.2102C94.5803 11.7633 94.5007 11.2235 94.5007 10.5909C94.5007 9.96212 94.5803 9.42519 94.7393 8.98011C94.9003 8.53314 95.1314 8.19223 95.4325 7.95739C95.7356 7.72064 96.0992 7.60227 96.5234 7.60227C96.9477 7.60227 97.3104 7.72064 97.6115 7.95739C97.9145 8.19223 98.1456 8.53314 98.3047 8.98011C98.4657 9.42519 98.5462 9.96212 98.5462 10.5909C98.5462 11.2235 98.4666 11.7633 98.3075 12.2102C98.1484 12.6553 97.9183 12.9953 97.6172 13.2301C97.3161 13.4631 96.9515 13.5795 96.5234 13.5795ZM96.5234 12.9545C96.9477 12.9545 97.2772 12.75 97.5121 12.3409C97.7469 11.9318 97.8643 11.3485 97.8643 10.5909C97.8643 10.0871 97.8104 9.65814 97.7024 9.30398C97.5964 8.94981 97.4429 8.67992 97.2422 8.49432C97.0433 8.30871 96.8037 8.21591 96.5234 8.21591C96.103 8.21591 95.7744 8.4233 95.5376 8.83807C95.3009 9.25095 95.1825 9.83523 95.1825 10.5909C95.1825 11.0947 95.2356 11.5227 95.3416 11.875C95.4477 12.2273 95.6001 12.4953 95.799 12.679C95.9998 12.8627 96.2412 12.9545 96.5234 12.9545Z" fill="white"/>
<path d="M111.472 6.27273V15H110.415V7.38068H110.364L108.233 8.79545V7.72159L110.415 6.27273H111.472ZM113.982 15V14.233L116.862 11.0795C117.2 10.7102 117.479 10.3892 117.697 10.1165C117.916 9.84091 118.078 9.58239 118.183 9.34091C118.291 9.09659 118.345 8.84091 118.345 8.57386C118.345 8.26705 118.271 8.00142 118.124 7.77699C117.979 7.55256 117.78 7.37926 117.527 7.2571C117.274 7.13494 116.99 7.07386 116.675 7.07386C116.339 7.07386 116.047 7.14347 115.797 7.28267C115.55 7.41903 115.358 7.6108 115.222 7.85795C115.088 8.10511 115.021 8.39489 115.021 8.72727H114.016C114.016 8.21591 114.134 7.76705 114.369 7.38068C114.605 6.99432 114.926 6.69318 115.332 6.47727C115.741 6.26136 116.2 6.15341 116.709 6.15341C117.22 6.15341 117.673 6.26136 118.068 6.47727C118.463 6.69318 118.773 6.98437 118.997 7.35085C119.222 7.71733 119.334 8.125 119.334 8.57386C119.334 8.89489 119.276 9.20881 119.159 9.51562C119.045 9.8196 118.847 10.1591 118.562 10.5341C118.281 10.9062 117.891 11.3608 117.391 11.8977L115.43 13.9943V14.0625H119.487V15H113.982Z" fill="white"/>
</g>
<g clip-path="url(#clip5_566_54)">
<path d="M78.1136 23.5455H80.6364L86.5682 38.0341H86.7727L92.7045 23.5455H95.2273V41H93.25V27.7386H93.0795L87.625 41H85.7159L80.2614 27.7386H80.0909V41H78.1136V23.5455ZM104.477 46.1818C103.505 46.1818 102.67 46.0568 101.971 45.8068C101.272 45.5625 100.69 45.2386 100.224 44.8352C99.7635 44.4375 99.397 44.0114 99.1243 43.5568L100.727 42.4318C100.908 42.6705 101.138 42.9432 101.417 43.25C101.695 43.5625 102.076 43.8324 102.559 44.0597C103.048 44.2926 103.687 44.4091 104.477 44.4091C105.533 44.4091 106.406 44.1534 107.093 43.642C107.781 43.1307 108.124 42.3295 108.124 41.2386V38.5795H107.954C107.806 38.8182 107.596 39.1136 107.323 39.4659C107.056 39.8125 106.67 40.1222 106.164 40.3949C105.664 40.6619 104.988 40.7955 104.136 40.7955C103.079 40.7955 102.13 40.5455 101.289 40.0455C100.454 39.5455 99.7919 38.8182 99.3033 37.8636C98.8203 36.9091 98.5788 35.75 98.5788 34.3864C98.5788 33.0455 98.8146 31.8778 99.2862 30.8835C99.7578 29.8835 100.414 29.1108 101.255 28.5653C102.096 28.0142 103.067 27.7386 104.17 27.7386C105.022 27.7386 105.698 27.8807 106.198 28.1648C106.704 28.4432 107.09 28.7614 107.357 29.1193C107.63 29.4716 107.84 29.7614 107.988 29.9886H108.192V27.9091H110.136V41.375C110.136 42.5 109.88 43.4148 109.369 44.1193C108.863 44.8295 108.181 45.3494 107.323 45.679C106.471 46.0142 105.522 46.1818 104.477 46.1818ZM104.408 38.9886C105.215 38.9886 105.897 38.804 106.454 38.4347C107.011 38.0653 107.434 37.5341 107.724 36.8409C108.013 36.1477 108.158 35.3182 108.158 34.3523C108.158 33.4091 108.016 32.5767 107.732 31.8551C107.448 31.1335 107.028 30.5682 106.471 30.1591C105.914 29.75 105.227 29.5455 104.408 29.5455C103.556 29.5455 102.846 29.7614 102.278 30.1932C101.715 30.625 101.292 31.2045 101.008 31.9318C100.729 32.6591 100.59 33.4659 100.59 34.3523C100.59 35.2614 100.732 36.0653 101.016 36.7642C101.306 37.4574 101.732 38.0028 102.295 38.4006C102.863 38.7926 103.567 38.9886 104.408 38.9886Z" fill="white"/>
<path d="M76.2045 49.1818H77.0455L79.0227 54.0114H79.0909L81.0682 49.1818H81.9091V55H81.25V50.5795H81.1932L79.375 55H78.7386L76.9205 50.5795H76.8636V55H76.2045V49.1818ZM84.5149 55.1023C84.2384 55.1023 83.9875 55.0502 83.7621 54.946C83.5367 54.84 83.3577 54.6875 83.2251 54.4886C83.0926 54.2879 83.0263 54.0455 83.0263 53.7614C83.0263 53.5114 83.0755 53.3087 83.174 53.1534C83.2725 52.9962 83.4041 52.8731 83.5689 52.7841C83.7337 52.6951 83.9155 52.6288 84.1143 52.5852C84.3151 52.5398 84.5168 52.5038 84.7195 52.4773C84.9846 52.4432 85.1996 52.4176 85.3643 52.4006C85.531 52.3816 85.6522 52.3504 85.728 52.3068C85.8056 52.2633 85.8445 52.1875 85.8445 52.0795V52.0568C85.8445 51.7765 85.7678 51.5587 85.6143 51.4034C85.4628 51.2481 85.2327 51.1705 84.924 51.1705C84.6039 51.1705 84.353 51.2405 84.1712 51.3807C83.9893 51.5208 83.8615 51.6705 83.7876 51.8295L83.1513 51.6023C83.2649 51.3371 83.4164 51.1307 83.6058 50.983C83.7971 50.8333 84.0054 50.7292 84.2308 50.6705C84.4581 50.6098 84.6816 50.5795 84.9013 50.5795C85.0414 50.5795 85.2024 50.5966 85.3842 50.6307C85.5679 50.6629 85.745 50.7301 85.9155 50.8324C86.0878 50.9347 86.2308 51.089 86.3445 51.2955C86.4581 51.5019 86.5149 51.7784 86.5149 52.125V55H85.8445V54.4091H85.8104C85.7649 54.5038 85.6892 54.6051 85.5831 54.7131C85.477 54.821 85.3359 54.9129 85.1598 54.9886C84.9837 55.0644 84.7687 55.1023 84.5149 55.1023ZM84.6172 54.5C84.8823 54.5 85.1058 54.4479 85.2876 54.3438C85.4714 54.2396 85.6096 54.1051 85.7024 53.9403C85.7971 53.7756 85.8445 53.6023 85.8445 53.4205V52.8068C85.8161 52.8409 85.7536 52.8722 85.657 52.9006C85.5623 52.9271 85.4524 52.9508 85.3274 52.9716C85.2043 52.9905 85.084 53.0076 84.9666 53.0227C84.8511 53.036 84.7573 53.0473 84.6854 53.0568C84.5111 53.0795 84.3482 53.1165 84.1967 53.1676C84.0471 53.2169 83.9259 53.2917 83.8331 53.392C83.7422 53.4905 83.6967 53.625 83.6967 53.7955C83.6967 54.0284 83.7829 54.2045 83.9553 54.3239C84.1295 54.4413 84.3501 54.5 84.6172 54.5ZM89.5 56.7273C89.1761 56.7273 88.8977 56.6856 88.6648 56.6023C88.4318 56.5208 88.2377 56.4129 88.0824 56.2784C87.929 56.1458 87.8068 56.0038 87.7159 55.8523L88.25 55.4773C88.3106 55.5568 88.3873 55.6477 88.4801 55.75C88.5729 55.8542 88.6998 55.9441 88.8608 56.0199C89.0237 56.0975 89.2367 56.1364 89.5 56.1364C89.8523 56.1364 90.143 56.0511 90.3722 55.8807C90.6013 55.7102 90.7159 55.4432 90.7159 55.0795V54.1932H90.6591C90.6098 54.2727 90.5398 54.3712 90.4489 54.4886C90.3598 54.6042 90.2311 54.7074 90.0625 54.7983C89.8958 54.8873 89.6705 54.9318 89.3864 54.9318C89.0341 54.9318 88.7178 54.8485 88.4375 54.6818C88.1591 54.5152 87.9384 54.2727 87.7756 53.9545C87.6146 53.6364 87.5341 53.25 87.5341 52.7955C87.5341 52.3485 87.6127 51.9593 87.7699 51.6278C87.9271 51.2945 88.1458 51.0369 88.4261 50.8551C88.7064 50.6714 89.0303 50.5795 89.3977 50.5795C89.6818 50.5795 89.9072 50.6269 90.0739 50.7216C90.2424 50.8144 90.3712 50.9205 90.4602 51.0398C90.5511 51.1572 90.6212 51.2538 90.6705 51.3295H90.7386V50.6364H91.3864V55.125C91.3864 55.5 91.3011 55.8049 91.1307 56.0398C90.9621 56.2765 90.7348 56.4498 90.4489 56.5597C90.1648 56.6714 89.8485 56.7273 89.5 56.7273ZM89.4773 54.3295C89.7462 54.3295 89.9735 54.268 90.1591 54.1449C90.3447 54.0218 90.4858 53.8447 90.5824 53.6136C90.679 53.3826 90.7273 53.1061 90.7273 52.7841C90.7273 52.4697 90.6799 52.1922 90.5852 51.9517C90.4905 51.7112 90.3504 51.5227 90.1648 51.3864C89.9792 51.25 89.75 51.1818 89.4773 51.1818C89.1932 51.1818 88.9564 51.2538 88.767 51.3977C88.5795 51.5417 88.4384 51.7348 88.3438 51.9773C88.2509 52.2197 88.2045 52.4886 88.2045 52.7841C88.2045 53.0871 88.2519 53.3551 88.3466 53.5881C88.4432 53.8191 88.5852 54.0009 88.7727 54.1335C88.9621 54.2642 89.197 54.3295 89.4773 54.3295ZM93.2841 52.375V55H92.6136V50.6364H93.2614V51.3182H93.3182C93.4205 51.0966 93.5758 50.9186 93.7841 50.7841C93.9924 50.6477 94.2614 50.5795 94.5909 50.5795C94.8864 50.5795 95.1449 50.6402 95.3665 50.7614C95.5881 50.8807 95.7604 51.0625 95.8835 51.3068C96.0066 51.5492 96.0682 51.8561 96.0682 52.2273V55H95.3977V52.2727C95.3977 51.9299 95.3087 51.6629 95.1307 51.4716C94.9527 51.2784 94.7083 51.1818 94.3977 51.1818C94.1837 51.1818 93.9924 51.2282 93.8239 51.321C93.6572 51.4138 93.5256 51.5492 93.429 51.7273C93.3324 51.9053 93.2841 52.1212 93.2841 52.375ZM99.1229 55.0909C98.7024 55.0909 98.3397 54.9981 98.0348 54.8125C97.7318 54.625 97.4979 54.3636 97.3331 54.0284C97.1702 53.6913 97.0888 53.2992 97.0888 52.8523C97.0888 52.4053 97.1702 52.0114 97.3331 51.6705C97.4979 51.3277 97.727 51.0606 98.0206 50.8693C98.3161 50.6761 98.6607 50.5795 99.0547 50.5795C99.282 50.5795 99.5064 50.6174 99.728 50.6932C99.9496 50.7689 100.151 50.892 100.333 51.0625C100.515 51.2311 100.66 51.4545 100.768 51.733C100.876 52.0114 100.93 52.3542 100.93 52.7614V53.0455H97.5661V52.4659H100.248C100.248 52.2197 100.199 52 100.1 51.8068C100.004 51.6136 99.8653 51.4612 99.6854 51.3494C99.5073 51.2377 99.2971 51.1818 99.0547 51.1818C98.7876 51.1818 98.5566 51.2481 98.3615 51.3807C98.1683 51.5114 98.0196 51.6818 97.9155 51.892C97.8113 52.1023 97.7592 52.3277 97.7592 52.5682V52.9545C97.7592 53.2841 97.8161 53.5634 97.9297 53.7926C98.0452 54.0199 98.2053 54.1932 98.4098 54.3125C98.6143 54.4299 98.852 54.4886 99.1229 54.4886C99.299 54.4886 99.4581 54.464 99.6001 54.4148C99.7441 54.3636 99.8681 54.2879 99.9723 54.1875C100.076 54.0852 100.157 53.9583 100.214 53.8068L100.862 53.9886C100.793 54.2083 100.679 54.4015 100.518 54.5682C100.357 54.733 100.158 54.8617 99.9212 54.9545C99.6844 55.0455 99.4183 55.0909 99.1229 55.0909ZM98.7138 50.0455L99.407 48.7273H100.191L99.3047 50.0455H98.7138ZM105.04 51.6136L104.438 51.7841C104.4 51.6837 104.344 51.5862 104.271 51.4915C104.199 51.3949 104.1 51.3153 103.975 51.2528C103.85 51.1903 103.69 51.1591 103.495 51.1591C103.228 51.1591 103.005 51.2206 102.827 51.3438C102.651 51.465 102.563 51.6193 102.563 51.8068C102.563 51.9735 102.624 52.1051 102.745 52.2017C102.866 52.2983 103.056 52.3788 103.313 52.4432L103.961 52.6023C104.351 52.697 104.642 52.8419 104.833 53.0369C105.024 53.2301 105.12 53.4792 105.12 53.7841C105.12 54.0341 105.048 54.2576 104.904 54.4545C104.762 54.6515 104.563 54.8068 104.308 54.9205C104.052 55.0341 103.754 55.0909 103.415 55.0909C102.97 55.0909 102.602 54.9943 102.31 54.8011C102.019 54.608 101.834 54.3258 101.756 53.9545L102.393 53.7955C102.453 54.0303 102.568 54.2064 102.737 54.3239C102.907 54.4413 103.129 54.5 103.404 54.5C103.717 54.5 103.965 54.4337 104.148 54.3011C104.334 54.1667 104.427 54.0057 104.427 53.8182C104.427 53.6667 104.374 53.5398 104.268 53.4375C104.162 53.3333 103.999 53.2557 103.779 53.2045L103.052 53.0341C102.652 52.9394 102.359 52.7926 102.171 52.5938C101.986 52.393 101.893 52.142 101.893 51.8409C101.893 51.5947 101.962 51.3769 102.1 51.1875C102.24 50.9981 102.431 50.8494 102.671 50.7415C102.914 50.6335 103.188 50.5795 103.495 50.5795C103.927 50.5795 104.266 50.6742 104.512 50.8636C104.76 51.053 104.936 51.303 105.04 51.6136ZM106.129 55V50.6364H106.8V55H106.129ZM106.47 49.9091C106.339 49.9091 106.227 49.8646 106.132 49.7756C106.039 49.6866 105.993 49.5795 105.993 49.4545C105.993 49.3295 106.039 49.2225 106.132 49.1335C106.227 49.0445 106.339 49 106.47 49C106.601 49 106.713 49.0445 106.805 49.1335C106.9 49.2225 106.947 49.3295 106.947 49.4545C106.947 49.5795 106.9 49.6866 106.805 49.7756C106.713 49.8646 106.601 49.9091 106.47 49.9091ZM109.8 55.0909C109.406 55.0909 109.061 54.9972 108.763 54.8097C108.468 54.6222 108.237 54.3598 108.07 54.0227C107.906 53.6856 107.823 53.2917 107.823 52.8409C107.823 52.3864 107.906 51.9896 108.07 51.6506C108.237 51.3116 108.468 51.0483 108.763 50.8608C109.061 50.6733 109.406 50.5795 109.8 50.5795C110.194 50.5795 110.539 50.6733 110.835 50.8608C111.132 51.0483 111.363 51.3116 111.528 51.6506C111.694 51.9896 111.778 52.3864 111.778 52.8409C111.778 53.2917 111.694 53.6856 111.528 54.0227C111.363 54.3598 111.132 54.6222 110.835 54.8097C110.539 54.9972 110.194 55.0909 109.8 55.0909ZM109.8 54.4886C110.1 54.4886 110.346 54.4119 110.539 54.2585C110.732 54.1051 110.875 53.9034 110.968 53.6534C111.061 53.4034 111.107 53.1326 111.107 52.8409C111.107 52.5492 111.061 52.2775 110.968 52.0256C110.875 51.7737 110.732 51.5701 110.539 51.4148C110.346 51.2595 110.1 51.1818 109.8 51.1818C109.501 51.1818 109.255 51.2595 109.062 51.4148C108.869 51.5701 108.726 51.7737 108.633 52.0256C108.54 52.2775 108.494 52.5492 108.494 52.8409C108.494 53.1326 108.54 53.4034 108.633 53.6534C108.726 53.9034 108.869 54.1051 109.062 54.2585C109.255 54.4119 109.501 54.4886 109.8 54.4886Z" fill="white"/>
</g>
</g>
<g clip-path="url(#clip6_566_54)">
<rect y="64" width="60" height="60" rx="5" fill="#1B5A70"/>
<g clip-path="url(#clip7_566_54)">
<path d="M5.56818 77.5795C5.19318 77.5795 4.8589 77.5152 4.56534 77.3864C4.27367 77.2576 4.04167 77.0786 3.86932 76.8494C3.69886 76.6184 3.60606 76.3504 3.59091 76.0455H4.30682C4.32197 76.233 4.38636 76.3949 4.5 76.5312C4.61364 76.6657 4.76231 76.7699 4.94602 76.8438C5.12973 76.9176 5.33333 76.9545 5.55682 76.9545C5.80682 76.9545 6.02841 76.911 6.22159 76.8239C6.41477 76.7367 6.56629 76.6155 6.67614 76.4602C6.78598 76.3049 6.84091 76.125 6.84091 75.9205C6.84091 75.7064 6.78788 75.518 6.68182 75.3551C6.57576 75.1903 6.42045 75.0616 6.21591 74.9688C6.01136 74.8759 5.76136 74.8295 5.46591 74.8295H5V74.2045H5.46591C5.69697 74.2045 5.89962 74.1629 6.07386 74.0795C6.25 73.9962 6.38731 73.8788 6.4858 73.7273C6.58617 73.5758 6.63636 73.3977 6.63636 73.1932C6.63636 72.9962 6.5928 72.8248 6.50568 72.679C6.41856 72.5331 6.29545 72.4195 6.13636 72.3381C5.97917 72.2566 5.79356 72.2159 5.57955 72.2159C5.37879 72.2159 5.18939 72.2528 5.01136 72.3267C4.83523 72.3987 4.69129 72.5038 4.57955 72.642C4.4678 72.7784 4.4072 72.9432 4.39773 73.1364H3.71591C3.72727 72.8314 3.81913 72.5644 3.99148 72.3352C4.16383 72.1042 4.3892 71.9242 4.66761 71.7955C4.94792 71.6667 5.25568 71.6023 5.59091 71.6023C5.95076 71.6023 6.25947 71.6752 6.51705 71.821C6.77462 71.965 6.97254 72.1553 7.1108 72.392C7.24905 72.6288 7.31818 72.8845 7.31818 73.1591C7.31818 73.4867 7.23201 73.7661 7.05966 73.9972C6.8892 74.2282 6.6572 74.3883 6.36364 74.4773V74.5227C6.73106 74.5833 7.01799 74.7396 7.22443 74.9915C7.43087 75.2415 7.53409 75.5511 7.53409 75.9205C7.53409 76.2367 7.44792 76.5208 7.27557 76.7727C7.10511 77.0227 6.87216 77.2197 6.5767 77.3636C6.28125 77.5076 5.94508 77.5795 5.56818 77.5795ZM10.5483 71.6023C10.7869 71.6042 11.0256 71.6496 11.2642 71.7386C11.5028 71.8277 11.7206 71.9754 11.9176 72.1818C12.1146 72.3864 12.2727 72.6657 12.392 73.0199C12.5114 73.3741 12.571 73.8182 12.571 74.3523C12.571 74.8693 12.5218 75.3286 12.4233 75.7301C12.3267 76.1297 12.1866 76.4669 12.0028 76.7415C11.821 77.0161 11.5994 77.2244 11.3381 77.3665C11.0786 77.5085 10.785 77.5795 10.4574 77.5795C10.1316 77.5795 9.84091 77.5152 9.58523 77.3864C9.33144 77.2557 9.12311 77.0748 8.96023 76.8438C8.79924 76.6108 8.69602 76.3409 8.65057 76.0341H9.34375C9.40625 76.3011 9.5303 76.5218 9.71591 76.696C9.90341 76.8684 10.1506 76.9545 10.4574 76.9545C10.9063 76.9545 11.2604 76.7585 11.5199 76.3665C11.7813 75.9744 11.9119 75.4205 11.9119 74.7045H11.8665C11.7604 74.8636 11.6345 75.0009 11.4886 75.1165C11.3428 75.232 11.1809 75.321 11.0028 75.3835C10.8248 75.446 10.6354 75.4773 10.4347 75.4773C10.1013 75.4773 9.79545 75.3949 9.51705 75.2301C9.24053 75.0634 9.01894 74.8352 8.85227 74.5455C8.6875 74.2538 8.60511 73.9205 8.60511 73.5455C8.60511 73.1894 8.68466 72.8636 8.84375 72.5682C9.00473 72.2708 9.23011 72.0341 9.51989 71.858C9.81155 71.6818 10.1544 71.5966 10.5483 71.6023ZM10.5483 72.2273C10.3097 72.2273 10.0947 72.2869 9.90341 72.4062C9.71402 72.5237 9.56345 72.6828 9.4517 72.8835C9.34186 73.0824 9.28693 73.303 9.28693 73.5455C9.28693 73.7879 9.33996 74.0085 9.44602 74.2074C9.55398 74.4044 9.70076 74.5616 9.88636 74.679C10.0739 74.7945 10.2869 74.8523 10.5256 74.8523C10.7055 74.8523 10.8731 74.8172 11.0284 74.7472C11.1837 74.6752 11.3191 74.5777 11.4347 74.4545C11.5521 74.3295 11.6439 74.1884 11.7102 74.0312C11.7765 73.8722 11.8097 73.7064 11.8097 73.5341C11.8097 73.3068 11.7547 73.0937 11.6449 72.8949C11.5369 72.696 11.3873 72.535 11.196 72.4119C11.0066 72.2888 10.7907 72.2273 10.5483 72.2273ZM13.9851 77.5455C13.8449 77.5455 13.7247 77.4953 13.6243 77.3949C13.5239 77.2945 13.4737 77.1742 13.4737 77.0341C13.4737 76.8939 13.5239 76.7737 13.6243 76.6733C13.7247 76.5729 13.8449 76.5227 13.9851 76.5227C14.1252 76.5227 14.2455 76.5729 14.3459 76.6733C14.4463 76.7737 14.4964 76.8939 14.4964 77.0341C14.4964 77.1269 14.4728 77.2121 14.4254 77.2898C14.38 77.3674 14.3184 77.4299 14.2408 77.4773C14.165 77.5227 14.0798 77.5455 13.9851 77.5455ZM17.3828 77.5795C16.9548 77.5795 16.5902 77.4631 16.2891 77.2301C15.9879 76.9953 15.7578 76.6553 15.5987 76.2102C15.4396 75.7633 15.3601 75.2235 15.3601 74.5909C15.3601 73.9621 15.4396 73.4252 15.5987 72.9801C15.7597 72.5331 15.9908 72.1922 16.2919 71.9574C16.5949 71.7206 16.9586 71.6023 17.3828 71.6023C17.8071 71.6023 18.1697 71.7206 18.4709 71.9574C18.7739 72.1922 19.005 72.5331 19.1641 72.9801C19.325 73.4252 19.4055 73.9621 19.4055 74.5909C19.4055 75.2235 19.326 75.7633 19.1669 76.2102C19.0078 76.6553 18.7777 76.9953 18.4766 77.2301C18.1754 77.4631 17.8108 77.5795 17.3828 77.5795ZM17.3828 76.9545C17.8071 76.9545 18.1366 76.75 18.3714 76.3409C18.6063 75.9318 18.7237 75.3485 18.7237 74.5909C18.7237 74.0871 18.6697 73.6581 18.5618 73.304C18.4557 72.9498 18.3023 72.6799 18.1016 72.4943C17.9027 72.3087 17.6631 72.2159 17.3828 72.2159C16.9624 72.2159 16.6338 72.4233 16.397 72.8381C16.1603 73.2509 16.0419 73.8352 16.0419 74.5909C16.0419 75.0947 16.0949 75.5227 16.201 75.875C16.3071 76.2273 16.4595 76.4953 16.6584 76.679C16.8591 76.8627 17.1006 76.9545 17.3828 76.9545ZM22.3374 71.6023C22.576 71.6042 22.8146 71.6496 23.0533 71.7386C23.2919 71.8277 23.5097 71.9754 23.7067 72.1818C23.9036 72.3864 24.0618 72.6657 24.1811 73.0199C24.3004 73.3741 24.3601 73.8182 24.3601 74.3523C24.3601 74.8693 24.3108 75.3286 24.2124 75.7301C24.1158 76.1297 23.9756 76.4669 23.7919 76.7415C23.6101 77.0161 23.3885 77.2244 23.1271 77.3665C22.8677 77.5085 22.5741 77.5795 22.2464 77.5795C21.9207 77.5795 21.63 77.5152 21.3743 77.3864C21.1205 77.2557 20.9122 77.0748 20.7493 76.8438C20.5883 76.6108 20.4851 76.3409 20.4396 76.0341H21.1328C21.1953 76.3011 21.3194 76.5218 21.505 76.696C21.6925 76.8684 21.9396 76.9545 22.2464 76.9545C22.6953 76.9545 23.0495 76.7585 23.3089 76.3665C23.5703 75.9744 23.701 75.4205 23.701 74.7045H23.6555C23.5495 74.8636 23.4235 75.0009 23.2777 75.1165C23.1319 75.232 22.9699 75.321 22.7919 75.3835C22.6139 75.446 22.4245 75.4773 22.2237 75.4773C21.8904 75.4773 21.5845 75.3949 21.3061 75.2301C21.0296 75.0634 20.808 74.8352 20.6413 74.5455C20.4766 74.2538 20.3942 73.9205 20.3942 73.5455C20.3942 73.1894 20.4737 72.8636 20.6328 72.5682C20.7938 72.2708 21.0192 72.0341 21.3089 71.858C21.6006 71.6818 21.9434 71.5966 22.3374 71.6023ZM22.3374 72.2273C22.0987 72.2273 21.8838 72.2869 21.6925 72.4062C21.5031 72.5237 21.3525 72.6828 21.2408 72.8835C21.1309 73.0824 21.076 73.303 21.076 73.5455C21.076 73.7879 21.129 74.0085 21.2351 74.2074C21.343 74.4044 21.4898 74.5616 21.6754 74.679C21.8629 74.7945 22.076 74.8523 22.3146 74.8523C22.4946 74.8523 22.6622 74.8172 22.8175 74.7472C22.9728 74.6752 23.1082 74.5777 23.2237 74.4545C23.3411 74.3295 23.433 74.1884 23.4993 74.0312C23.5656 73.8722 23.5987 73.7064 23.5987 73.5341C23.5987 73.3068 23.5438 73.0937 23.4339 72.8949C23.326 72.696 23.1764 72.535 22.9851 72.4119C22.7957 72.2888 22.5798 72.2273 22.3374 72.2273ZM27.3409 77.5795C26.9508 77.5795 26.6061 77.5104 26.3068 77.3722C26.0095 77.232 25.7775 77.0398 25.6108 76.7955C25.4441 76.5492 25.3617 76.2689 25.3636 75.9545C25.3617 75.7083 25.41 75.4811 25.5085 75.2727C25.607 75.0625 25.7415 74.8873 25.9119 74.7472C26.0843 74.6051 26.2765 74.5152 26.4886 74.4773V74.4432C26.2102 74.3712 25.9886 74.215 25.8239 73.9744C25.6591 73.732 25.5777 73.4564 25.5795 73.1477C25.5777 72.8523 25.6525 72.5881 25.804 72.3551C25.9555 72.1222 26.1638 71.9384 26.429 71.804C26.696 71.6695 27 71.6023 27.3409 71.6023C27.678 71.6023 27.9792 71.6695 28.2443 71.804C28.5095 71.9384 28.7178 72.1222 28.8693 72.3551C29.0227 72.5881 29.1004 72.8523 29.1023 73.1477C29.1004 73.4564 29.0161 73.732 28.8494 73.9744C28.6847 74.215 28.4659 74.3712 28.1932 74.4432V74.4773C28.4034 74.5152 28.5928 74.6051 28.7614 74.7472C28.9299 74.8873 29.0644 75.0625 29.1648 75.2727C29.2652 75.4811 29.3163 75.7083 29.3182 75.9545C29.3163 76.2689 29.2311 76.5492 29.0625 76.7955C28.8958 77.0398 28.6638 77.232 28.3665 77.3722C28.071 77.5104 27.7292 77.5795 27.3409 77.5795ZM27.3409 76.9545C27.6042 76.9545 27.8314 76.9119 28.0227 76.8267C28.214 76.7415 28.3617 76.6212 28.4659 76.4659C28.5701 76.3106 28.6231 76.1288 28.625 75.9205C28.6231 75.7008 28.5663 75.5066 28.4545 75.3381C28.3428 75.1695 28.1903 75.0369 27.9972 74.9403C27.8059 74.8437 27.5871 74.7955 27.3409 74.7955C27.0928 74.7955 26.8712 74.8437 26.6761 74.9403C26.483 75.0369 26.3305 75.1695 26.2188 75.3381C26.1089 75.5066 26.0549 75.7008 26.0568 75.9205C26.0549 76.1288 26.1051 76.3106 26.2074 76.4659C26.3116 76.6212 26.4602 76.7415 26.6534 76.8267C26.8466 76.9119 27.0758 76.9545 27.3409 76.9545ZM27.3409 74.1932C27.5492 74.1932 27.7339 74.1515 27.8949 74.0682C28.0578 73.9848 28.1856 73.8684 28.2784 73.7188C28.3712 73.5691 28.4186 73.3939 28.4205 73.1932C28.4186 72.9962 28.3722 72.8248 28.2812 72.679C28.1903 72.5312 28.0644 72.4176 27.9034 72.3381C27.7424 72.2566 27.5549 72.2159 27.3409 72.2159C27.1231 72.2159 26.9328 72.2566 26.7699 72.3381C26.607 72.4176 26.4811 72.5312 26.392 72.679C26.303 72.8248 26.2595 72.9962 26.2614 73.1932C26.2595 73.3939 26.304 73.5691 26.3949 73.7188C26.4877 73.8684 26.6155 73.9848 26.7784 74.0682C26.9413 74.1515 27.1288 74.1932 27.3409 74.1932ZM32.3729 77.5795C31.9979 77.5795 31.6636 77.5152 31.37 77.3864C31.0784 77.2576 30.8464 77.0786 30.674 76.8494C30.5036 76.6184 30.4107 76.3504 30.3956 76.0455H31.1115C31.1267 76.233 31.1911 76.3949 31.3047 76.5312C31.4183 76.6657 31.567 76.7699 31.7507 76.8438C31.9344 76.9176 32.138 76.9545 32.3615 76.9545C32.6115 76.9545 32.8331 76.911 33.0263 76.8239C33.2195 76.7367 33.371 76.6155 33.4808 76.4602C33.5907 76.3049 33.6456 76.125 33.6456 75.9205C33.6456 75.7064 33.5926 75.518 33.4865 75.3551C33.3804 75.1903 33.2251 75.0616 33.0206 74.9688C32.8161 74.8759 32.5661 74.8295 32.2706 74.8295H31.8047V74.2045H32.2706C32.5017 74.2045 32.7043 74.1629 32.8786 74.0795C33.0547 73.9962 33.192 73.8788 33.2905 73.7273C33.3909 73.5758 33.4411 73.3977 33.4411 73.1932C33.4411 72.9962 33.3975 72.8248 33.3104 72.679C33.2232 72.5331 33.1001 72.4195 32.9411 72.3381C32.7839 72.2566 32.5982 72.2159 32.3842 72.2159C32.1835 72.2159 31.9941 72.2528 31.8161 72.3267C31.6399 72.3987 31.496 72.5038 31.3842 72.642C31.2725 72.7784 31.2119 72.9432 31.2024 73.1364H30.5206C30.532 72.8314 30.6238 72.5644 30.7962 72.3352C30.9685 72.1042 31.1939 71.9242 31.4723 71.7955C31.7526 71.6667 32.0604 71.6023 32.3956 71.6023C32.7554 71.6023 33.0642 71.6752 33.3217 71.821C33.5793 71.965 33.7772 72.1553 33.9155 72.392C34.0537 72.6288 34.1229 72.8845 34.1229 73.1591C34.1229 73.4867 34.0367 73.7661 33.8643 73.9972C33.6939 74.2282 33.4619 74.3883 33.1683 74.4773V74.5227C33.5357 74.5833 33.8227 74.7396 34.0291 74.9915C34.2356 75.2415 34.3388 75.5511 34.3388 75.9205C34.3388 76.2367 34.2526 76.5208 34.0803 76.7727C33.9098 77.0227 33.6768 77.2197 33.3814 77.3636C33.0859 77.5076 32.7498 77.5795 32.3729 77.5795Z" fill="white"/>
<path d="M46.9716 70.2727V79H45.9148V71.3807H45.8636L43.733 72.7955V71.7216L45.9148 70.2727H46.9716ZM52.2599 70.1534C52.6179 70.1562 52.9759 70.2244 53.3338 70.358C53.6918 70.4915 54.0185 70.7131 54.3139 71.0227C54.6094 71.3295 54.8466 71.7486 55.0256 72.2798C55.2045 72.8111 55.294 73.4773 55.294 74.2784C55.294 75.054 55.2202 75.7429 55.0724 76.3452C54.9276 76.9446 54.7173 77.4503 54.4418 77.8622C54.169 78.2741 53.8366 78.5866 53.4446 78.7997C53.0554 79.0128 52.6151 79.1193 52.1236 79.1193C51.6349 79.1193 51.1989 79.0227 50.8153 78.8295C50.4347 78.6335 50.1222 78.3622 49.8778 78.0156C49.6364 77.6662 49.4815 77.2614 49.4134 76.8011H50.4531C50.5469 77.2017 50.733 77.5327 51.0114 77.794C51.2926 78.0526 51.6634 78.1818 52.1236 78.1818C52.7969 78.1818 53.3281 77.8878 53.7173 77.2997C54.1094 76.7116 54.3054 75.8807 54.3054 74.8068H54.2372C54.0781 75.0455 53.8892 75.2514 53.6705 75.4247C53.4517 75.598 53.2088 75.7315 52.9418 75.8253C52.6747 75.919 52.3906 75.9659 52.0895 75.9659C51.5895 75.9659 51.1307 75.8423 50.7131 75.5952C50.2983 75.3452 49.9659 75.0028 49.7159 74.5682C49.4688 74.1307 49.3452 73.6307 49.3452 73.0682C49.3452 72.5341 49.4645 72.0455 49.7031 71.6023C49.9446 71.1562 50.2827 70.8011 50.7173 70.5369C51.1548 70.2727 51.669 70.1449 52.2599 70.1534ZM52.2599 71.0909C51.902 71.0909 51.5795 71.1804 51.2926 71.3594C51.0085 71.5355 50.7827 71.7741 50.6151 72.0753C50.4503 72.3736 50.3679 72.7045 50.3679 73.0682C50.3679 73.4318 50.4474 73.7628 50.6065 74.0611C50.7685 74.3565 50.9886 74.5923 51.267 74.7685C51.5483 74.9418 51.8679 75.0284 52.2259 75.0284C52.4957 75.0284 52.7472 74.9759 52.9801 74.8707C53.2131 74.7628 53.4162 74.6165 53.5895 74.4318C53.7656 74.2443 53.9034 74.0327 54.0028 73.7969C54.1023 73.5582 54.152 73.3097 54.152 73.0511C54.152 72.7102 54.0696 72.3906 53.9048 72.0923C53.7429 71.794 53.5185 71.5526 53.2315 71.3679C52.9474 71.1832 52.6236 71.0909 52.2599 71.0909Z" fill="white"/>
</g>
<g clip-path="url(#clip8_566_54)">
<path d="M24.1136 105V87.5455H26.2273V96.2045H26.4318L34.2727 87.5455H37.0341L29.7045 95.4205L37.0341 105H34.4773L28.4091 96.8864L26.2273 99.3409V105H24.1136Z" fill="white"/>
<path d="M14.2045 119V113.182H16.1705C16.6269 113.182 17 113.264 17.2898 113.429C17.5814 113.592 17.7973 113.812 17.9375 114.091C18.0777 114.369 18.1477 114.68 18.1477 115.023C18.1477 115.366 18.0777 115.677 17.9375 115.957C17.7992 116.238 17.5852 116.461 17.2955 116.628C17.0057 116.793 16.6345 116.875 16.1818 116.875H14.7727V116.25H16.1591C16.4716 116.25 16.7225 116.196 16.9119 116.088C17.1013 115.98 17.2386 115.834 17.3239 115.651C17.411 115.465 17.4545 115.256 17.4545 115.023C17.4545 114.79 17.411 114.581 17.3239 114.398C17.2386 114.214 17.1004 114.07 16.9091 113.966C16.7178 113.86 16.464 113.807 16.1477 113.807H14.9091V119H14.2045ZM20.9176 119.091C20.5237 119.091 20.178 118.997 19.8807 118.81C19.5852 118.622 19.3542 118.36 19.1875 118.023C19.0227 117.686 18.9403 117.292 18.9403 116.841C18.9403 116.386 19.0227 115.99 19.1875 115.651C19.3542 115.312 19.5852 115.048 19.8807 114.861C20.178 114.673 20.5237 114.58 20.9176 114.58C21.3116 114.58 21.6563 114.673 21.9517 114.861C22.2491 115.048 22.4801 115.312 22.6449 115.651C22.8116 115.99 22.8949 116.386 22.8949 116.841C22.8949 117.292 22.8116 117.686 22.6449 118.023C22.4801 118.36 22.2491 118.622 21.9517 118.81C21.6563 118.997 21.3116 119.091 20.9176 119.091ZM20.9176 118.489C21.2169 118.489 21.4631 118.412 21.6562 118.259C21.8494 118.105 21.9924 117.903 22.0852 117.653C22.178 117.403 22.2244 117.133 22.2244 116.841C22.2244 116.549 22.178 116.277 22.0852 116.026C21.9924 115.774 21.8494 115.57 21.6562 115.415C21.4631 115.259 21.2169 115.182 20.9176 115.182C20.6184 115.182 20.3722 115.259 20.179 115.415C19.9858 115.57 19.8428 115.774 19.75 116.026C19.6572 116.277 19.6108 116.549 19.6108 116.841C19.6108 117.133 19.6572 117.403 19.75 117.653C19.8428 117.903 19.9858 118.105 20.179 118.259C20.3722 118.412 20.6184 118.489 20.9176 118.489ZM25.8161 114.636V115.205H23.5547V114.636H25.8161ZM24.2138 113.591H24.8842V117.75C24.8842 117.939 24.9117 118.081 24.9666 118.176C25.0234 118.269 25.0954 118.331 25.1825 118.364C25.2715 118.394 25.3653 118.409 25.4638 118.409C25.5376 118.409 25.5982 118.405 25.6456 118.398C25.6929 118.388 25.7308 118.381 25.7592 118.375L25.8956 118.977C25.8501 118.994 25.7867 119.011 25.7053 119.028C25.6238 119.047 25.5206 119.057 25.3956 119.057C25.2062 119.057 25.0206 119.016 24.8388 118.935C24.6589 118.853 24.5092 118.729 24.3899 118.562C24.2725 118.396 24.2138 118.186 24.2138 117.932V113.591ZM28.1087 119.102C27.8321 119.102 27.5812 119.05 27.3558 118.946C27.1304 118.84 26.9515 118.688 26.8189 118.489C26.6863 118.288 26.62 118.045 26.62 117.761C26.62 117.511 26.6693 117.309 26.7678 117.153C26.8662 116.996 26.9979 116.873 27.1626 116.784C27.3274 116.695 27.5092 116.629 27.7081 116.585C27.9089 116.54 28.1106 116.504 28.3132 116.477C28.5784 116.443 28.7933 116.418 28.9581 116.401C29.1248 116.382 29.246 116.35 29.3217 116.307C29.3994 116.263 29.4382 116.187 29.4382 116.08V116.057C29.4382 115.777 29.3615 115.559 29.2081 115.403C29.0566 115.248 28.8265 115.17 28.5178 115.17C28.1977 115.17 27.9467 115.241 27.7649 115.381C27.5831 115.521 27.4553 115.67 27.3814 115.83L26.745 115.602C26.8587 115.337 27.0102 115.131 27.1996 114.983C27.3909 114.833 27.5992 114.729 27.8246 114.67C28.0518 114.61 28.2753 114.58 28.495 114.58C28.6352 114.58 28.7962 114.597 28.978 114.631C29.1617 114.663 29.3388 114.73 29.5092 114.832C29.6816 114.935 29.8246 115.089 29.9382 115.295C30.0518 115.502 30.1087 115.778 30.1087 116.125V119H29.4382V118.409H29.4041C29.3587 118.504 29.2829 118.605 29.1768 118.713C29.0708 118.821 28.9297 118.913 28.7536 118.989C28.5774 119.064 28.3625 119.102 28.1087 119.102ZM28.2109 118.5C28.4761 118.5 28.6996 118.448 28.8814 118.344C29.0651 118.24 29.2034 118.105 29.2962 117.94C29.3909 117.776 29.4382 117.602 29.4382 117.42V116.807C29.4098 116.841 29.3473 116.872 29.2507 116.901C29.156 116.927 29.0462 116.951 28.9212 116.972C28.7981 116.991 28.6778 117.008 28.5604 117.023C28.4448 117.036 28.3511 117.047 28.2791 117.057C28.1049 117.08 27.942 117.116 27.7905 117.168C27.6409 117.217 27.5196 117.292 27.4268 117.392C27.3359 117.491 27.2905 117.625 27.2905 117.795C27.2905 118.028 27.3767 118.205 27.549 118.324C27.7232 118.441 27.9439 118.5 28.2109 118.5ZM28.2337 114.045L28.9268 112.727H29.7109L28.8246 114.045H28.2337ZM34.4233 115.614L33.821 115.784C33.7831 115.684 33.7273 115.586 33.6534 115.491C33.5814 115.395 33.483 115.315 33.358 115.253C33.233 115.19 33.0729 115.159 32.8778 115.159C32.6108 115.159 32.3883 115.221 32.2102 115.344C32.0341 115.465 31.946 115.619 31.946 115.807C31.946 115.973 32.0066 116.105 32.1278 116.202C32.2491 116.298 32.4384 116.379 32.696 116.443L33.3438 116.602C33.7339 116.697 34.0246 116.842 34.2159 117.037C34.4072 117.23 34.5028 117.479 34.5028 117.784C34.5028 118.034 34.4309 118.258 34.2869 118.455C34.1449 118.652 33.946 118.807 33.6903 118.92C33.4347 119.034 33.1373 119.091 32.7983 119.091C32.3532 119.091 31.9848 118.994 31.6932 118.801C31.4015 118.608 31.2169 118.326 31.1392 117.955L31.7756 117.795C31.8362 118.03 31.9508 118.206 32.1193 118.324C32.2898 118.441 32.5123 118.5 32.7869 118.5C33.0994 118.5 33.3475 118.434 33.5312 118.301C33.7169 118.167 33.8097 118.006 33.8097 117.818C33.8097 117.667 33.7566 117.54 33.6506 117.438C33.5445 117.333 33.3816 117.256 33.1619 117.205L32.4347 117.034C32.035 116.939 31.7415 116.793 31.554 116.594C31.3684 116.393 31.2756 116.142 31.2756 115.841C31.2756 115.595 31.3447 115.377 31.483 115.188C31.6231 114.998 31.8134 114.849 32.054 114.741C32.2964 114.634 32.571 114.58 32.8778 114.58C33.3097 114.58 33.6487 114.674 33.8949 114.864C34.143 115.053 34.3191 115.303 34.4233 115.614ZM38.603 115.614L38.0007 115.784C37.9628 115.684 37.907 115.586 37.8331 115.491C37.7611 115.395 37.6626 115.315 37.5376 115.253C37.4126 115.19 37.2526 115.159 37.0575 115.159C36.7905 115.159 36.5679 115.221 36.3899 115.344C36.2138 115.465 36.1257 115.619 36.1257 115.807C36.1257 115.973 36.1863 116.105 36.3075 116.202C36.4287 116.298 36.6181 116.379 36.8757 116.443L37.5234 116.602C37.9136 116.697 38.2043 116.842 38.3956 117.037C38.5869 117.23 38.6825 117.479 38.6825 117.784C38.6825 118.034 38.6106 118.258 38.4666 118.455C38.3246 118.652 38.1257 118.807 37.87 118.92C37.6143 119.034 37.317 119.091 36.978 119.091C36.5329 119.091 36.1645 118.994 35.8729 118.801C35.5812 118.608 35.3965 118.326 35.3189 117.955L35.9553 117.795C36.0159 118.03 36.1304 118.206 36.299 118.324C36.4695 118.441 36.692 118.5 36.9666 118.5C37.2791 118.5 37.5272 118.434 37.7109 118.301C37.8965 118.167 37.9893 118.006 37.9893 117.818C37.9893 117.667 37.9363 117.54 37.8303 117.438C37.7242 117.333 37.5613 117.256 37.3416 117.205L36.6143 117.034C36.2147 116.939 35.9212 116.793 35.7337 116.594C35.5481 116.393 35.4553 116.142 35.4553 115.841C35.4553 115.595 35.5244 115.377 35.6626 115.188C35.8028 114.998 35.9931 114.849 36.2337 114.741C36.4761 114.634 36.7507 114.58 37.0575 114.58C37.4893 114.58 37.8284 114.674 38.0746 114.864C38.3227 115.053 38.4988 115.303 38.603 115.614ZM39.6918 119V114.636H40.3622V119H39.6918ZM40.0327 113.909C39.902 113.909 39.7893 113.865 39.6946 113.776C39.6018 113.687 39.5554 113.58 39.5554 113.455C39.5554 113.33 39.6018 113.223 39.6946 113.134C39.7893 113.045 39.902 113 40.0327 113C40.1634 113 40.2751 113.045 40.3679 113.134C40.4626 113.223 40.5099 113.33 40.5099 113.455C40.5099 113.58 40.4626 113.687 40.3679 113.776C40.2751 113.865 40.1634 113.909 40.0327 113.909ZM43.3629 119.091C42.969 119.091 42.6233 118.997 42.326 118.81C42.0305 118.622 41.7995 118.36 41.6328 118.023C41.468 117.686 41.3857 117.292 41.3857 116.841C41.3857 116.386 41.468 115.99 41.6328 115.651C41.7995 115.312 42.0305 115.048 42.326 114.861C42.6233 114.673 42.969 114.58 43.3629 114.58C43.7569 114.58 44.1016 114.673 44.397 114.861C44.6944 115.048 44.9254 115.312 45.0902 115.651C45.2569 115.99 45.3402 116.386 45.3402 116.841C45.3402 117.292 45.2569 117.686 45.0902 118.023C44.9254 118.36 44.6944 118.622 44.397 118.81C44.1016 118.997 43.7569 119.091 43.3629 119.091ZM43.3629 118.489C43.6622 118.489 43.9084 118.412 44.1016 118.259C44.2947 118.105 44.4377 117.903 44.5305 117.653C44.6233 117.403 44.6697 117.133 44.6697 116.841C44.6697 116.549 44.6233 116.277 44.5305 116.026C44.4377 115.774 44.2947 115.57 44.1016 115.415C43.9084 115.259 43.6622 115.182 43.3629 115.182C43.0637 115.182 42.8175 115.259 42.6243 115.415C42.4311 115.57 42.2881 115.774 42.1953 116.026C42.1025 116.277 42.0561 116.549 42.0561 116.841C42.0561 117.133 42.1025 117.403 42.1953 117.653C42.2881 117.903 42.4311 118.105 42.6243 118.259C42.8175 118.412 43.0637 118.489 43.3629 118.489Z" fill="white"/>
</g>
<rect x="64" y="64" width="60" height="60" rx="5" fill="#1B5A70"/>
<g clip-path="url(#clip9_566_54)">
<path d="M69.4659 76.3068V75.7273L72.0227 71.6818H72.4432V72.5795H72.1591L70.2273 75.6364V75.6818H73.6705V76.3068H69.4659ZM72.2045 77.5V76.1307V75.8608V71.6818H72.875V77.5H72.2045ZM76.6328 77.5795C76.2048 77.5795 75.8402 77.4631 75.5391 77.2301C75.2379 76.9953 75.0078 76.6553 74.8487 76.2102C74.6896 75.7633 74.6101 75.2235 74.6101 74.5909C74.6101 73.9621 74.6896 73.4252 74.8487 72.9801C75.0097 72.5331 75.2408 72.1922 75.5419 71.9574C75.8449 71.7206 76.2086 71.6023 76.6328 71.6023C77.0571 71.6023 77.4197 71.7206 77.7209 71.9574C78.0239 72.1922 78.255 72.5331 78.4141 72.9801C78.575 73.4252 78.6555 73.9621 78.6555 74.5909C78.6555 75.2235 78.576 75.7633 78.4169 76.2102C78.2578 76.6553 78.0277 76.9953 77.7266 77.2301C77.4254 77.4631 77.0608 77.5795 76.6328 77.5795ZM76.6328 76.9545C77.0571 76.9545 77.3866 76.75 77.6214 76.3409C77.8563 75.9318 77.9737 75.3485 77.9737 74.5909C77.9737 74.0871 77.9197 73.6581 77.8118 73.304C77.7057 72.9498 77.5523 72.6799 77.3516 72.4943C77.1527 72.3087 76.9131 72.2159 76.6328 72.2159C76.2124 72.2159 75.8838 72.4233 75.647 72.8381C75.4103 73.2509 75.2919 73.8352 75.2919 74.5909C75.2919 75.0947 75.3449 75.5227 75.451 75.875C75.5571 76.2273 75.7095 76.4953 75.9084 76.679C76.1091 76.8627 76.3506 76.9545 76.6328 76.9545ZM80.032 77.5455C79.8918 77.5455 79.7715 77.4953 79.6712 77.3949C79.5708 77.2945 79.5206 77.1742 79.5206 77.0341C79.5206 76.8939 79.5708 76.7737 79.6712 76.6733C79.7715 76.5729 79.8918 76.5227 80.032 76.5227C80.1721 76.5227 80.2924 76.5729 80.3928 76.6733C80.4931 76.7737 80.5433 76.8939 80.5433 77.0341C80.5433 77.1269 80.5196 77.2121 80.4723 77.2898C80.4268 77.3674 80.3653 77.4299 80.2876 77.4773C80.2119 77.5227 80.1267 77.5455 80.032 77.5455ZM83.4297 77.5795C83.0017 77.5795 82.6371 77.4631 82.3359 77.2301C82.0348 76.9953 81.8047 76.6553 81.6456 76.2102C81.4865 75.7633 81.407 75.2235 81.407 74.5909C81.407 73.9621 81.4865 73.4252 81.6456 72.9801C81.8066 72.5331 82.0376 72.1922 82.3388 71.9574C82.6418 71.7206 83.0054 71.6023 83.4297 71.6023C83.8539 71.6023 84.2166 71.7206 84.5178 71.9574C84.8208 72.1922 85.0518 72.5331 85.2109 72.9801C85.3719 73.4252 85.4524 73.9621 85.4524 74.5909C85.4524 75.2235 85.3729 75.7633 85.2138 76.2102C85.0547 76.6553 84.8246 76.9953 84.5234 77.2301C84.2223 77.4631 83.8577 77.5795 83.4297 77.5795ZM83.4297 76.9545C83.8539 76.9545 84.1835 76.75 84.4183 76.3409C84.6532 75.9318 84.7706 75.3485 84.7706 74.5909C84.7706 74.0871 84.7166 73.6581 84.6087 73.304C84.5026 72.9498 84.3492 72.6799 84.1484 72.4943C83.9496 72.3087 83.71 72.2159 83.4297 72.2159C83.0092 72.2159 82.6806 72.4233 82.4439 72.8381C82.2071 73.2509 82.0888 73.8352 82.0888 74.5909C82.0888 75.0947 82.1418 75.5227 82.2479 75.875C82.3539 76.2273 82.5064 76.4953 82.7053 76.679C82.906 76.8627 83.1475 76.9545 83.4297 76.9545ZM86.5575 77.5L89.1598 72.3523V72.3068H86.1598V71.6818H89.8871V72.3409L87.2962 77.5H86.5575ZM92.6925 77.5795C92.3023 77.5795 91.9576 77.5104 91.6584 77.3722C91.361 77.232 91.129 77.0398 90.9624 76.7955C90.7957 76.5492 90.7133 76.2689 90.7152 75.9545C90.7133 75.7083 90.7616 75.4811 90.8601 75.2727C90.9586 75.0625 91.093 74.8873 91.2635 74.7472C91.4358 74.6051 91.6281 74.5152 91.8402 74.4773V74.4432C91.5618 74.3712 91.3402 74.215 91.1754 73.9744C91.0107 73.732 90.9292 73.4564 90.9311 73.1477C90.9292 72.8523 91.004 72.5881 91.1555 72.3551C91.3071 72.1222 91.5154 71.9384 91.7805 71.804C92.0476 71.6695 92.3516 71.6023 92.6925 71.6023C93.0296 71.6023 93.3307 71.6695 93.5959 71.804C93.861 71.9384 94.0694 72.1222 94.2209 72.3551C94.3743 72.5881 94.4519 72.8523 94.4538 73.1477C94.4519 73.4564 94.3677 73.732 94.201 73.9744C94.0362 74.215 93.8175 74.3712 93.5447 74.4432V74.4773C93.755 74.5152 93.9444 74.6051 94.1129 74.7472C94.2815 74.8873 94.416 75.0625 94.5163 75.2727C94.6167 75.4811 94.6679 75.7083 94.6697 75.9545C94.6679 76.2689 94.5826 76.5492 94.4141 76.7955C94.2474 77.0398 94.0154 77.232 93.718 77.3722C93.4226 77.5104 93.0807 77.5795 92.6925 77.5795ZM92.6925 76.9545C92.9557 76.9545 93.183 76.9119 93.3743 76.8267C93.5656 76.7415 93.7133 76.6212 93.8175 76.4659C93.9216 76.3106 93.9747 76.1288 93.9766 75.9205C93.9747 75.7008 93.9179 75.5066 93.8061 75.3381C93.6944 75.1695 93.5419 75.0369 93.3487 74.9403C93.1574 74.8437 92.9387 74.7955 92.6925 74.7955C92.4444 74.7955 92.2228 74.8437 92.0277 74.9403C91.8345 75.0369 91.6821 75.1695 91.5703 75.3381C91.4605 75.5066 91.4065 75.7008 91.4084 75.9205C91.4065 76.1288 91.4567 76.3106 91.5589 76.4659C91.6631 76.6212 91.8118 76.7415 92.005 76.8267C92.1982 76.9119 92.4273 76.9545 92.6925 76.9545ZM92.6925 74.1932C92.9008 74.1932 93.0855 74.1515 93.2464 74.0682C93.4093 73.9848 93.5372 73.8684 93.63 73.7188C93.7228 73.5691 93.7701 73.3939 93.772 73.1932C93.7701 72.9962 93.7237 72.8248 93.6328 72.679C93.5419 72.5312 93.416 72.4176 93.255 72.3381C93.094 72.2566 92.9065 72.2159 92.6925 72.2159C92.4747 72.2159 92.2843 72.2566 92.1214 72.3381C91.9586 72.4176 91.8326 72.5312 91.7436 72.679C91.6546 72.8248 91.611 72.9962 91.6129 73.1932C91.611 73.3939 91.6555 73.5691 91.7464 73.7188C91.8393 73.8684 91.9671 73.9848 92.13 74.0682C92.2929 74.1515 92.4804 74.1932 92.6925 74.1932Z" fill="white"/>
<path d="M104.903 79V78.233L107.784 75.0795C108.122 74.7102 108.401 74.3892 108.619 74.1165C108.838 73.8409 109 73.5824 109.105 73.3409C109.213 73.0966 109.267 72.8409 109.267 72.5739C109.267 72.267 109.193 72.0014 109.045 71.777C108.901 71.5526 108.702 71.3793 108.449 71.2571C108.196 71.1349 107.912 71.0739 107.597 71.0739C107.261 71.0739 106.969 71.1435 106.719 71.2827C106.472 71.419 106.28 71.6108 106.143 71.858C106.01 72.1051 105.943 72.3949 105.943 72.7273H104.938C104.938 72.2159 105.055 71.767 105.291 71.3807C105.527 70.9943 105.848 70.6932 106.254 70.4773C106.663 70.2614 107.122 70.1534 107.631 70.1534C108.142 70.1534 108.595 70.2614 108.99 70.4773C109.385 70.6932 109.695 70.9844 109.919 71.3509C110.143 71.7173 110.256 72.125 110.256 72.5739C110.256 72.8949 110.197 73.2088 110.081 73.5156C109.967 73.8196 109.768 74.1591 109.484 74.5341C109.203 74.9062 108.812 75.3608 108.312 75.8977L106.352 77.9943V78.0625H110.409V79H104.903ZM115.016 79.1193C114.374 79.1193 113.827 78.9446 113.375 78.5952C112.923 78.2429 112.578 77.733 112.339 77.0653C112.101 76.3949 111.982 75.5852 111.982 74.6364C111.982 73.6932 112.101 72.8878 112.339 72.2202C112.581 71.5497 112.928 71.0384 113.379 70.6861C113.834 70.331 114.379 70.1534 115.016 70.1534C115.652 70.1534 116.196 70.331 116.648 70.6861C117.102 71.0384 117.449 71.5497 117.688 72.2202C117.929 72.8878 118.05 73.6932 118.05 74.6364C118.05 75.5852 117.93 76.3949 117.692 77.0653C117.453 77.733 117.108 78.2429 116.656 78.5952C116.205 78.9446 115.658 79.1193 115.016 79.1193ZM115.016 78.1818C115.652 78.1818 116.146 77.875 116.499 77.2614C116.851 76.6477 117.027 75.7727 117.027 74.6364C117.027 73.8807 116.946 73.2372 116.784 72.706C116.625 72.1747 116.395 71.7699 116.094 71.4915C115.795 71.2131 115.436 71.0739 115.016 71.0739C114.385 71.0739 113.892 71.3849 113.537 72.0071C113.182 72.6264 113.004 73.5028 113.004 74.6364C113.004 75.392 113.084 76.0341 113.243 76.5625C113.402 77.0909 113.631 77.4929 113.929 77.7685C114.23 78.044 114.592 78.1818 115.016 78.1818Z" fill="white"/>
</g>
<g clip-path="url(#clip10_566_54)">
<path d="M94.6591 93H92.5455C92.4205 92.392 92.2017 91.858 91.8892 91.3977C91.5824 90.9375 91.2074 90.5511 90.7642 90.2386C90.3267 89.9205 89.8409 89.6818 89.3068 89.5227C88.7727 89.3636 88.2159 89.2841 87.6364 89.2841C86.5795 89.2841 85.6222 89.5511 84.7642 90.0852C83.9119 90.6193 83.233 91.4062 82.7273 92.446C82.2273 93.4858 81.9773 94.7614 81.9773 96.2727C81.9773 97.7841 82.2273 99.0597 82.7273 100.099C83.233 101.139 83.9119 101.926 84.7642 102.46C85.6222 102.994 86.5795 103.261 87.6364 103.261C88.2159 103.261 88.7727 103.182 89.3068 103.023C89.8409 102.864 90.3267 102.628 90.7642 102.315C91.2074 101.997 91.5824 101.608 91.8892 101.148C92.2017 100.682 92.4205 100.148 92.5455 99.5455H94.6591C94.5 100.437 94.2102 101.236 93.7898 101.94C93.3693 102.645 92.8466 103.244 92.2216 103.739C91.5966 104.227 90.8949 104.599 90.1165 104.855C89.3438 105.111 88.517 105.239 87.6364 105.239C86.1477 105.239 84.8239 104.875 83.6648 104.148C82.5057 103.42 81.5938 102.386 80.929 101.045C80.2642 99.7045 79.9318 98.1136 79.9318 96.2727C79.9318 94.4318 80.2642 92.8409 80.929 91.5C81.5938 90.1591 82.5057 89.125 83.6648 88.3977C84.8239 87.6705 86.1477 87.3068 87.6364 87.3068C88.517 87.3068 89.3438 87.4347 90.1165 87.6903C90.8949 87.946 91.5966 88.321 92.2216 88.8153C92.8466 89.304 93.3693 89.9006 93.7898 90.6051C94.2102 91.304 94.5 92.1023 94.6591 93ZM101.654 105.307C100.825 105.307 100.072 105.151 99.3956 104.838C98.7195 104.52 98.1825 104.062 97.7848 103.466C97.3871 102.864 97.1882 102.136 97.1882 101.284C97.1882 100.534 97.3359 99.9261 97.6314 99.4602C97.9268 98.9886 98.3217 98.6193 98.8161 98.3523C99.3104 98.0852 99.8558 97.8864 100.452 97.7557C101.055 97.6193 101.66 97.5114 102.268 97.4318C103.063 97.3295 103.708 97.2528 104.202 97.2017C104.702 97.1449 105.066 97.0511 105.293 96.9205C105.526 96.7898 105.643 96.5625 105.643 96.2386V96.1705C105.643 95.3295 105.413 94.6761 104.952 94.2102C104.498 93.7443 103.808 93.5114 102.881 93.5114C101.921 93.5114 101.168 93.7216 100.623 94.142C100.077 94.5625 99.6939 95.0114 99.4723 95.4886L97.5632 94.8068C97.9041 94.0114 98.3587 93.392 98.9268 92.9489C99.5007 92.5 100.126 92.1875 100.802 92.0114C101.484 91.8295 102.154 91.7386 102.813 91.7386C103.234 91.7386 103.717 91.7898 104.262 91.892C104.813 91.9886 105.344 92.1903 105.856 92.4972C106.373 92.804 106.802 93.267 107.143 93.8864C107.484 94.5057 107.654 95.3352 107.654 96.375V105H105.643V103.227H105.54C105.404 103.511 105.177 103.815 104.859 104.139C104.54 104.463 104.117 104.739 103.589 104.966C103.06 105.193 102.415 105.307 101.654 105.307ZM101.961 103.5C102.756 103.5 103.427 103.344 103.972 103.031C104.523 102.719 104.938 102.315 105.217 101.821C105.501 101.327 105.643 100.807 105.643 100.261V98.4205C105.558 98.5227 105.37 98.6165 105.08 98.7017C104.796 98.7812 104.467 98.8523 104.092 98.9148C103.722 98.9716 103.362 99.0227 103.009 99.0682C102.663 99.108 102.381 99.142 102.165 99.1705C101.643 99.2386 101.154 99.3494 100.7 99.5028C100.251 99.6506 99.8871 99.875 99.6087 100.176C99.3359 100.472 99.1996 100.875 99.1996 101.386C99.1996 102.085 99.4581 102.614 99.9751 102.972C100.498 103.324 101.16 103.5 101.961 103.5Z" fill="white"/>
<path d="M87.3864 115H86.6818C86.6402 114.797 86.5672 114.619 86.4631 114.466C86.3608 114.312 86.2358 114.184 86.0881 114.08C85.9422 113.973 85.7803 113.894 85.6023 113.841C85.4242 113.788 85.2386 113.761 85.0455 113.761C84.6932 113.761 84.3741 113.85 84.0881 114.028C83.804 114.206 83.5777 114.469 83.4091 114.815C83.2424 115.162 83.1591 115.587 83.1591 116.091C83.1591 116.595 83.2424 117.02 83.4091 117.366C83.5777 117.713 83.804 117.975 84.0881 118.153C84.3741 118.331 84.6932 118.42 85.0455 118.42C85.2386 118.42 85.4242 118.394 85.6023 118.341C85.7803 118.288 85.9422 118.209 86.0881 118.105C86.2358 117.999 86.3608 117.869 86.4631 117.716C86.5672 117.561 86.6402 117.383 86.6818 117.182H87.3864C87.3333 117.479 87.2367 117.745 87.0966 117.98C86.9564 118.215 86.7822 118.415 86.5739 118.58C86.3655 118.742 86.1316 118.866 85.8722 118.952C85.6146 119.037 85.339 119.08 85.0455 119.08C84.5492 119.08 84.108 118.958 83.7216 118.716C83.3352 118.473 83.0313 118.129 82.8097 117.682C82.5881 117.235 82.4773 116.705 82.4773 116.091C82.4773 115.477 82.5881 114.947 82.8097 114.5C83.0313 114.053 83.3352 113.708 83.7216 113.466C84.108 113.223 84.5492 113.102 85.0455 113.102C85.339 113.102 85.6146 113.145 85.8722 113.23C86.1316 113.315 86.3655 113.44 86.5739 113.605C86.7822 113.768 86.9564 113.967 87.0966 114.202C87.2367 114.435 87.3333 114.701 87.3864 115ZM89.718 119.102C89.4415 119.102 89.1906 119.05 88.9652 118.946C88.7398 118.84 88.5608 118.688 88.4283 118.489C88.2957 118.288 88.2294 118.045 88.2294 117.761C88.2294 117.511 88.2786 117.309 88.3771 117.153C88.4756 116.996 88.6072 116.873 88.772 116.784C88.9368 116.695 89.1186 116.629 89.3175 116.585C89.5182 116.54 89.7199 116.504 89.9226 116.477C90.1877 116.443 90.4027 116.418 90.5675 116.401C90.7341 116.382 90.8554 116.35 90.9311 116.307C91.0088 116.263 91.0476 116.187 91.0476 116.08V116.057C91.0476 115.777 90.9709 115.559 90.8175 115.403C90.666 115.248 90.4358 115.17 90.1271 115.17C89.8071 115.17 89.5561 115.241 89.3743 115.381C89.1925 115.521 89.0646 115.67 88.9908 115.83L88.3544 115.602C88.468 115.337 88.6196 115.131 88.8089 114.983C89.0002 114.833 89.2086 114.729 89.4339 114.67C89.6612 114.61 89.8847 114.58 90.1044 114.58C90.2446 114.58 90.4055 114.597 90.5874 114.631C90.7711 114.663 90.9482 114.73 91.1186 114.832C91.291 114.935 91.4339 115.089 91.5476 115.295C91.6612 115.502 91.718 115.778 91.718 116.125V119H91.0476V118.409H91.0135C90.968 118.504 90.8923 118.605 90.7862 118.713C90.6802 118.821 90.5391 118.913 90.3629 118.989C90.1868 119.064 89.9718 119.102 89.718 119.102ZM89.8203 118.5C90.0855 118.5 90.3089 118.448 90.4908 118.344C90.6745 118.24 90.8127 118.105 90.9055 117.94C91.0002 117.776 91.0476 117.602 91.0476 117.42V116.807C91.0192 116.841 90.9567 116.872 90.8601 116.901C90.7654 116.927 90.6555 116.951 90.5305 116.972C90.4074 116.991 90.2872 117.008 90.1697 117.023C90.0542 117.036 89.9605 117.047 89.8885 117.057C89.7143 117.08 89.5514 117.116 89.3999 117.168C89.2502 117.217 89.129 117.292 89.0362 117.392C88.9453 117.491 88.8999 117.625 88.8999 117.795C88.8999 118.028 88.986 118.205 89.1584 118.324C89.3326 118.441 89.5533 118.5 89.8203 118.5ZM89.843 114.045L90.5362 112.727H91.3203L90.4339 114.045H89.843ZM93.6122 113.182V119H92.9418V113.182H93.6122ZM96.6129 119.091C96.2038 119.091 95.8516 118.994 95.5561 118.801C95.2607 118.608 95.0334 118.342 94.8743 118.003C94.7152 117.664 94.6357 117.277 94.6357 116.841C94.6357 116.398 94.7171 116.007 94.88 115.668C95.0447 115.327 95.2739 115.061 95.5675 114.869C95.8629 114.676 96.2076 114.58 96.6016 114.58C96.9084 114.58 97.1849 114.636 97.4311 114.75C97.6773 114.864 97.879 115.023 98.0362 115.227C98.1934 115.432 98.291 115.67 98.3288 115.943H97.6584C97.6072 115.744 97.4936 115.568 97.3175 115.415C97.1432 115.259 96.9084 115.182 96.6129 115.182C96.3516 115.182 96.1224 115.25 95.9254 115.386C95.7304 115.521 95.5779 115.711 95.468 115.957C95.3601 116.202 95.3061 116.489 95.3061 116.818C95.3061 117.155 95.3591 117.449 95.4652 117.699C95.5732 117.949 95.7247 118.143 95.9197 118.281C96.1167 118.42 96.3478 118.489 96.6129 118.489C96.7872 118.489 96.9453 118.458 97.0874 118.398C97.2294 118.337 97.3497 118.25 97.4482 118.136C97.5466 118.023 97.6167 117.886 97.6584 117.727H98.3288C98.291 117.985 98.1972 118.217 98.0476 118.423C97.8999 118.628 97.7038 118.791 97.4595 118.912C97.2171 119.031 96.9349 119.091 96.6129 119.091ZM99.3089 119V114.636H99.9794V119H99.3089ZM99.6499 113.909C99.5192 113.909 99.4065 113.865 99.3118 113.776C99.219 113.687 99.1726 113.58 99.1726 113.455C99.1726 113.33 99.219 113.223 99.3118 113.134C99.4065 113.045 99.5192 113 99.6499 113C99.7805 113 99.8923 113.045 99.9851 113.134C100.08 113.223 100.127 113.33 100.127 113.455C100.127 113.58 100.08 113.687 99.9851 113.776C99.8923 113.865 99.7805 113.909 99.6499 113.909ZM102.98 119.091C102.586 119.091 102.241 118.997 101.943 118.81C101.648 118.622 101.417 118.36 101.25 118.023C101.085 117.686 101.003 117.292 101.003 116.841C101.003 116.386 101.085 115.99 101.25 115.651C101.417 115.312 101.648 115.048 101.943 114.861C102.241 114.673 102.586 114.58 102.98 114.58C103.374 114.58 103.719 114.673 104.014 114.861C104.312 115.048 104.543 115.312 104.707 115.651C104.874 115.99 104.957 116.386 104.957 116.841C104.957 117.292 104.874 117.686 104.707 118.023C104.543 118.36 104.312 118.622 104.014 118.81C103.719 118.997 103.374 119.091 102.98 119.091ZM102.98 118.489C103.279 118.489 103.526 118.412 103.719 118.259C103.912 118.105 104.055 117.903 104.148 117.653C104.241 117.403 104.287 117.133 104.287 116.841C104.287 116.549 104.241 116.277 104.148 116.026C104.055 115.774 103.912 115.57 103.719 115.415C103.526 115.259 103.279 115.182 102.98 115.182C102.681 115.182 102.435 115.259 102.241 115.415C102.048 115.57 101.905 115.774 101.812 116.026C101.72 116.277 101.673 116.549 101.673 116.841C101.673 117.133 101.72 117.403 101.812 117.653C101.905 117.903 102.048 118.105 102.241 118.259C102.435 118.412 102.681 118.489 102.98 118.489Z" fill="white"/>
</g>
</g>
</g>
<defs>
<clipPath id="clip0_566_54">
<rect width="124" height="124" fill="white"/>
</clipPath>
<clipPath id="clip1_566_54">
<rect width="124" height="60" fill="white"/>
</clipPath>
<clipPath id="clip2_566_54">
<rect width="52" height="15" fill="white" transform="translate(4 3)"/>
</clipPath>
<clipPath id="clip3_566_54">
<rect width="32" height="39" fill="white" transform="translate(14 18)"/>
</clipPath>
<clipPath id="clip4_566_54">
<rect width="53" height="15" fill="white" transform="translate(67.5 3)"/>
</clipPath>
<clipPath id="clip5_566_54">
<rect width="37" height="39" fill="white" transform="translate(75.5 18)"/>
</clipPath>
<clipPath id="clip6_566_54">
<rect width="124" height="60" fill="white" transform="translate(0 64)"/>
</clipPath>
<clipPath id="clip7_566_54">
<rect width="54" height="15" fill="white" transform="translate(3 67)"/>
</clipPath>
<clipPath id="clip8_566_54">
<rect width="33" height="39" fill="white" transform="translate(13.5 82)"/>
</clipPath>
<clipPath id="clip9_566_54">
<rect width="50" height="15" fill="white" transform="translate(69 67)"/>
</clipPath>
<clipPath id="clip10_566_54">
<rect width="31" height="39" fill="white" transform="translate(78.5 82)"/>
</clipPath>
</defs>
</svg>
