<svg width="124" height="106" viewBox="0 0 124 106" fill="none" xmlns="http://www.w3.org/2000/svg">
<path fill-rule="evenodd" clip-rule="evenodd" d="M43.1644 95.9087C24.9178 81.9277 0 58.8327 0 36.9963C0 0.515519 34.1 -13.1059 62 15.0669C89.9 -13.1059 124 0.515513 124 36.9901C124 58.8327 99.076 81.9277 80.8356 95.9087C72.5772 102.233 68.448 105.401 62 105.401C55.552 105.401 51.4228 102.239 43.1644 95.9087ZM89.9 20.1509C91.1333 20.1509 92.316 20.6408 93.1881 21.5129C94.0601 22.3849 94.55 23.5677 94.55 24.8009V32.5509H102.3C103.533 32.5509 104.716 33.0408 105.588 33.9129C106.46 34.7849 106.95 35.9677 106.95 37.2009C106.95 38.4342 106.46 39.6169 105.588 40.489C104.716 41.361 103.533 41.8509 102.3 41.8509H94.55V49.6009C94.55 50.8342 94.0601 52.0169 93.1881 52.889C92.316 53.761 91.1333 54.2509 89.9 54.2509C88.6667 54.2509 87.484 53.761 86.612 52.889C85.7399 52.0169 85.25 50.8342 85.25 49.6009V41.8509H77.5C76.2667 41.8509 75.084 41.361 74.212 40.489C73.3399 39.6169 72.85 38.4342 72.85 37.2009C72.85 35.9677 73.3399 34.7849 74.212 33.9129C75.084 33.0408 76.2667 32.5509 77.5 32.5509H85.25V24.8009C85.25 23.5677 85.7399 22.3849 86.612 21.5129C87.484 20.6408 88.6667 20.1509 89.9 20.1509Z" fill="#1B5A70"/>
</svg>
