<svg width="390" height="121" viewBox="0 0 390 121" fill="none" xmlns="http://www.w3.org/2000/svg">
<path opacity="0.3" fill-rule="evenodd" clip-rule="evenodd" d="M129.625 31.424L129.625 31.3518L129.625 31.2737V30.6497H129.618C129.303 13.6588 117.556 -0.000397436 98.6947 0C79.4174 0.00040639 68.0748 13.6588 67.7709 30.6497H67.7646V120.066H129.625V31.424ZM109.379 30.0866C109.38 30.0399 109.38 29.9931 109.38 29.9463C109.38 24.8993 106.568 20.8079 98.6951 20.8079C90.9626 20.8078 88.0102 24.8993 88.0102 29.9463C88.0102 29.9931 88.0106 30.0399 88.0114 30.0866H88.01V120.065H109.38V30.0866H109.379ZM61.8601 120.066V31.3518V30.6497H61.8536C61.5387 13.6588 49.7914 -0.000397394 30.9301 0C11.6527 0.000406431 0.310152 13.6588 0.0062662 30.6497H0V31.3518V120.066H61.8601ZM41.6155 29.9463C41.6155 29.9931 41.6151 30.0399 41.6142 30.0866H41.6154V63.1259C39.0368 60.1137 35.2066 58.2047 30.9306 58.2047C26.6544 58.2047 22.8241 60.1138 20.2455 63.1262V30.0866H20.2468C20.246 30.0399 20.2456 29.9931 20.2456 29.9463C20.2456 24.8993 23.198 20.8078 30.9305 20.8079C38.8036 20.8079 41.6155 24.8993 41.6155 29.9463ZM41.6154 81.4017V120.065H20.2455V81.4014C22.8241 84.4138 26.6544 86.3229 30.9306 86.3229C35.2066 86.3229 39.0368 84.4139 41.6154 81.4017ZM389.993 30.6497H390V120.066H328.14V31.4628L328.14 31.3518L328.14 31.2295V30.6497H328.146C328.45 13.6588 339.793 0.000406408 359.07 0C377.931 -0.000397417 389.679 13.6588 389.993 30.6497ZM369.755 30.0121L369.755 29.9463C369.755 24.8993 366.944 20.8079 359.07 20.8079C351.338 20.8078 348.386 24.8993 348.386 29.9463C348.386 29.9931 348.386 30.0399 348.387 30.0866H348.386V63.1261C350.964 60.1137 354.794 58.2047 359.071 58.2047C363.347 58.2047 367.177 60.1137 369.755 63.1261V30.0866H369.754L369.755 30.0535L369.755 30.0121ZM369.755 81.4015C367.177 84.4139 363.347 86.3229 359.071 86.3229C354.794 86.3229 350.964 84.4139 348.386 81.4015V120.065H369.755V81.4015ZM164.111 22.2136H186.705V13.216H186.705V1.68707H162.84L162.804 1.68704L162.77 1.68707H162.524V1.68888C148.965 1.86667 134.405 14.8711 134.405 30.6488L134.405 30.7408V91.2015V91.947H134.416C134.865 107.387 149.18 119.986 162.524 120.161V120.163H186.705V108.635H186.705V99.637H163.648V99.6281C158.781 99.4135 154.874 95.506 154.66 90.6392H154.65V31.2116H154.66C154.686 30.6032 154.771 30.0099 154.908 29.4368C155.279 27.8841 156.034 26.4806 157.067 25.3326C158.704 23.515 161.038 22.3378 163.648 22.2228V22.2136H164.029L164.07 22.2135L164.111 22.2136ZM184.174 61.0164C184.174 69.4022 177.628 76.2003 169.553 76.2003C161.477 76.2003 154.931 69.4022 154.931 61.0164C154.931 52.6306 161.477 45.8326 169.553 45.8326C177.628 45.8326 184.174 52.6306 184.174 61.0164ZM242.277 67.512C246.126 72.8457 248.37 79.3909 248.284 86.4639C247.956 113.739 221.291 120.065 213.137 120.065L213.061 120.065L212.993 120.065H194.579V113.128L194.578 113.127V99.5385H211.908C212.171 99.5443 212.44 99.5443 212.715 99.5386C220.869 99.368 230.85 93.4937 227.758 83.3712C225.848 77.1199 221.15 73.9246 215.881 70.3419C212.619 68.1234 209.138 65.7563 205.966 62.4231C205.877 62.3293 205.788 62.2421 205.699 62.1614L200.679 56.6755C196.152 50.8977 193.453 43.6191 193.453 35.7101C193.453 16.9197 208.686 1.68704 227.477 1.68704C236.583 1.68704 244.854 5.26484 250.96 11.0915L236.844 25.7735C234.55 23.5233 231.673 22.3209 227.758 22.3207C220.588 22.3205 213.98 28.2256 213.98 35.5363C213.98 44.4266 221.927 49.9178 228.59 54.5218C231.094 56.2521 233.417 57.8571 235.068 59.4701C235.26 59.657 235.45 59.8167 235.638 59.9507L237.459 61.7193L239.15 63.4765L242.276 67.5132L242.277 67.512ZM289.899 71.7018C309.155 71.7018 324.765 55.8397 324.765 36.2728C324.765 16.7059 309.155 0.843782 289.899 0.843782C270.643 0.843782 255.032 16.7059 255.032 36.2728C255.032 36.3665 255.033 36.4601 255.033 36.5536H255.032V120.065H274.996V68.3117C279.515 70.4857 284.567 71.7018 289.899 71.7018ZM289.758 51.1748C297.911 51.1748 304.52 44.4397 304.52 36.1315C304.52 27.8234 297.911 21.0883 289.758 21.0883C281.605 21.0883 274.996 27.8234 274.996 36.1315C274.996 44.4397 281.605 51.1748 289.758 51.1748Z" fill="#1B5A70"/>
</svg>
