<svg width="390" height="176" viewBox="0 0 390 176" fill="none" xmlns="http://www.w3.org/2000/svg">
<path fill-rule="evenodd" clip-rule="evenodd" d="M178 0H315.02V18.8993H303.208V18.9413C301.326 19.2106 299.854 20.7469 299.681 22.6582L315.322 119.412L338.042 22.7189C337.896 20.7794 336.411 19.2132 334.51 18.9413V18.8993H322.107V0H390.027V18.8993H375.544C372.387 19.7251 370.034 22.1008 369.728 24.9759H369.667L333.37 176H324.47H302.026H288.738L258.329 24.8057H258.291C257.938 21.4945 254.649 18.8996 250.644 18.8996H250.644V18.8993H178V0ZM242.376 25.3759V151.215C242.384 153.744 243.837 155.934 245.954 157H267V176H176H166H149H148H26C11.6406 176 0 164.359 0 150V83C0 68.6406 11.6406 57 26 57H149C163.359 57 175 68.6406 175 83V150C175 152.425 174.668 154.773 174.047 157H198.637C200.759 155.931 202.215 153.733 202.215 151.195H202.215V25.396H202.215C202.215 21.808 199.306 18.8994 195.718 18.8994H202.215H203.986H240.604H242.376H248.872C245.291 18.8996 242.387 21.7973 242.376 25.3759ZM91.9998 72H71.2622V127.79H71.253V138.177V138.474H71.2508C71.0996 148.588 63.2103 148.571 59.6732 148.564C59.58 148.563 59.4898 148.563 59.4029 148.563C56.0176 148.563 47.7156 148.563 47.5552 138.474H47.5528V138.177V138.175V127.79H28.0093V137.857L28.0088 137.88C27.7129 150.641 34.8232 163.676 60.0041 163.995C83.0868 164.288 91.7605 152.63 91.9945 138.473H91.9999V127.79H91.9999L91.9998 72ZM146.531 130.069L146.574 130.067V130.021L146.531 130.069ZM146.574 94H141.566H139.478V94.1044C129.471 95.1202 124.031 103.313 122.33 108.283V95.7739H104V162H122.33V123.566H122.331V162H123.513V123.269L123.513 123.269C123.559 123.133 123.604 122.94 123.659 122.71L123.659 122.71C123.829 121.988 124.085 120.904 124.695 120.063V120.039L124.737 120.099C127.002 115.151 131.65 112.353 139.774 112.353C139.874 112.353 139.972 112.354 140.069 112.357V112.331H146.574L146.574 94.4768V94ZM8 84C8 73.5066 16.5066 65 27 65H147C157.493 65 166 73.5066 166 84V149C166 159.493 157.493 168 147 168H27C16.5066 168 8 159.493 8 149V84Z" fill="#1B5A70"/>
</svg>
