<svg width="390" height="229" viewBox="0 0 390 229" fill="none" xmlns="http://www.w3.org/2000/svg">
<path fill-rule="evenodd" clip-rule="evenodd" d="M312.75 0C263.598 0 228.158 30.4318 222.519 65.589C218.28 92.0149 226.879 105.726 249.274 112.271C205.441 122.33 185.4 154.371 185.4 181.655C185.4 228.683 230.824 228.579 273.289 228.482C275.212 228.478 277.129 228.473 279.036 228.473C333.449 228.473 365.257 196.636 370.805 161.991C375.446 133.006 366.838 118.973 336.681 112.963C373.962 101.646 390 71.443 390 47.8559C390 5.15 353.013 0 312.75 0ZM295.891 97.8499C321.641 97.8499 340.368 82.3999 344.114 59.459C346.56 44.4772 337.091 30.8999 312.745 30.8999C290.273 30.8999 265.459 50.5635 265.459 70.6954C265.46 90.359 277.164 97.8499 295.891 97.8499ZM270.433 197.573C298.807 197.573 319.443 181.366 323.57 157.302C326.265 141.587 315.832 127.345 289.005 127.345C257.032 127.345 236.899 147.972 236.9 169.089C236.9 189.715 249.798 197.573 270.433 197.573ZM44.9455 55.2456H87.0818L41.6682 226.6H0L44.9455 55.2456ZM109.086 135.994H109.085L161.053 226.6H112.831L67.4177 135.994L150.754 55.2458H198.041L109.086 135.994Z" fill="#1B5A70"/>
</svg>
