<svg width="76" height="77" viewBox="0 0 76 77" fill="none" xmlns="http://www.w3.org/2000/svg">
<path fill-rule="evenodd" clip-rule="evenodd" d="M64.7832 11.1133C57.6556 3.95034 48.1759 0.00363417 38.0755 0C17.2626 0 0.32407 16.9988 0.316828 37.8935C0.313207 44.573 2.05305 51.0927 5.35712 56.8384L0 76.4775L20.0163 71.2079C25.5309 74.228 31.7407 75.8178 38.0593 75.8197H38.0755C58.8847 75.8197 75.8253 58.819 75.8324 37.9243C75.836 27.7979 71.9127 18.2781 64.7832 11.1151V11.1133ZM38.0755 69.4199H38.0628C32.4323 69.4182 26.9087 67.899 22.0894 65.0298L20.9433 64.3467L9.06493 67.4738L12.235 55.8498L11.4891 54.6579C8.34797 49.6428 6.68779 43.8462 6.69141 37.8954C6.69866 20.5294 20.7767 6.39977 38.0883 6.39977C46.4705 6.4034 54.3497 9.68326 60.2752 15.6378C66.2009 21.5906 69.4615 29.5059 69.4579 37.9208C69.4505 55.2885 55.3726 69.4182 38.0755 69.4182V69.4199ZM55.2892 45.8305C54.346 45.3563 49.7077 43.0667 48.8422 42.7506C47.9769 42.4343 47.3487 42.2764 46.7204 43.2248C46.0922 44.1734 44.2836 46.3066 43.7332 46.9371C43.1828 47.5694 42.6324 47.6477 41.6891 47.1732C40.746 46.699 37.7062 45.6997 34.1016 42.4743C31.2973 39.963 29.4034 36.8632 28.8532 35.9146C28.3028 34.9662 28.7953 34.4537 29.2658 33.9831C29.6895 33.5579 30.2091 32.8765 30.6816 32.3241C31.1543 31.7717 31.31 31.3757 31.6249 30.745C31.94 30.1127 31.7824 29.5604 31.5471 29.086C31.3116 28.6118 29.4253 23.9509 28.6377 22.0557C27.8718 20.2096 27.0935 20.4604 26.5159 20.4295C25.9654 20.4022 25.3373 20.3968 24.7073 20.3968C24.0772 20.3968 23.056 20.633 22.1907 21.5815C21.3253 22.53 18.8884 24.8213 18.8884 29.4803C18.8884 34.1393 22.2686 38.644 22.7411 39.2764C23.2136 39.9087 29.3943 49.472 38.8576 53.575C41.1081 54.5507 42.866 55.134 44.2364 55.5701C46.496 56.2915 48.5526 56.1898 50.1783 55.9462C51.9907 55.6737 55.76 53.6549 56.5457 51.4435C57.3314 49.232 57.3314 47.335 57.0961 46.9407C56.8609 46.5464 56.2308 46.3083 55.2875 45.8341L55.2892 45.8305Z" fill="#1B5A70"/>
</svg>
