<svg width="2396" height="3645" viewBox="0 0 2396 3645" fill="none" xmlns="http://www.w3.org/2000/svg">
<mask id="mask0_493_7042" style="mask-type:alpha" maskUnits="userSpaceOnUse" x="1196" y="0" width="1200" height="3645">
<path d="M1198.12 45.8197C1242.27 14.6319 1360.79 -29.0311 1481.71 45.8197C1602.62 120.671 1723.64 77.0076 1769.03 45.8197C1815.68 13.186 1940.23 -32.5012 2065.34 45.8197C2190.45 124.141 2336.95 78.4534 2394.57 45.8197" stroke="black" stroke-width="5"/>
<path d="M1199.16 3600.92C1243.31 3569.74 1361.83 3526.07 1482.75 3600.92C1603.66 3675.77 1724.68 3632.11 1770.07 3600.92C1816.72 3568.29 1941.27 3522.6 2066.38 3600.92C2191.49 3679.24 2337.99 3633.56 2395.61 3600.92" stroke="black"/>
<path d="M1198.14 95.8925C1242.28 64.7046 1360.81 21.0416 1481.72 95.8925C1602.64 170.743 1723.66 127.08 1769.05 95.8925C1815.69 63.2588 1940.25 17.5716 2065.36 95.8925C2190.46 174.213 2336.97 128.526 2394.58 95.8925" stroke="black" stroke-width="4.94366"/>
<path d="M1198.15 145.964C1242.3 114.776 1360.82 71.1134 1481.74 145.964C1602.65 220.815 1723.67 177.152 1769.06 145.964C1815.7 113.331 1940.26 67.6434 2065.37 145.964C2190.48 224.285 2336.98 178.598 2394.6 145.964" stroke="black" stroke-width="4.88732"/>
<path d="M1198.17 196.037C1242.31 164.849 1360.84 121.186 1481.75 196.037C1602.67 270.888 1723.69 227.225 1769.08 196.037C1815.72 163.403 1940.28 117.716 2065.38 196.037C2190.49 274.358 2337 228.671 2394.61 196.037" stroke="black" stroke-width="4.83099"/>
<path d="M1198.18 246.106C1242.33 214.918 1360.85 171.255 1481.77 246.106C1602.68 320.957 1723.7 277.294 1769.09 246.106C1815.73 213.472 1940.29 167.785 2065.4 246.106C2190.51 324.427 2337.01 278.74 2394.63 246.106" stroke="black" stroke-width="4.77465"/>
<path d="M1198.2 296.178C1242.34 264.99 1360.86 221.327 1481.78 296.178C1602.7 371.029 1723.71 327.366 1769.11 296.178C1815.75 263.544 1940.31 217.857 2065.41 296.178C2190.52 374.499 2337.03 328.812 2394.64 296.178" stroke="black" stroke-width="4.71831"/>
<path d="M1198.21 346.251C1242.36 315.064 1360.88 271.401 1481.8 346.251C1602.71 421.102 1723.73 377.439 1769.12 346.251C1815.76 313.618 1940.32 267.93 2065.43 346.251C2190.54 424.572 2337.04 378.885 2394.66 346.251" stroke="black" stroke-width="4.66197"/>
<path d="M1198.23 396.324C1242.37 365.136 1360.89 321.473 1481.81 396.324C1602.73 471.174 1723.74 427.511 1769.14 396.324C1815.78 363.69 1940.34 318.003 2065.44 396.324C2190.55 474.645 2337.06 428.957 2394.67 396.324" stroke="black" stroke-width="4.60563"/>
<path d="M1198.24 446.396C1242.39 415.208 1360.91 371.545 1481.83 446.396C1602.74 521.247 1723.76 477.584 1769.15 446.396C1815.79 413.762 1940.35 368.075 2065.46 446.396C2190.56 524.717 2337.07 479.03 2394.69 446.396" stroke="black" stroke-width="4.5493"/>
<path d="M1198.26 496.468C1242.4 465.28 1360.92 421.617 1481.84 496.468C1602.76 571.319 1723.77 527.656 1769.17 496.468C1815.81 463.834 1940.37 418.147 2065.47 496.468C2190.58 574.789 2337.09 529.102 2394.7 496.468" stroke="black" stroke-width="4.49296"/>
<path d="M1198.27 546.537C1242.42 515.35 1360.94 471.687 1481.86 546.537C1602.77 621.388 1723.79 577.725 1769.18 546.537C1815.82 513.904 1940.38 468.217 2065.49 546.537C2190.59 624.858 2337.1 579.171 2394.72 546.537" stroke="black" stroke-width="4.43662"/>
<path d="M1198.28 596.609C1242.43 565.421 1360.95 521.758 1481.87 596.609C1602.79 671.46 1723.8 627.797 1769.2 596.609C1815.84 563.976 1940.39 518.288 2065.5 596.609C2190.61 674.93 2337.11 629.243 2394.73 596.609" stroke="black" stroke-width="4.38028"/>
<path d="M1198.3 646.682C1242.45 615.494 1360.97 571.831 1481.88 646.682C1602.8 721.533 1723.82 677.87 1769.21 646.682C1815.85 614.048 1940.41 568.361 2065.52 646.682C2190.62 725.003 2337.13 679.316 2394.74 646.682" stroke="black" stroke-width="4.32394"/>
<path d="M1198.31 696.755C1242.46 665.567 1360.98 621.904 1481.9 696.755C1602.82 771.606 1723.83 727.943 1769.23 696.755C1815.87 664.122 1940.42 618.434 2065.53 696.755C2190.64 775.076 2337.14 729.389 2394.76 696.755" stroke="black" stroke-width="4.26761"/>
<path d="M1198.33 746.827C1242.47 715.639 1361 671.976 1481.91 746.827C1602.83 821.677 1723.85 778.014 1769.24 746.827C1815.88 714.193 1940.44 668.506 2065.55 746.827C2190.65 825.147 2337.16 779.46 2394.77 746.827" stroke="black" stroke-width="4.21127"/>
<path d="M1198.34 796.9C1242.49 765.712 1361.01 722.049 1481.93 796.9C1602.85 871.751 1723.86 828.088 1769.25 796.9C1815.9 764.266 1940.45 718.579 2065.56 796.9C2190.67 875.221 2337.17 829.534 2394.79 796.9" stroke="black" stroke-width="4.15493"/>
<path d="M1198.36 846.971C1242.5 815.783 1361.03 772.12 1481.94 846.971C1602.86 921.822 1723.88 878.159 1769.27 846.971C1815.91 814.337 1940.47 768.65 2065.57 846.971C2190.68 925.292 2337.19 879.605 2394.8 846.971" stroke="black" stroke-width="4.09859"/>
<path d="M1198.37 897.041C1242.52 865.853 1361.04 822.19 1481.96 897.041C1602.87 971.892 1723.89 928.229 1769.28 897.041C1815.92 864.407 1940.48 818.72 2065.59 897.041C2190.7 975.362 2337.2 929.675 2394.82 897.041" stroke="black" stroke-width="4.04225"/>
<path d="M1198.39 947.113C1242.53 915.925 1361.06 872.262 1481.97 947.113C1602.89 1021.96 1723.91 978.301 1769.3 947.113C1815.94 914.479 1940.5 868.792 2065.6 947.113C2190.71 1025.43 2337.22 979.747 2394.83 947.113" stroke="black" stroke-width="3.98592"/>
<path d="M1198.4 997.185C1242.55 965.998 1361.07 922.335 1481.99 997.185C1602.9 1072.04 1723.92 1028.37 1769.31 997.185C1815.95 964.552 1940.51 918.865 2065.62 997.185C2190.73 1075.51 2337.23 1029.82 2394.85 997.185" stroke="black" stroke-width="3.92958"/>
<path d="M1198.42 1047.26C1242.56 1016.07 1361.08 972.407 1482 1047.26C1602.92 1122.11 1723.93 1078.45 1769.33 1047.26C1815.97 1014.62 1940.53 968.937 2065.63 1047.26C2190.74 1125.58 2337.25 1079.89 2394.86 1047.26" stroke="black" stroke-width="3.87324"/>
<path d="M1198.43 1097.33C1242.58 1066.14 1361.1 1022.48 1482.02 1097.33C1602.93 1172.18 1723.95 1128.52 1769.34 1097.33C1815.98 1064.7 1940.54 1019.01 2065.65 1097.33C2190.75 1175.65 2337.26 1129.96 2394.88 1097.33" stroke="black" stroke-width="3.8169"/>
<path d="M1198.45 1147.4C1242.59 1116.21 1361.11 1072.55 1482.03 1147.4C1602.95 1222.25 1723.96 1178.59 1769.36 1147.4C1816 1114.77 1940.56 1069.08 2065.66 1147.4C2190.77 1225.72 2337.28 1180.04 2394.89 1147.4" stroke="black" stroke-width="3.76056"/>
<path d="M1198.46 1197.47C1242.61 1166.28 1361.13 1122.62 1482.05 1197.47C1602.96 1272.32 1723.98 1228.66 1769.37 1197.47C1816.01 1164.84 1940.57 1119.15 2065.68 1197.47C2190.78 1275.79 2337.29 1230.11 2394.91 1197.47" stroke="black" stroke-width="3.70423"/>
<path d="M1198.47 1247.54C1242.62 1216.36 1361.14 1172.69 1482.06 1247.54C1602.98 1322.4 1723.99 1278.73 1769.39 1247.54C1816.03 1214.91 1940.59 1169.22 2065.69 1247.54C2190.8 1325.87 2337.31 1280.18 2394.92 1247.54" stroke="black" stroke-width="3.64789"/>
<path d="M1198.49 1297.62C1242.64 1266.43 1361.16 1222.77 1482.07 1297.62C1602.99 1372.47 1724.01 1328.8 1769.4 1297.62C1816.04 1264.98 1940.6 1219.3 2065.71 1297.62C2190.81 1375.94 2337.32 1330.25 2394.93 1297.62" stroke="black" stroke-width="3.59155"/>
<path d="M1198.5 1347.69C1242.65 1316.5 1361.17 1272.84 1482.09 1347.69C1603.01 1422.54 1724.02 1378.88 1769.42 1347.69C1816.06 1315.06 1940.61 1269.37 2065.72 1347.69C2190.83 1426.01 2337.33 1380.32 2394.95 1347.69" stroke="black" stroke-width="3.53521"/>
<path d="M1198.52 1397.76C1242.66 1366.57 1361.19 1322.91 1482.1 1397.76C1603.02 1472.61 1724.04 1428.95 1769.43 1397.76C1816.07 1365.13 1940.63 1319.44 2065.74 1397.76C2190.84 1476.08 2337.35 1430.4 2394.96 1397.76" stroke="black" stroke-width="3.47887"/>
<path d="M1198.53 1447.83C1242.68 1416.65 1361.2 1372.98 1482.12 1447.83C1603.04 1522.68 1724.05 1479.02 1769.45 1447.83C1816.09 1415.2 1940.64 1369.51 2065.75 1447.83C2190.86 1526.15 2337.36 1480.47 2394.98 1447.83" stroke="black" stroke-width="3.42254"/>
<path d="M1198.55 1497.91C1242.69 1466.72 1361.22 1423.06 1482.13 1497.91C1603.05 1572.76 1724.07 1529.09 1769.46 1497.91C1816.1 1465.27 1940.66 1419.59 2065.77 1497.91C2190.87 1576.23 2337.38 1530.54 2394.99 1497.91" stroke="black" stroke-width="3.3662"/>
<path d="M1198.56 1547.98C1242.71 1516.79 1361.23 1473.13 1482.15 1547.98C1603.06 1622.83 1724.08 1579.16 1769.47 1547.98C1816.11 1515.34 1940.67 1469.66 2065.78 1547.98C2190.89 1626.3 2337.39 1580.61 2395.01 1547.98" stroke="black" stroke-width="3.30986"/>
<path d="M1198.58 1598.05C1242.72 1566.86 1361.25 1523.2 1482.16 1598.05C1603.08 1672.9 1724.1 1629.24 1769.49 1598.05C1816.13 1565.41 1940.69 1519.73 2065.79 1598.05C2190.9 1676.37 2337.41 1630.68 2395.02 1598.05" stroke="black" stroke-width="3.25352"/>
<path d="M1198.59 1648.12C1242.74 1616.93 1361.26 1573.27 1482.18 1648.12C1603.09 1722.97 1724.11 1679.31 1769.5 1648.12C1816.14 1615.49 1940.7 1569.8 2065.81 1648.12C2190.92 1726.44 2337.42 1680.75 2395.04 1648.12" stroke="black" stroke-width="3.19718"/>
<path d="M1198.61 1698.19C1242.75 1667 1361.27 1623.34 1482.19 1698.19C1603.11 1773.04 1724.12 1729.38 1769.52 1698.19C1816.16 1665.56 1940.72 1619.87 2065.82 1698.19C2190.93 1776.51 2337.44 1730.83 2395.05 1698.19" stroke="black" stroke-width="3.14085"/>
<path d="M1198.62 1748.27C1242.77 1717.08 1361.29 1673.41 1482.21 1748.27C1603.12 1823.12 1724.14 1779.45 1769.53 1748.27C1816.17 1715.63 1940.73 1669.94 2065.84 1748.27C2190.95 1826.59 2337.45 1780.9 2395.07 1748.27" stroke="black" stroke-width="3.08451"/>
<path d="M1198.64 1798.34C1242.78 1767.15 1361.3 1723.49 1482.22 1798.34C1603.14 1873.19 1724.15 1829.53 1769.55 1798.34C1816.19 1765.7 1940.75 1720.02 2065.85 1798.34C2190.96 1876.66 2337.47 1830.97 2395.08 1798.34" stroke="black" stroke-width="3.02817"/>
<path d="M1198.65 1848.41C1242.8 1817.22 1361.32 1773.56 1482.24 1848.41C1603.15 1923.26 1724.17 1879.59 1769.56 1848.41C1816.2 1815.77 1940.76 1770.09 2065.87 1848.41C2190.97 1926.73 2337.48 1881.04 2395.1 1848.41" stroke="black" stroke-width="2.97183"/>
<path d="M1198.67 1898.48C1242.81 1867.29 1361.33 1823.63 1482.25 1898.48C1603.17 1973.33 1724.18 1929.67 1769.58 1898.48C1816.22 1865.84 1940.78 1820.16 2065.88 1898.48C2190.99 1976.8 2337.5 1931.11 2395.11 1898.48" stroke="black" stroke-width="2.91549"/>
<path d="M1198.68 1948.55C1242.83 1917.36 1361.35 1873.7 1482.27 1948.55C1603.18 2023.4 1724.2 1979.74 1769.59 1948.55C1816.23 1915.92 1940.79 1870.23 2065.9 1948.55C2191 2026.87 2337.51 1981.19 2395.13 1948.55" stroke="black" stroke-width="2.85915"/>
<path d="M1198.69 1998.62C1242.84 1967.44 1361.36 1923.77 1482.28 1998.62C1603.2 2073.47 1724.21 2029.81 1769.61 1998.62C1816.25 1965.99 1940.8 1920.3 2065.91 1998.62C2191.02 2076.94 2337.52 2031.26 2395.14 1998.62" stroke="black" stroke-width="2.80282"/>
<path d="M1198.71 2048.7C1242.86 2017.51 1361.38 1973.85 1482.29 2048.7C1603.21 2123.55 1724.23 2079.88 1769.62 2048.7C1816.26 2016.06 1940.82 1970.38 2065.93 2048.7C2191.03 2127.02 2337.54 2081.33 2395.15 2048.7" stroke="black" stroke-width="2.74648"/>
<path d="M1198.72 2098.77C1242.87 2067.58 1361.39 2023.92 1482.31 2098.77C1603.22 2173.62 1724.24 2129.96 1769.63 2098.77C1816.28 2066.13 1940.83 2020.45 2065.94 2098.77C2191.05 2177.09 2337.55 2131.4 2395.17 2098.77" stroke="black" stroke-width="2.69014"/>
<path d="M1198.74 2148.84C1242.88 2117.65 1361.41 2073.99 1482.32 2148.84C1603.24 2223.69 1724.26 2180.03 1769.65 2148.84C1816.29 2116.2 1940.85 2070.52 2065.96 2148.84C2191.06 2227.16 2337.57 2181.47 2395.18 2148.84" stroke="black" stroke-width="2.6338"/>
<path d="M1198.75 2198.91C1242.9 2167.72 1361.42 2124.06 1482.34 2198.91C1603.25 2273.76 1724.27 2230.1 1769.66 2198.91C1816.31 2166.28 1940.86 2120.59 2065.97 2198.91C2191.08 2277.23 2337.58 2231.54 2395.2 2198.91" stroke="black" stroke-width="2.57746"/>
<path d="M1198.77 2248.98C1242.91 2217.79 1361.44 2174.13 1482.35 2248.98C1603.27 2323.83 1724.29 2280.17 1769.68 2248.98C1816.32 2216.35 1940.88 2170.66 2065.98 2248.98C2191.09 2327.3 2337.6 2281.62 2395.21 2248.98" stroke="black" stroke-width="2.52113"/>
<path d="M1198.78 2299.05C1242.93 2267.87 1361.45 2224.2 1482.37 2299.05C1603.28 2373.91 1724.3 2330.24 1769.69 2299.05C1816.33 2266.42 1940.89 2220.73 2066 2299.05C2191.11 2377.38 2337.61 2331.69 2395.23 2299.05" stroke="black" stroke-width="2.46479"/>
<path d="M1198.8 2349.13C1242.94 2317.94 1361.47 2274.28 1482.38 2349.13C1603.3 2423.98 1724.32 2380.31 1769.71 2349.13C1816.35 2316.49 1940.91 2270.81 2066.01 2349.13C2191.12 2427.45 2337.63 2381.76 2395.24 2349.13" stroke="black" stroke-width="2.40845"/>
<path d="M1198.81 2399.2C1242.96 2368.01 1361.48 2324.35 1482.4 2399.2C1603.31 2474.05 1724.33 2430.39 1769.72 2399.2C1816.36 2366.57 1940.92 2320.88 2066.03 2399.2C2191.14 2477.52 2337.64 2431.83 2395.26 2399.2" stroke="black" stroke-width="2.35211"/>
<path d="M1198.83 2449.27C1242.97 2418.08 1361.49 2374.42 1482.41 2449.27C1603.33 2524.12 1724.34 2480.46 1769.74 2449.27C1816.38 2416.64 1940.94 2370.95 2066.04 2449.27C2191.15 2527.59 2337.66 2481.91 2395.27 2449.27" stroke="black" stroke-width="2.29577"/>
<path d="M1198.84 2499.34C1242.99 2468.15 1361.51 2424.49 1482.43 2499.34C1603.34 2574.19 1724.36 2530.53 1769.75 2499.34C1816.39 2466.71 1940.95 2421.02 2066.06 2499.34C2191.16 2577.66 2337.67 2531.97 2395.29 2499.34" stroke="black" stroke-width="2.23944"/>
<path d="M1198.86 2549.41C1243 2518.23 1361.52 2474.56 1482.44 2549.41C1603.36 2624.26 1724.37 2580.6 1769.77 2549.41C1816.41 2516.78 1940.97 2471.09 2066.07 2549.41C2191.18 2627.73 2337.69 2582.05 2395.3 2549.41" stroke="black" stroke-width="2.1831"/>
<path d="M1198.87 2599.49C1243.02 2568.3 1361.54 2524.63 1482.46 2599.49C1603.37 2674.34 1724.39 2630.67 1769.78 2599.49C1816.42 2566.85 1940.98 2521.16 2066.09 2599.49C2191.19 2677.81 2337.7 2632.12 2395.32 2599.49" stroke="black" stroke-width="2.12676"/>
<path d="M1198.88 2649.56C1243.03 2618.37 1361.55 2574.71 1482.47 2649.56C1603.39 2724.41 1724.4 2680.75 1769.8 2649.56C1816.44 2616.92 1940.99 2571.24 2066.1 2649.56C2191.21 2727.88 2337.72 2682.19 2395.33 2649.56" stroke="black" stroke-width="2.07042"/>
<path d="M1198.9 2699.63C1243.05 2668.44 1361.57 2624.78 1482.48 2699.63C1603.4 2774.48 1724.42 2730.82 1769.81 2699.63C1816.45 2667 1941.01 2621.31 2066.12 2699.63C2191.22 2777.95 2337.73 2732.27 2395.34 2699.63" stroke="black" stroke-width="2.01408"/>
<path d="M1198.91 2749.7C1243.06 2718.52 1361.58 2674.85 1482.5 2749.7C1603.42 2824.55 1724.43 2780.89 1769.83 2749.7C1816.47 2717.07 1941.02 2671.38 2066.13 2749.7C2191.24 2828.02 2337.74 2782.34 2395.36 2749.7" stroke="black" stroke-width="1.95775"/>
<path d="M1198.93 2799.77C1243.07 2768.59 1361.6 2724.92 1482.51 2799.77C1603.43 2874.62 1724.45 2830.96 1769.84 2799.77C1816.48 2767.14 1941.04 2721.45 2066.15 2799.77C2191.25 2878.09 2337.76 2832.41 2395.37 2799.77" stroke="black" stroke-width="1.90141"/>
<path d="M1198.94 2849.84C1243.09 2818.66 1361.61 2774.99 1482.53 2849.84C1603.44 2924.69 1724.46 2881.03 1769.85 2849.84C1816.5 2817.21 1941.05 2771.52 2066.16 2849.84C2191.27 2928.16 2337.77 2882.48 2395.39 2849.84" stroke="black" stroke-width="1.84507"/>
<path d="M1198.96 2899.92C1243.1 2868.73 1361.63 2825.07 1482.54 2899.92C1603.46 2974.77 1724.48 2931.1 1769.87 2899.92C1816.51 2867.28 1941.07 2821.6 2066.18 2899.92C2191.28 2978.24 2337.79 2932.55 2395.4 2899.92" stroke="black" stroke-width="1.78873"/>
<path d="M1198.97 2949.99C1243.12 2918.8 1361.64 2875.14 1482.56 2949.99C1603.47 3024.84 1724.49 2981.18 1769.88 2949.99C1816.52 2917.36 1941.08 2871.67 2066.19 2949.99C2191.3 3028.31 2337.8 2982.62 2395.42 2949.99" stroke="black" stroke-width="1.73239"/>
<path d="M1198.99 3000.06C1243.13 2968.87 1361.66 2925.21 1482.57 3000.06C1603.49 3074.91 1724.51 3031.25 1769.9 3000.06C1816.54 2967.43 1941.1 2921.74 2066.2 3000.06C2191.31 3078.38 2337.82 3032.7 2395.43 3000.06" stroke="black" stroke-width="1.67606"/>
<path d="M1199 3050.14C1243.15 3018.95 1361.67 2975.28 1482.59 3050.14C1603.5 3124.99 1724.52 3081.32 1769.91 3050.14C1816.55 3017.5 1941.11 2971.81 2066.22 3050.14C2191.33 3128.46 2337.83 3082.77 2395.45 3050.14" stroke="black" stroke-width="1.61972"/>
<path d="M1199.02 3100.21C1243.16 3069.02 1361.69 3025.36 1482.6 3100.21C1603.52 3175.06 1724.53 3131.39 1769.93 3100.21C1816.57 3067.57 1941.13 3021.89 2066.23 3100.21C2191.34 3178.53 2337.85 3132.84 2395.46 3100.21" stroke="black" stroke-width="1.56338"/>
<path d="M1199.03 3150.27C1243.18 3119.09 1361.7 3075.42 1482.62 3150.27C1603.53 3225.13 1724.55 3181.46 1769.94 3150.27C1816.58 3117.64 1941.14 3071.95 2066.25 3150.27C2191.36 3228.6 2337.86 3182.91 2395.48 3150.27" stroke="black" stroke-width="1.50704"/>
<path d="M1199.05 3200.35C1243.19 3169.16 1361.71 3125.5 1482.63 3200.35C1603.55 3275.2 1724.56 3231.54 1769.96 3200.35C1816.6 3167.71 1941.16 3122.03 2066.26 3200.35C2191.37 3278.67 2337.88 3232.98 2395.49 3200.35" stroke="black" stroke-width="1.4507"/>
<path d="M1199.06 3250.42C1243.21 3219.23 1361.73 3175.57 1482.65 3250.42C1603.56 3325.27 1724.58 3281.61 1769.97 3250.42C1816.61 3217.79 1941.17 3172.1 2066.28 3250.42C2191.38 3328.74 2337.89 3283.05 2395.51 3250.42" stroke="black" stroke-width="1.39437"/>
<path d="M1199.08 3300.49C1243.22 3269.31 1361.74 3225.64 1482.66 3300.49C1603.58 3375.34 1724.59 3331.68 1769.99 3300.49C1816.63 3267.86 1941.19 3222.17 2066.29 3300.49C2191.4 3378.81 2337.91 3333.13 2395.52 3300.49" stroke="black" stroke-width="1.33803"/>
<path d="M1199.09 3350.57C1243.24 3319.38 1361.76 3275.72 1482.68 3350.57C1603.59 3425.42 1724.61 3381.76 1770 3350.57C1816.64 3317.93 1941.2 3272.25 2066.31 3350.57C2191.41 3428.89 2337.92 3383.2 2395.54 3350.57" stroke="black" stroke-width="1.28169"/>
<path d="M1199.1 3400.64C1243.25 3369.45 1361.77 3325.79 1482.69 3400.64C1603.61 3475.49 1724.62 3431.83 1770.02 3400.64C1816.66 3368 1941.21 3322.32 2066.32 3400.64C2191.43 3478.96 2337.94 3433.27 2395.55 3400.64" stroke="black" stroke-width="1.22535"/>
<path d="M1199.12 3450.71C1243.27 3419.52 1361.79 3375.86 1482.7 3450.71C1603.62 3525.56 1724.64 3481.89 1770.03 3450.71C1816.67 3418.07 1941.23 3372.39 2066.34 3450.71C2191.44 3529.03 2337.95 3483.34 2395.56 3450.71" stroke="black" stroke-width="1.16901"/>
<path d="M1199.13 3500.78C1243.28 3469.59 1361.8 3425.93 1482.72 3500.78C1603.64 3575.63 1724.65 3531.97 1770.05 3500.78C1816.69 3468.15 1941.24 3422.46 2066.35 3500.78C2191.46 3579.1 2337.96 3533.41 2395.58 3500.78" stroke="black" stroke-width="1.11268"/>
<path d="M1199.15 3550.85C1243.29 3519.66 1361.82 3476 1482.73 3550.85C1603.65 3625.7 1724.67 3582.04 1770.06 3550.85C1816.7 3518.22 1941.26 3472.53 2066.37 3550.85C2191.47 3629.17 2337.98 3583.49 2395.59 3550.85" stroke="black" stroke-width="1.05634"/>
</mask>
<g mask="url(#mask0_493_7042)">
<rect x="1190.92" y="-8.23682" width="1207.26" height="3654.2" fill="url(#paint0_linear_493_7042)"/>
</g>
<mask id="mask1_493_7042" style="mask-type:alpha" maskUnits="userSpaceOnUse" x="0" y="0" width="1200" height="3645">
<path d="M1.67773 45.8197C45.8243 14.6319 164.346 -29.0311 285.263 45.8197C406.18 120.671 527.196 77.0076 572.589 45.8197C619.23 13.186 743.788 -32.5012 868.895 45.8197C994.002 124.141 1140.51 78.4534 1198.12 45.8197" stroke="black" stroke-width="5"/>
<path d="M2.71729 3600.92C46.8638 3569.74 165.386 3526.07 286.303 3600.92C407.219 3675.77 528.235 3632.11 573.629 3600.92C620.27 3568.29 744.828 3522.6 869.934 3600.92C995.041 3679.24 1141.55 3633.56 1199.16 3600.92" stroke="black"/>
<path d="M1.69238 95.8925C45.8389 64.7046 164.361 21.0416 285.278 95.8925C406.194 170.743 527.211 127.08 572.604 95.8925C619.245 63.2588 743.803 17.5716 868.91 95.8925C994.016 174.213 1140.52 128.526 1198.14 95.8925" stroke="black" stroke-width="4.94366"/>
<path d="M1.70654 145.964C45.8531 114.776 164.375 71.1134 285.292 145.964C406.208 220.815 527.225 177.152 572.618 145.964C619.259 113.331 743.817 67.6434 868.924 145.964C994.03 224.285 1140.54 178.598 1198.15 145.964" stroke="black" stroke-width="4.88732"/>
<path d="M1.72168 196.037C45.8682 164.849 164.39 121.186 285.307 196.037C406.224 270.888 527.24 227.225 572.633 196.037C619.274 163.403 743.832 117.716 868.939 196.037C994.046 274.358 1140.55 228.671 1198.17 196.037" stroke="black" stroke-width="4.83099"/>
<path d="M1.73633 246.106C45.8828 214.918 164.405 171.255 285.322 246.106C406.238 320.957 527.254 277.294 572.648 246.106C619.289 213.472 743.847 167.785 868.954 246.106C994.06 324.427 1140.57 278.74 1198.18 246.106" stroke="black" stroke-width="4.77465"/>
<path d="M1.75049 296.178C45.897 264.99 164.419 221.327 285.336 296.178C406.252 371.029 527.269 327.366 572.662 296.178C619.303 263.544 743.861 217.857 868.968 296.178C994.074 374.499 1140.58 328.812 1198.2 296.178" stroke="black" stroke-width="4.71831"/>
<path d="M1.76611 346.251C45.9126 315.064 164.435 271.401 285.351 346.251C406.268 421.102 527.284 377.439 572.678 346.251C619.319 313.618 743.877 267.93 868.983 346.251C994.09 424.572 1140.6 378.885 1198.21 346.251" stroke="black" stroke-width="4.66197"/>
<path d="M1.78076 396.324C45.9273 365.136 164.449 321.473 285.366 396.324C406.283 471.174 527.299 427.511 572.692 396.324C619.333 363.69 743.891 318.003 868.998 396.324C994.105 474.645 1140.61 428.957 1198.23 396.324" stroke="black" stroke-width="4.60563"/>
<path d="M1.79492 446.396C45.9414 415.208 164.464 371.545 285.38 446.396C406.297 521.247 527.313 477.584 572.707 446.396C619.347 413.762 743.905 368.075 869.012 446.396C994.119 524.717 1140.63 479.03 1198.24 446.396" stroke="black" stroke-width="4.5493"/>
<path d="M1.80957 496.468C45.9561 465.28 164.478 421.617 285.395 496.468C406.311 571.319 527.328 527.656 572.721 496.468C619.362 463.834 743.92 418.147 869.027 496.468C994.134 574.789 1140.64 529.102 1198.26 496.468" stroke="black" stroke-width="4.49296"/>
<path d="M1.82471 546.537C45.9712 515.35 164.493 471.687 285.41 546.537C406.327 621.388 527.343 577.725 572.736 546.537C619.377 513.904 743.935 468.217 869.042 546.537C994.149 624.858 1140.66 579.171 1198.27 546.537" stroke="black" stroke-width="4.43662"/>
<path d="M1.83887 596.609C45.9854 565.421 164.508 521.758 285.424 596.609C406.341 671.46 527.357 627.797 572.751 596.609C619.391 563.976 743.949 518.288 869.056 596.609C994.163 674.93 1140.67 629.243 1198.28 596.609" stroke="black" stroke-width="4.38028"/>
<path d="M1.85352 646.682C46 615.494 164.522 571.831 285.439 646.682C406.355 721.533 527.372 677.87 572.765 646.682C619.406 614.048 743.964 568.361 869.071 646.682C994.177 725.003 1140.68 679.316 1198.3 646.682" stroke="black" stroke-width="4.32394"/>
<path d="M1.86768 696.755C46.0142 665.567 164.536 621.904 285.453 696.755C406.369 771.606 527.386 727.943 572.779 696.755C619.42 664.122 743.978 618.434 869.085 696.755C994.192 775.076 1140.7 729.389 1198.31 696.755" stroke="black" stroke-width="4.26761"/>
<path d="M1.88281 746.827C46.0293 715.639 164.552 671.976 285.468 746.827C406.385 821.677 527.401 778.014 572.795 746.827C619.435 714.193 743.993 668.506 869.1 746.827C994.207 825.147 1140.71 779.46 1198.33 746.827" stroke="black" stroke-width="4.21127"/>
<path d="M1.89746 796.9C46.044 765.712 164.566 722.049 285.483 796.9C406.399 871.751 527.416 828.088 572.809 796.9C619.45 764.266 744.008 718.579 869.115 796.9C994.221 875.221 1140.73 829.534 1198.34 796.9" stroke="black" stroke-width="4.15493"/>
<path d="M1.91162 846.971C46.0581 815.783 164.58 772.12 285.497 846.971C406.413 921.822 527.43 878.159 572.823 846.971C619.464 814.337 744.022 768.65 869.129 846.971C994.236 925.292 1140.74 879.605 1198.36 846.971" stroke="black" stroke-width="4.09859"/>
<path d="M1.92627 897.041C46.0728 865.853 164.595 822.19 285.512 897.041C406.428 971.892 527.444 928.229 572.838 897.041C619.479 864.407 744.037 818.72 869.143 897.041C994.25 975.362 1140.76 929.675 1198.37 897.041" stroke="black" stroke-width="4.04225"/>
<path d="M1.94189 947.113C46.0884 915.925 164.611 872.262 285.527 947.113C406.444 1021.96 527.46 978.301 572.854 947.113C619.494 914.479 744.052 868.792 869.159 947.113C994.266 1025.43 1140.77 979.747 1198.39 947.113" stroke="black" stroke-width="3.98592"/>
<path d="M1.95605 997.185C46.1026 965.998 164.625 922.335 285.541 997.185C406.458 1072.04 527.474 1028.37 572.868 997.185C619.508 964.552 744.066 918.865 869.173 997.185C994.28 1075.51 1140.79 1029.82 1198.4 997.185" stroke="black" stroke-width="3.92958"/>
<path d="M1.97119 1047.26C46.1177 1016.07 164.64 972.407 285.556 1047.26C406.473 1122.11 527.489 1078.45 572.883 1047.26C619.524 1014.62 744.082 968.937 869.188 1047.26C994.295 1125.58 1140.8 1079.89 1198.42 1047.26" stroke="black" stroke-width="3.87324"/>
<path d="M1.98535 1097.33C46.1319 1066.14 164.654 1022.48 285.571 1097.33C406.487 1172.18 527.503 1128.52 572.897 1097.33C619.538 1064.7 744.096 1019.01 869.203 1097.33C994.309 1175.65 1140.82 1129.96 1198.43 1097.33" stroke="black" stroke-width="3.8169"/>
<path d="M2 1147.4C46.1465 1116.21 164.669 1072.55 285.585 1147.4C406.502 1222.25 527.518 1178.59 572.912 1147.4C619.552 1114.77 744.11 1069.08 869.217 1147.4C994.324 1225.72 1140.83 1180.04 1198.45 1147.4" stroke="black" stroke-width="3.76056"/>
<path d="M2.01465 1197.47C46.1612 1166.28 164.683 1122.62 285.6 1197.47C406.516 1272.32 527.533 1228.66 572.926 1197.47C619.567 1164.84 744.125 1119.15 869.232 1197.47C994.339 1275.79 1140.85 1230.11 1198.46 1197.47" stroke="black" stroke-width="3.70423"/>
<path d="M2.02881 1247.54C46.1753 1216.36 164.697 1172.69 285.614 1247.54C406.531 1322.4 527.547 1278.73 572.941 1247.54C619.581 1214.91 744.139 1169.22 869.246 1247.54C994.353 1325.87 1140.86 1280.18 1198.47 1247.54" stroke="black" stroke-width="3.64789"/>
<path d="M2.04346 1297.62C46.19 1266.43 164.712 1222.77 285.629 1297.62C406.545 1372.47 527.562 1328.8 572.955 1297.62C619.596 1264.98 744.154 1219.3 869.261 1297.62C994.367 1375.94 1140.87 1330.25 1198.49 1297.62" stroke="black" stroke-width="3.59155"/>
<path d="M2.05859 1347.69C46.2051 1316.5 164.727 1272.84 285.644 1347.69C406.56 1422.54 527.577 1378.88 572.97 1347.69C619.611 1315.06 744.169 1269.37 869.276 1347.69C994.383 1426.01 1140.89 1380.32 1198.5 1347.69" stroke="black" stroke-width="3.53521"/>
<path d="M2.07275 1397.76C46.2193 1366.57 164.741 1322.91 285.658 1397.76C406.575 1472.61 527.591 1428.95 572.984 1397.76C619.625 1365.13 744.183 1319.44 869.29 1397.76C994.397 1476.08 1140.9 1430.4 1198.52 1397.76" stroke="black" stroke-width="3.47887"/>
<path d="M2.08838 1447.83C46.2349 1416.65 164.757 1372.98 285.674 1447.83C406.59 1522.68 527.607 1479.02 573 1447.83C619.641 1415.2 744.199 1369.51 869.306 1447.83C994.412 1526.15 1140.92 1480.47 1198.53 1447.83" stroke="black" stroke-width="3.42254"/>
<path d="M2.10303 1497.91C46.2495 1466.72 164.772 1423.06 285.688 1497.91C406.605 1572.76 527.621 1529.09 573.015 1497.91C619.655 1465.27 744.213 1419.59 869.32 1497.91C994.427 1576.23 1140.93 1530.54 1198.55 1497.91" stroke="black" stroke-width="3.3662"/>
<path d="M2.1167 1547.98C46.2632 1516.79 164.785 1473.13 285.702 1547.98C406.619 1622.83 527.635 1579.16 573.028 1547.98C619.669 1515.34 744.227 1469.66 869.334 1547.98C994.441 1626.3 1140.95 1580.61 1198.56 1547.98" stroke="black" stroke-width="3.30986"/>
<path d="M2.13184 1598.05C46.2784 1566.86 164.801 1523.2 285.717 1598.05C406.634 1672.9 527.65 1629.24 573.044 1598.05C619.684 1565.41 744.242 1519.73 869.349 1598.05C994.456 1676.37 1140.96 1630.68 1198.58 1598.05" stroke="black" stroke-width="3.25352"/>
<path d="M2.14648 1648.12C46.293 1616.93 164.815 1573.27 285.732 1648.12C406.648 1722.97 527.665 1679.31 573.058 1648.12C619.699 1615.49 744.257 1569.8 869.364 1648.12C994.47 1726.44 1140.98 1680.75 1198.59 1648.12" stroke="black" stroke-width="3.19718"/>
<path d="M2.16016 1698.19C46.3067 1667 164.829 1623.34 285.745 1698.19C406.662 1773.04 527.678 1729.38 573.072 1698.19C619.713 1665.56 744.271 1619.87 869.377 1698.19C994.484 1776.51 1140.99 1730.83 1198.61 1698.19" stroke="black" stroke-width="3.14085"/>
<path d="M2.17578 1748.27C46.3223 1717.08 164.844 1673.41 285.761 1748.27C406.678 1823.12 527.694 1779.45 573.088 1748.27C619.728 1715.63 744.286 1669.94 869.393 1748.27C994.5 1826.59 1141.01 1780.9 1198.62 1748.27" stroke="black" stroke-width="3.08451"/>
<path d="M2.19141 1798.34C46.3379 1767.15 164.86 1723.49 285.777 1798.34C406.693 1873.19 527.71 1829.53 573.103 1798.34C619.744 1765.7 744.302 1720.02 869.409 1798.34C994.515 1876.66 1141.02 1830.97 1198.64 1798.34" stroke="black" stroke-width="3.02817"/>
<path d="M2.20508 1848.41C46.3516 1817.22 164.874 1773.56 285.79 1848.41C406.707 1923.26 527.723 1879.59 573.117 1848.41C619.757 1815.77 744.316 1770.09 869.422 1848.41C994.529 1926.73 1141.04 1881.04 1198.65 1848.41" stroke="black" stroke-width="2.97183"/>
<path d="M2.21973 1898.48C46.3662 1867.29 164.888 1823.63 285.805 1898.48C406.722 1973.33 527.738 1929.67 573.131 1898.48C619.772 1865.84 744.33 1820.16 869.437 1898.48C994.544 1976.8 1141.05 1931.11 1198.67 1898.48" stroke="black" stroke-width="2.91549"/>
<path d="M2.23438 1948.55C46.3809 1917.36 164.903 1873.7 285.82 1948.55C406.736 2023.4 527.753 1979.74 573.146 1948.55C619.787 1915.92 744.345 1870.23 869.452 1948.55C994.558 2026.87 1141.06 1981.19 1198.68 1948.55" stroke="black" stroke-width="2.85915"/>
<path d="M2.24854 1998.62C46.3951 1967.44 164.917 1923.77 285.834 1998.62C406.75 2073.47 527.767 2029.81 573.16 1998.62C619.801 1965.99 744.359 1920.3 869.466 1998.62C994.572 2076.94 1141.08 2031.26 1198.69 1998.62" stroke="black" stroke-width="2.80282"/>
<path d="M2.26318 2048.7C46.4097 2017.51 164.932 1973.85 285.848 2048.7C406.765 2123.55 527.781 2079.88 573.175 2048.7C619.816 2016.06 744.374 1970.38 869.48 2048.7C994.587 2127.02 1141.09 2081.33 1198.71 2048.7" stroke="black" stroke-width="2.74648"/>
<path d="M2.27734 2098.77C46.4239 2067.58 164.946 2023.92 285.863 2098.77C406.779 2173.62 527.795 2129.96 573.189 2098.77C619.83 2066.13 744.388 2020.45 869.495 2098.77C994.601 2177.09 1141.11 2131.4 1198.72 2098.77" stroke="black" stroke-width="2.69014"/>
<path d="M2.29297 2148.84C46.4395 2117.65 164.962 2073.99 285.878 2148.84C406.795 2223.69 527.811 2180.03 573.205 2148.84C619.845 2116.2 744.403 2070.52 869.51 2148.84C994.617 2227.16 1141.12 2181.47 1198.74 2148.84" stroke="black" stroke-width="2.6338"/>
<path d="M2.30811 2198.91C46.4546 2167.72 164.977 2124.06 285.893 2198.91C406.81 2273.76 527.826 2230.1 573.22 2198.91C619.861 2166.28 744.419 2120.59 869.525 2198.91C994.632 2277.23 1141.14 2231.54 1198.75 2198.91" stroke="black" stroke-width="2.57746"/>
<path d="M2.32227 2248.98C46.4688 2217.79 164.991 2174.13 285.908 2248.98C406.824 2323.83 527.84 2280.17 573.234 2248.98C619.875 2216.35 744.433 2170.66 869.539 2248.98C994.646 2327.3 1141.15 2281.62 1198.77 2248.98" stroke="black" stroke-width="2.52113"/>
<path d="M2.33691 2299.05C46.4834 2267.87 165.006 2224.2 285.922 2299.05C406.839 2373.91 527.855 2330.24 573.249 2299.05C619.889 2266.42 744.447 2220.73 869.554 2299.05C994.661 2377.38 1141.17 2331.69 1198.78 2299.05" stroke="black" stroke-width="2.46479"/>
<path d="M2.35156 2349.13C46.4981 2317.94 165.02 2274.28 285.937 2349.13C406.853 2423.98 527.87 2380.31 573.263 2349.13C619.904 2316.49 744.462 2270.81 869.569 2349.13C994.675 2427.45 1141.18 2381.76 1198.8 2349.13" stroke="black" stroke-width="2.40845"/>
<path d="M2.36572 2399.2C46.5122 2368.01 165.034 2324.35 285.951 2399.2C406.868 2474.05 527.884 2430.39 573.277 2399.2C619.918 2366.57 744.476 2320.88 869.583 2399.2C994.69 2477.52 1141.2 2431.83 1198.81 2399.2" stroke="black" stroke-width="2.35211"/>
<path d="M2.38037 2449.27C46.5269 2418.08 165.049 2374.42 285.966 2449.27C406.882 2524.12 527.899 2480.46 573.292 2449.27C619.933 2416.64 744.491 2370.95 869.598 2449.27C994.704 2527.59 1141.21 2481.91 1198.83 2449.27" stroke="black" stroke-width="2.29577"/>
<path d="M2.39551 2499.34C46.542 2468.15 165.064 2424.49 285.981 2499.34C406.897 2574.19 527.914 2530.53 573.307 2499.34C619.948 2466.71 744.506 2421.02 869.613 2499.34C994.719 2577.66 1141.23 2531.97 1198.84 2499.34" stroke="black" stroke-width="2.23944"/>
<path d="M2.40967 2549.41C46.5562 2518.23 165.078 2474.56 285.995 2549.41C406.911 2624.26 527.928 2580.6 573.321 2549.41C619.962 2516.78 744.52 2471.09 869.627 2549.41C994.734 2627.73 1141.24 2582.05 1198.86 2549.41" stroke="black" stroke-width="2.1831"/>
<path d="M2.42529 2599.49C46.5718 2568.3 165.094 2524.63 286.011 2599.49C406.927 2674.34 527.943 2630.67 573.337 2599.49C619.978 2566.85 744.536 2521.16 869.642 2599.49C994.749 2677.81 1141.26 2632.12 1198.87 2599.49" stroke="black" stroke-width="2.12676"/>
<path d="M2.43896 2649.56C46.5855 2618.37 165.108 2574.71 286.024 2649.56C406.941 2724.41 527.957 2680.75 573.351 2649.56C619.991 2616.92 744.549 2571.24 869.656 2649.56C994.763 2727.88 1141.27 2682.19 1198.88 2649.56" stroke="black" stroke-width="2.07042"/>
<path d="M2.45361 2699.63C46.6001 2668.44 165.122 2624.78 286.039 2699.63C406.955 2774.48 527.972 2730.82 573.365 2699.63C620.006 2667 744.564 2621.31 869.671 2699.63C994.778 2777.95 1141.28 2732.27 1198.9 2699.63" stroke="black" stroke-width="2.01408"/>
<path d="M2.46875 2749.7C46.6153 2718.52 165.137 2674.85 286.054 2749.7C406.971 2824.55 527.987 2780.89 573.38 2749.7C620.021 2717.07 744.579 2671.38 869.686 2749.7C994.793 2828.02 1141.3 2782.34 1198.91 2749.7" stroke="black" stroke-width="1.95775"/>
<path d="M2.48242 2799.77C46.6289 2768.59 165.151 2724.92 286.068 2799.77C406.984 2874.62 528.001 2830.96 573.394 2799.77C620.035 2767.14 744.593 2721.45 869.7 2799.77C994.806 2878.09 1141.31 2832.41 1198.93 2799.77" stroke="black" stroke-width="1.90141"/>
<path d="M2.49707 2849.84C46.6436 2818.66 165.166 2774.99 286.082 2849.84C406.999 2924.69 528.015 2881.03 573.409 2849.84C620.049 2817.21 744.608 2771.52 869.714 2849.84C994.821 2928.16 1141.33 2882.48 1198.94 2849.84" stroke="black" stroke-width="1.84507"/>
<path d="M2.5127 2899.92C46.6592 2868.73 165.181 2825.07 286.098 2899.92C407.015 2974.77 528.031 2931.1 573.424 2899.92C620.065 2867.28 744.623 2821.6 869.73 2899.92C994.837 2978.24 1141.34 2932.55 1198.96 2899.92" stroke="black" stroke-width="1.78873"/>
<path d="M2.52686 2949.99C46.6734 2918.8 165.196 2875.14 286.112 2949.99C407.029 3024.84 528.045 2981.18 573.439 2949.99C620.079 2917.36 744.637 2871.67 869.744 2949.99C994.851 3028.31 1141.36 2982.62 1198.97 2949.99" stroke="black" stroke-width="1.73239"/>
<path d="M2.54199 3000.06C46.6885 2968.87 165.211 2925.21 286.127 3000.06C407.044 3074.91 528.06 3031.25 573.454 3000.06C620.094 2967.43 744.652 2921.74 869.759 3000.06C994.866 3078.38 1141.37 3032.7 1198.99 3000.06" stroke="black" stroke-width="1.67606"/>
<path d="M2.55664 3050.14C46.7032 3018.95 165.225 2975.28 286.142 3050.14C407.058 3124.99 528.075 3081.32 573.468 3050.14C620.109 3017.5 744.667 2971.81 869.774 3050.14C994.881 3128.46 1141.39 3082.77 1199 3050.14" stroke="black" stroke-width="1.61972"/>
<path d="M2.5708 3100.21C46.7173 3069.02 165.239 3025.36 286.156 3100.21C407.073 3175.06 528.089 3131.39 573.483 3100.21C620.123 3067.57 744.681 3021.89 869.788 3100.21C994.895 3178.53 1141.4 3132.84 1199.02 3100.21" stroke="black" stroke-width="1.56338"/>
<path d="M2.58545 3150.27C46.732 3119.09 165.254 3075.42 286.171 3150.27C407.087 3225.13 528.104 3181.46 573.497 3150.27C620.138 3117.64 744.696 3071.95 869.803 3150.27C994.909 3228.6 1141.42 3182.91 1199.03 3150.27" stroke="black" stroke-width="1.50704"/>
<path d="M2.6001 3200.35C46.7466 3169.16 165.269 3125.5 286.185 3200.35C407.102 3275.2 528.118 3231.54 573.512 3200.35C620.153 3167.71 744.711 3122.03 869.817 3200.35C994.924 3278.67 1141.43 3232.98 1199.05 3200.35" stroke="black" stroke-width="1.4507"/>
<path d="M2.61426 3250.42C46.7608 3219.23 165.283 3175.57 286.2 3250.42C407.116 3325.27 528.132 3281.61 573.526 3250.42C620.167 3217.79 744.725 3172.1 869.831 3250.42C994.938 3328.74 1141.44 3283.05 1199.06 3250.42" stroke="black" stroke-width="1.39437"/>
<path d="M2.62988 3300.49C46.7764 3269.31 165.299 3225.64 286.215 3300.49C407.132 3375.34 528.148 3331.68 573.542 3300.49C620.182 3267.86 744.74 3222.17 869.847 3300.49C994.954 3378.81 1141.46 3333.13 1199.08 3300.49" stroke="black" stroke-width="1.33803"/>
<path d="M2.64502 3350.57C46.7915 3319.38 165.314 3275.72 286.23 3350.57C407.147 3425.42 528.163 3381.76 573.557 3350.57C620.197 3317.93 744.755 3272.25 869.862 3350.57C994.969 3428.89 1141.48 3383.2 1199.09 3350.57" stroke="black" stroke-width="1.28169"/>
<path d="M2.65918 3400.64C46.8057 3369.45 165.328 3325.79 286.244 3400.64C407.161 3475.49 528.177 3431.83 573.571 3400.64C620.212 3368 744.77 3322.32 869.876 3400.64C994.983 3478.96 1141.49 3433.27 1199.1 3400.64" stroke="black" stroke-width="1.22535"/>
<path d="M2.67383 3450.71C46.8203 3419.52 165.343 3375.86 286.259 3450.71C407.176 3525.56 528.192 3481.89 573.586 3450.71C620.226 3418.07 744.784 3372.39 869.891 3450.71C994.998 3529.03 1141.5 3483.34 1199.12 3450.71" stroke="black" stroke-width="1.16901"/>
<path d="M2.68848 3500.78C46.835 3469.59 165.357 3425.93 286.274 3500.78C407.19 3575.63 528.207 3531.97 573.6 3500.78C620.241 3468.15 744.799 3422.46 869.906 3500.78C995.012 3579.1 1141.52 3533.41 1199.13 3500.78" stroke="black" stroke-width="1.11268"/>
<path d="M2.70264 3550.85C46.8492 3519.66 165.371 3476 286.288 3550.85C407.204 3625.7 528.221 3582.04 573.614 3550.85C620.255 3518.22 744.813 3472.53 869.92 3550.85C995.027 3629.17 1141.53 3583.49 1199.15 3550.85" stroke="black" stroke-width="1.05634"/>
</mask>
<g mask="url(#mask1_493_7042)">
<rect x="-5.52979" y="-8.23682" width="1207.26" height="3654.2" fill="url(#paint1_linear_493_7042)"/>
</g>
<defs>
<linearGradient id="paint0_linear_493_7042" x1="1823.37" y1="-4073.27" x2="1794.54" y2="3645.97" gradientUnits="userSpaceOnUse">
<stop stop-color="#1B5A70"/>
<stop offset="1" stop-color="#1B5A70" stop-opacity="0"/>
</linearGradient>
<linearGradient id="paint1_linear_493_7042" x1="626.929" y1="-4073.27" x2="598.099" y2="3645.97" gradientUnits="userSpaceOnUse">
<stop stop-color="#1B5A70"/>
<stop offset="1" stop-color="#1B5A70" stop-opacity="0"/>
</linearGradient>
</defs>
</svg>
