<svg width="1375" height="234" viewBox="0 0 1375 234" fill="none" xmlns="http://www.w3.org/2000/svg">
<path fill-rule="evenodd" clip-rule="evenodd" d="M1275.56 0H1094.05V25.0359L1190.28 25.0359C1195.58 25.0359 1199.94 28.4733 1200.41 32.8596H1200.46L1240.74 233.147H1258.34H1288.07H1299.86L1348.51 30.7404C1350.14 27.8305 1353.65 25.8183 1357.71 25.8183V25.036H1374.92V0.00013579H1284.94V25.036H1301.37V25.0913C1303.89 25.4517 1305.86 27.5272 1306.05 30.0973L1275.96 158.187L1255.24 30.0164C1255.46 27.484 1257.42 25.4483 1259.91 25.0914V25.0359H1275.56V0ZM1179.32 33.6421C1179.32 28.8891 1183.18 25.036 1187.93 25.036H1179.32H1176.98H1128.47H1126.12H1117.52C1122.27 25.036 1126.12 28.8891 1126.12 33.6421V200.287C1126.12 205.024 1122.3 208.867 1117.57 208.893H1084.29C1087.53 202.685 1089.35 195.629 1089.35 188.146V120.108C1089.35 95.2547 1069.2 75.1075 1044.35 75.1075H901.988C877.135 75.1075 856.988 95.2547 856.988 120.108V188.146C856.988 212.999 877.135 233.146 901.988 233.146H1044.35C1045.28 233.146 1046.19 233.119 1047.1 233.064V233.147L1076.05 233.147L1105.78 233.147L1211.4 233.147V208.893H1187.88C1183.15 208.867 1179.32 205.024 1179.32 200.287V33.6421ZM951.667 96.2316H979.049V169.774L979.05 183.857H979.042C978.733 202.518 967.28 217.885 936.801 217.499C903.551 217.078 894.162 199.896 894.553 183.075L894.554 183.046V169.775H920.36V183.436L920.36 183.466L920.36 183.509V183.857H920.363C920.574 197.158 931.537 197.158 936.007 197.158L936.182 197.158L936.364 197.158C941.034 197.168 951.452 197.19 951.652 183.857H951.654V169.775L951.667 169.774V96.2316ZM1051.8 124.397H1042.41V124.535C1029.17 125.879 1021.97 136.718 1019.72 143.293V126.744H995.467V214.37H1019.72L1019.72 163.516V214.37H1021.29V163.124M1051.8 124.397L1051.8 125.028L1051.8 124.397ZM1051.8 125.028V148.651V125.028ZM1051.8 148.651H1043.19H1051.8ZM1043.19 148.651V148.686V148.651ZM1043.19 148.686C1043.06 148.682 1042.93 148.681 1042.8 148.681L1043.19 148.686ZM1042.8 148.681C1032.05 148.681 1025.9 152.382 1022.9 158.93L1042.8 148.681ZM1022.9 158.93L1022.85 158.851L1022.9 158.93ZM1022.85 158.851V158.881V158.851ZM1022.85 158.881C1022.04 159.995 1021.7 161.429 1021.48 162.384L1022.85 158.881ZM1051.74 172.122L1051.8 172.119V172.057L1051.74 172.122ZM1076.05 222.976V220.086C1075.03 221.099 1073.96 222.064 1072.85 222.976H1076.05ZM898.941 85.2784C881.82 85.2784 867.941 99.1575 867.941 116.278V191.193C867.941 208.314 881.82 222.193 898.941 222.193H1047.4C1064.52 222.193 1078.4 208.314 1078.4 191.193V116.278C1078.4 99.1575 1064.52 85.2784 1047.4 85.2784H898.941ZM53.2024 40.5396H0V232.068H53.2024V232.068H101.676V190.688H53.2024V40.5396ZM762.567 41.7228H710.546V232.069H762.567V232.068H762.567V197.742L798.24 232.068H856.542L792.297 141.166L856.542 79.2583H797.32L762.564 112.702V78.3721H762.567V41.7228ZM637.243 188.447V77.1888H584.043V188.784L584.043 188.914L584.043 189.044V190.687H584.079C585.009 213.698 603.957 232.067 627.196 232.067C627.393 232.067 627.59 232.066 627.786 232.063V232.069H679.806V232.067H702.27V77.1887H650.248V188.447H649.067V189.59H647.883V190.728H645.519V191.867H640.79V190.728H639.607V189.59H638.427V188.447H637.243ZM477.72 41.5615H530.922V191.71H579.396V233.09L530.922 233.09H477.72V41.5615ZM229.362 76.6881V232.067H282.562V232.066H282.564C318.476 232.066 347.589 200.063 347.589 160.584C347.589 160.186 347.586 159.789 347.58 159.393H347.587V111.814H347.751V76.6881H295.569V188.343H294.387V189.52H293.203V190.692H290.84V191.868H286.111V190.692H284.927V189.52H283.747V188.343H282.564V76.6881H229.362ZM472.875 165.863H407.852L407.852 175.321V188.326H408.994V189.508H410.133V190.689H431.808V189.508H432.951V188.326H434.09V175.321H472.875V188.323H472.81C472.854 189.106 472.876 189.894 472.876 190.688C472.876 213.541 454.35 232.067 431.497 232.067H393.664V232.001C371.91 230.776 354.648 212.748 354.647 190.688V190.688V124.481H355.066C354.79 122.55 354.647 120.576 354.647 118.568C354.647 96.5081 371.91 78.4797 393.664 77.2551V77.1887H431.497C454.35 77.1887 472.876 95.715 472.876 118.568C472.876 119.763 472.826 120.947 472.726 122.116H472.875V165.863ZM472.875 175.321V165.863H472.877V175.321H472.875ZM411.275 190.692H430.669V191.874H411.275V190.692ZM410.215 118.569H416.126V119.752H417.308V120.932H418.492V122.115H419.673V133.938H406.668V122.115H407.851V120.932H409.032V119.752H410.215V118.569ZM158.583 165.362H223.607V174.82H184.821V187.826H183.682V189.007H182.54V190.189H160.865V189.007H159.726V187.826H158.583V174.82L158.583 165.362ZM223.607 187.822V174.82H223.608V165.362H223.607V121.615H223.458C223.558 120.446 223.608 119.262 223.608 118.067C223.608 95.2143 205.082 76.6881 182.229 76.6878H182.229H144.396V76.7544C122.643 77.979 105.38 96.0073 105.38 118.068C105.38 120.075 105.523 122.049 105.799 123.98H105.38V190.187V190.188C105.38 212.248 122.643 230.275 144.396 231.5V231.566H182.229V231.566C205.082 231.566 223.608 213.04 223.608 190.187C223.608 189.393 223.586 188.605 223.542 187.822H223.607ZM181.4 190.191H162.006V191.373H181.4V190.191ZM166.859 118.068H160.947V119.251H159.764V120.431H158.585V121.615H157.401V133.437H170.406V121.615H169.225V120.431H168.04V119.251H166.859V118.068Z" fill="#1B5A70"/>
</svg>
