<svg width="1347" height="245" viewBox="0 0 1347 245" fill="none" xmlns="http://www.w3.org/2000/svg">
<path fill-rule="evenodd" clip-rule="evenodd" d="M1168.2 70.0203C1174.22 32.4878 1212.06 0 1264.53 0C1307.51 0 1347 5.49794 1347 51.0891C1347 76.2698 1329.88 108.513 1290.08 120.595C1322.27 127.011 1331.46 141.992 1326.51 172.936C1320.59 209.921 1286.63 243.909 1228.54 243.909C1226.5 243.909 1224.46 243.914 1222.4 243.918C1177.07 244.022 1128.58 244.134 1128.58 193.928C1128.58 164.801 1149.97 130.595 1196.77 119.856C1172.86 112.869 1163.68 98.2315 1168.2 70.0203ZM1298.01 63.4762C1294.01 87.967 1274.02 104.461 1246.53 104.461C1226.54 104.461 1214.05 96.4638 1214.04 75.4717C1214.04 53.9798 1240.53 32.9876 1264.53 32.9876C1290.52 32.9876 1300.62 47.4822 1298.01 63.4762ZM1276.08 167.93C1271.68 193.62 1249.65 210.921 1219.35 210.921C1197.33 210.921 1183.56 202.532 1183.56 180.513C1183.56 157.969 1205.05 135.949 1239.18 135.949C1267.82 135.949 1278.96 151.153 1276.08 167.93ZM1023.62 58.9779H978.633L930.651 241.909H975.135L1023.62 58.9779ZM1102.59 241.909L1047.11 145.181L1142.07 58.9779H1091.59L1002.62 145.181L1051.11 241.909H1102.59ZM54.2727 47.982H0V243.364H54.2727V243.363H103.721V201.151H54.2727V47.982ZM777.907 49.1892H724.841V243.365H777.907V208.347L814.297 243.364H873.773L808.235 150.633L873.773 87.4801H813.36L777.905 121.596V86.5754H777.907V49.1892ZM650.063 198.865V85.3685H595.792V199.218L595.792 199.341L595.792 199.465V201.15H595.829C596.777 224.624 616.107 243.363 639.813 243.363L639.955 243.362L640.088 243.362L640.18 243.361L640.21 243.361C640.279 243.36 640.347 243.36 640.415 243.359V243.364H693.482V243.362H716.398V85.3685H663.329V198.865H662.125V200.031H660.916V201.192H658.505V202.354H653.681V201.192H652.474V200.031H651.27V198.865H650.063ZM487.33 49.0247H541.603V202.194H591.051V244.406L541.603 244.406H487.33V49.0247ZM288.249 84.8579L233.976 84.858V243.363H288.246L288.248 243.363C324.883 243.363 354.581 210.715 354.581 170.442C354.581 170.037 354.578 169.632 354.572 169.227H354.58V120.691H354.746V84.858H301.515V198.759H300.31V199.96H299.101V201.155H296.691V202.355H291.867V201.155H290.659V199.96H289.455V198.759H288.249V84.8579ZM482.388 175.826H416.056L416.056 185.475V198.742H417.222V199.947H418.383V201.152H440.495V199.947H441.66V198.742H442.822V185.475H482.388V198.739H482.321C482.366 199.537 482.389 200.341 482.389 201.151C482.389 224.464 463.49 243.363 440.177 243.363L440.126 243.363H404.045L403.994 243.363L403.943 243.363H401.583V243.295C379.392 242.046 361.782 223.655 361.782 201.151V201.151V133.612H362.209C361.927 131.642 361.782 129.628 361.782 127.581C361.782 105.076 379.392 86.6854 401.583 85.4361V85.3685H403.924L403.994 85.3685L404.063 85.3685H440.177C463.49 85.3686 482.389 104.268 482.389 127.581C482.389 128.8 482.337 130.007 482.236 131.199H482.388V175.826ZM482.388 175.826H482.389V185.475H482.388V175.826ZM419.549 201.155H439.332V202.361H419.549V201.155ZM418.467 127.581H424.497V128.788H425.702V129.992H426.911V131.199H428.115V143.26H414.849V131.199H416.056V129.992H417.26V128.788H418.467V127.581ZM161.773 175.315H228.105V184.964H188.54V198.231H187.377V199.436H186.212V200.641H164.101V199.436H162.939V198.231H161.773V184.964H161.773V175.315ZM228.105 184.964H228.107V175.315H228.105V130.688H227.954C228.055 129.496 228.107 128.289 228.107 127.07C228.107 103.757 209.208 84.8577 185.895 84.8574H185.895H147.301V84.9254C125.11 86.1748 107.5 104.566 107.5 127.07C107.5 129.118 107.646 131.131 107.927 133.101H107.5V200.64V200.64C107.5 223.144 125.11 241.535 147.301 242.784V242.852H149.649L149.712 242.852L149.775 242.852H185.832L185.895 242.852C209.208 242.852 228.107 223.953 228.107 200.64C228.107 199.83 228.084 199.026 228.039 198.228H228.105V184.964ZM185.049 200.644H165.265V201.85H185.049V200.644ZM170.215 127.07H164.185V128.277H162.978V129.481H161.775V130.688H160.567V142.748H173.834V130.688H172.629V129.481H171.421V128.277H170.215V127.07Z" fill="#1B5A70"/>
</svg>
