<svg width="969" height="299" viewBox="0 0 969 299" fill="none" xmlns="http://www.w3.org/2000/svg">
<path fill-rule="evenodd" clip-rule="evenodd" d="M322.068 78.0542V298.316H168.37V76.152H168.386C169.141 33.9366 197.323 0.00100964 245.219 2.15528e-08C292.082 -0.000987545 321.27 33.9365 322.052 76.152H322.068V77.7273L322.069 77.8972L322.068 78.0542ZM271.764 74.7532C271.766 74.6371 271.767 74.5207 271.767 74.4041C271.767 61.8642 264.781 51.6988 245.219 51.6986C226.007 51.6984 218.671 61.8642 218.671 74.4041C218.671 74.5207 218.672 74.6371 218.674 74.7532H218.671V298.315H271.767V74.7532H271.764ZM153.699 298.316V77.8972V76.152H153.682C152.9 33.9365 123.712 -0.000987457 76.8493 2.15528e-08C28.9528 0.00100973 0.77094 33.9366 0.0155825 76.152H0V77.8972V298.316H153.699ZM103.397 74.4041C103.397 74.5207 103.396 74.6371 103.394 74.7532H103.397V156.844C96.9905 149.36 87.4739 144.617 76.8494 144.617C66.2248 144.617 56.7081 149.36 50.3013 156.845V74.7532H50.3045C50.3024 74.6371 50.3014 74.5207 50.3014 74.4041C50.3014 61.8642 57.637 51.6984 76.8493 51.6986C96.411 51.6988 103.397 61.8642 103.397 74.4041ZM103.397 202.252V298.315H50.3013V202.252C56.7081 209.736 66.2248 214.48 76.8494 214.48C87.4739 214.48 96.9905 209.737 103.397 202.252ZM968.984 76.152H969V298.316H815.301V78.0129L815.301 77.8972L815.301 77.7698V76.152H815.317C816.072 33.9366 844.254 0.00100969 892.151 2.15528e-08C939.013 -0.00098749 968.201 33.9365 968.984 76.152ZM918.696 74.7532C918.698 74.6371 918.699 74.5207 918.699 74.4041C918.699 61.8642 911.712 51.6988 892.151 51.6986C872.938 51.6984 865.603 61.8642 865.603 74.4041C865.603 74.5207 865.604 74.6371 865.606 74.7532H865.603V156.844C872.01 149.36 881.526 144.617 892.151 144.617C902.775 144.617 912.292 149.36 918.699 156.845V74.7532H918.696ZM918.699 202.252C912.292 209.736 902.775 214.48 892.151 214.48C881.526 214.48 872.01 209.736 865.603 202.252V298.315H918.699V202.252ZM407.696 55.192H463.891V36.6199V32.8358V4.19193H404.551L404.507 4.19191L404.464 4.19193H403.808V4.1965C370.121 4.63865 333.945 36.9495 333.945 76.1508L333.945 76.151V226.601V228.452H333.972C335.087 266.814 370.653 298.12 403.808 298.555V298.56H463.891V269.916V266.131V247.56H407.701L407.651 247.56L407.601 247.56H406.603V247.537C397.534 247.137 389.806 241.576 386.284 233.719C385.11 231.1 384.403 228.226 384.27 225.203H384.246L384.246 77.5482H384.27C384.671 68.4473 390.269 60.6967 398.17 57.1919C400.766 56.04 403.612 55.3468 406.603 55.215V55.192H407.605L407.651 55.192L407.696 55.192ZM384.945 151.603C384.945 130.767 401.21 113.877 421.274 113.877C441.338 113.877 457.603 130.767 457.603 151.603C457.603 172.438 441.338 189.329 421.274 189.329C401.21 189.329 384.945 172.438 384.945 151.603ZM601.966 167.741C611.528 180.993 617.102 197.256 616.89 214.829C616.074 282.596 549.822 298.315 529.562 298.315L529.443 298.315H483.452V281.077L483.452 247.315H526.533C527.18 247.328 527.84 247.328 528.514 247.314C548.774 246.891 573.575 232.295 565.891 207.145C561.146 191.612 549.472 183.673 536.382 174.772C528.277 169.26 519.628 163.378 511.747 155.097C511.526 154.865 511.305 154.649 511.085 154.449L498.601 140.806C487.359 126.452 480.658 108.372 480.658 88.7262C480.658 42.0392 518.505 4.19193 565.192 4.19193C587.818 4.19193 608.368 13.0812 623.54 27.558L588.466 64.037C582.767 58.4461 575.617 55.4586 565.89 55.4583C548.075 55.4577 531.658 70.1295 531.658 88.2939C531.658 110.383 551.403 124.026 567.959 135.465C574.18 139.765 579.952 143.752 584.055 147.76C584.529 148.223 584.999 148.619 585.466 148.951L589.993 153.349L594.199 157.718L601.962 167.744L601.966 167.741ZM720.287 178.15C768.132 178.15 806.918 138.739 806.918 90.1231C806.918 41.5069 768.132 2.09571 720.287 2.09571C672.443 2.09571 633.657 41.5069 633.657 90.1231C633.657 90.269 633.658 90.4149 633.658 90.5607C633.659 90.6478 633.659 90.7349 633.66 90.822H633.657V298.315H683.26V169.727C694.487 175.129 707.04 178.15 720.287 178.15ZM719.938 127.151C740.195 127.151 756.616 110.416 756.616 89.7739C756.616 69.1313 740.195 52.3972 719.938 52.3972C699.681 52.3972 683.26 69.1313 683.26 89.7739C683.26 110.416 699.681 127.151 719.938 127.151Z" fill="#1B5A70" fill-opacity="0.3"/>
</svg>
