<svg width="2879" height="998" viewBox="0 0 2879 998" fill="none" xmlns="http://www.w3.org/2000/svg">
<path fill-rule="evenodd" clip-rule="evenodd" d="M738.876 32.1979C739.049 32.2781 739.219 32.36 739.383 32.4435C746.148 35.2915 807.385 60.0075 921.344 60.0075C981.114 60.0075 1026.42 46.0371 1074.02 31.2602L1074.24 31.1921C1123.88 15.8551 1175.2 9.15527e-05 1244.64 9.15527e-05C1368.23 9.15527e-05 1435.75 26.0795 1448.08 31.3274C1448.87 31.5796 1449.62 31.8644 1450.3 32.179C1450.32 32.1856 1450.37 32.2069 1450.45 32.2422L1450.45 32.2431C1453.95 33.7376 1515.4 60.0074 1632.88 60.0074C1692.66 60.0074 1737.96 46.037 1785.56 31.2602L1785.78 31.1921C1835.42 15.855 1886.74 0 1956.19 0C2090.68 0 2158.77 30.8851 2161.6 32.1978C2161.68 32.2362 2161.77 32.2749 2161.85 32.3141C2161.94 32.3565 2162.02 32.3995 2162.11 32.4428C2168.87 35.2881 2230.1 60.0074 2344.07 60.0074C2403.84 60.0074 2449.14 46.037 2496.75 31.2602L2496.97 31.1921C2546.61 15.8551 2597.92 0 2667.37 0C2801.86 0 2869.96 30.8851 2872.79 32.1978L2873.03 32.3106C2875.99 33.6784 2879 35.0672 2879 37.5003V45.5003V85.0003L2879 114V997.41H0.000976562V134.913L0.000769322 117.288C0.000288204 81.8588 -0.000467701 26.194 0.000389418 21.5002C0.000389418 19.7238 0.401058 19.9268 3.36515 21.4285L3.36517 21.4285L3.36622 21.429C3.7085 21.6024 4.08496 21.7932 4.49891 22.0002L10.499 25.0002C12.499 26.0002 14.499 27.0002 16.999 28.0002L21.9989 30.0002C22.9778 30.3917 23.8438 30.7138 24.6298 31.0061L24.6311 31.0066L24.6314 31.0067C25.7416 31.4195 26.6921 31.773 27.5755 32.1791C27.5926 32.1857 27.6431 32.2073 27.7271 32.2432L27.7271 32.2432C31.2234 33.7379 92.6739 60.0074 210.159 60.0074C269.929 60.0074 315.232 46.0371 362.838 31.2602L363.058 31.1922C412.697 15.8551 464.012 9.15527e-05 533.459 9.15527e-05C667.952 9.15527e-05 736.047 30.8852 738.876 32.1979Z" fill="#1B5A70"/>
</svg>
