<svg width="2880" height="863" viewBox="0 0 2880 863" fill="none" xmlns="http://www.w3.org/2000/svg">
<path fill-rule="evenodd" clip-rule="evenodd" d="M738.877 32.1979C739.05 32.2781 739.22 32.36 739.384 32.4435C746.149 35.2915 807.386 60.0075 921.344 60.0075C981.115 60.0075 1026.42 46.0371 1074.02 31.2602L1074.24 31.1921C1123.88 15.8551 1175.2 9.15527e-05 1244.64 9.15527e-05C1368.23 9.15527e-05 1435.75 26.0795 1448.09 31.3274C1448.88 31.5796 1449.62 31.8644 1450.3 32.179C1450.32 32.1856 1450.37 32.2069 1450.45 32.2422L1450.45 32.2431C1453.95 33.7376 1515.4 60.0074 1632.89 60.0074C1692.66 60.0074 1737.96 46.037 1785.56 31.2602L1785.78 31.1921C1835.42 15.855 1886.74 0 1956.19 0C2090.68 0 2158.77 30.8851 2161.6 32.1978C2161.69 32.2362 2161.77 32.2749 2161.85 32.3141C2161.94 32.3565 2162.02 32.3995 2162.11 32.4428C2168.87 35.2881 2230.1 60.0074 2344.07 60.0074C2403.84 60.0074 2449.14 46.037 2496.75 31.2602L2496.97 31.1921C2546.61 15.8551 2597.92 0 2667.37 0C2801.86 0 2869.96 30.8851 2872.79 32.1978L2873.03 32.3106C2875.99 33.6784 2879 35.0672 2879 37.5003V45.5003V85.0003L2879 114V863H0.0023662V145C0.00226796 145 0.00216981 145 0.00207173 145L0.00174588 117.288C0.00126477 81.8588 0.000508861 26.194 0.00136598 21.5002C0.00136598 19.7238 0.402035 19.9268 3.36612 21.4285L3.36614 21.4285L3.36719 21.429C3.70948 21.6024 4.08593 21.7932 4.49989 22.0002L10.5 25.0002C12.5 26.0002 14.5 27.0002 17 28.0002L21.9999 30.0002C22.9788 30.3917 23.8448 30.7138 24.6308 31.0061L24.632 31.0066L24.6324 31.0067C25.7425 31.4195 26.693 31.773 27.5765 32.1791C27.5936 32.1857 27.6441 32.2073 27.7281 32.2432L27.7281 32.2432C31.2244 33.7379 92.6749 60.0074 210.16 60.0074C269.93 60.0074 315.233 46.0371 362.839 31.2602L363.059 31.1922C412.698 15.8551 464.013 9.15527e-05 533.46 9.15527e-05C667.953 9.15527e-05 736.048 30.8852 738.877 32.1979Z" fill="#1B5A70"/>
</svg>
