<svg width="1168" height="1558" viewBox="0 0 1168 1558" fill="none" xmlns="http://www.w3.org/2000/svg">
<path fill-rule="evenodd" clip-rule="evenodd" d="M300.17 20.5398C300.104 20.4892 300.035 20.4395 299.965 20.3909C298.818 19.5946 271.219 0.859919 216.71 0.859919C188.563 0.859919 167.765 10.4774 147.647 19.7807L147.647 19.7808L147.557 19.8221C128.263 28.7856 109.902 37.2599 85.677 37.2599C38.0605 37.2599 13.1548 21.325 11.7377 20.4183L11.7355 20.4169C11.7028 20.396 11.6831 20.3834 11.6763 20.3795C11.3182 20.1331 10.9328 19.9186 10.4829 19.6682L10.4824 19.6679C10.1638 19.4906 9.81286 19.2952 9.41611 19.0578L7.38966 17.8446C6.37642 17.238 5.56582 16.6314 4.75523 16.0248L2.3234 14.205C2.16098 14.0835 2.0128 13.9711 1.87765 13.8686L1.86432 13.8585L1.86388 13.8582L1.86387 13.8582C0.662546 12.9473 0.500158 12.8242 0.500158 13.9017C0.49981 16.7489 0.500117 50.5141 0.500312 72.0052L0.500312 72.0059L0.500563 88.8158V524.349H0.5V1557.13H1167.35V524.349H1167.35V70.0114V52.4204V28.46V23.6073C1167.35 22.1327 1166.13 21.2905 1164.94 20.4615L1164.93 20.4592L1164.83 20.3908C1163.69 19.5945 1136.09 0.859863 1081.58 0.859863C1053.43 0.859863 1032.64 10.4756 1012.52 19.7781L1012.52 19.7808L1012.43 19.8221C993.13 28.7856 974.77 37.2599 950.546 37.2599C904.354 37.2599 879.538 22.2654 876.798 20.5394C876.779 20.5256 876.761 20.5119 876.743 20.4983C876.726 20.4859 876.71 20.4736 876.692 20.4613C876.66 20.4376 876.628 20.4141 876.591 20.3908C875.444 19.5945 847.847 0.859863 793.339 0.859863C765.191 0.859863 744.391 10.4774 724.272 19.7808L724.183 19.8221C704.891 28.7856 686.531 37.2599 662.306 37.2599C614.717 37.2599 589.813 21.3438 588.366 20.4194L588.364 20.4177C588.331 20.3963 588.311 20.3834 588.303 20.3794C588.027 20.1886 587.727 20.0158 587.407 19.8628C582.406 16.6795 555.04 0.859919 504.949 0.859919C476.805 0.859919 456.006 10.4774 435.887 19.7808L435.797 19.8221C416.505 28.7856 398.143 37.2599 373.918 37.2599C327.731 37.2599 302.912 22.2674 300.17 20.5398Z" fill="#1B5A70"/>
</svg>
