<svg width="8" height="9" viewBox="0 0 8 9" fill="none" xmlns="http://www.w3.org/2000/svg">
<path d="M4 0.5C3.20888 0.5 2.43552 0.734596 1.77772 1.17412C1.11992 1.61365 0.607234 2.23836 0.304484 2.96927C0.00173307 3.70017 -0.0774802 4.50444 0.0768607 5.28036C0.231202 6.05628 0.612164 6.76902 1.17157 7.32843C1.73098 7.88784 2.44372 8.2688 3.21964 8.42314C3.99556 8.57748 4.79983 8.49827 5.53073 8.19552C6.26164 7.89277 6.88635 7.38008 7.32588 6.72228C7.7654 6.06448 8 5.29112 8 4.5C7.99875 3.43952 7.57693 2.42282 6.82705 1.67295C6.07718 0.923073 5.06048 0.501245 4 0.5ZM4 8.02941C3.30195 8.02941 2.61957 7.82241 2.03917 7.4346C1.45876 7.04678 1.00638 6.49556 0.73925 5.85065C0.472118 5.20573 0.402223 4.49608 0.538407 3.81145C0.67459 3.12681 1.01073 2.49793 1.50433 2.00433C1.99793 1.51073 2.62681 1.17459 3.31145 1.0384C3.99609 0.902222 4.70573 0.972116 5.35065 1.23925C5.99556 1.50638 6.54678 1.95875 6.9346 2.53916C7.32242 3.11957 7.52941 3.80195 7.52941 4.5C7.52837 5.43574 7.15619 6.33286 6.49452 6.99452C5.83286 7.65619 4.93574 8.02837 4 8.02941ZM2.66667 4.5C2.66667 4.77984 2.75472 5.05259 2.91834 5.27961C3.08197 5.50663 3.31288 5.67642 3.57836 5.76491C3.84385 5.8534 4.13044 5.85612 4.39756 5.77268C4.66467 5.68924 4.89876 5.52387 5.06667 5.3C5.10416 5.25008 5.15995 5.21709 5.22177 5.2083C5.28358 5.19951 5.34635 5.21564 5.39627 5.25314C5.4462 5.29063 5.47918 5.34642 5.48797 5.40823C5.49676 5.47005 5.48063 5.53282 5.44314 5.58274C5.21591 5.88554 4.89919 6.10917 4.53781 6.22198C4.17644 6.33478 3.78874 6.33103 3.42961 6.21127C3.07049 6.09151 2.75814 5.8618 2.53681 5.55467C2.31547 5.24754 2.19637 4.87857 2.19637 4.5C2.19637 4.12143 2.31547 3.75245 2.53681 3.44533C2.75814 3.1382 3.07049 2.90849 3.42961 2.78873C3.78874 2.66896 4.17644 2.66522 4.53781 2.77802C4.89919 2.89083 5.21591 3.11446 5.44314 3.41725C5.48063 3.46718 5.49676 3.52995 5.48797 3.59176C5.47918 3.65358 5.4462 3.70937 5.39627 3.74686C5.34635 3.78436 5.28358 3.80048 5.22177 3.79169C5.15995 3.78291 5.10416 3.74992 5.06667 3.7C4.89876 3.47612 4.66467 3.31075 4.39756 3.22731C4.13044 3.14387 3.84385 3.14659 3.57836 3.23509C3.31288 3.32358 3.08197 3.49336 2.91834 3.72039C2.75472 3.94741 2.66667 4.22016 2.66667 4.5Z" fill="white"/>
</svg>
