<svg width="2328" height="2849" viewBox="0 0 2328 2849" fill="none" xmlns="http://www.w3.org/2000/svg">
<mask id="mask0_567_287" style="mask-type:alpha" maskUnits="userSpaceOnUse" x="1162" y="0" width="1166" height="2849">
<path d="M1164 36.7812C1206.87 12.4186 1321.98 -21.6892 1439.41 36.7812C1556.85 95.2516 1674.38 61.1439 1718.47 36.7812C1763.77 11.2891 1884.74 -24.3998 2006.24 36.7812C2127.75 97.9622 2270.03 62.2733 2325.99 36.7812" stroke="black" stroke-width="5"/>
<path d="M1165 2813.88C1207.88 2789.52 1322.99 2755.41 1440.42 2813.88C1557.86 2872.35 1675.39 2838.24 1719.48 2813.88C1764.78 2788.39 1885.75 2752.7 2007.25 2813.88C2128.76 2875.06 2271.04 2839.37 2327 2813.88" stroke="black"/>
<path d="M1164.01 75.8964C1206.89 51.5338 1321.99 17.4261 1439.43 75.8964C1556.86 134.367 1674.4 100.259 1718.48 75.8964C1763.78 50.4043 1884.75 14.7154 2006.26 75.8964C2127.76 137.077 2270.05 101.389 2326 75.8964" stroke="black" stroke-width="4.94366"/>
<path d="M1164.02 115.01C1206.9 90.6471 1322.01 56.5393 1439.44 115.01C1556.88 173.48 1674.41 139.372 1718.5 115.01C1763.8 89.5176 1884.77 53.8287 2006.27 115.01C2127.78 176.191 2270.06 140.502 2326.02 115.01" stroke="black" stroke-width="4.88732"/>
<path d="M1164.04 154.125C1206.91 129.762 1322.02 95.6546 1439.46 154.125C1556.89 212.595 1674.42 178.488 1718.51 154.125C1763.81 128.633 1884.78 92.9439 2006.28 154.125C2127.79 215.306 2270.08 179.617 2326.03 154.125" stroke="black" stroke-width="4.83099"/>
<path d="M1164.05 193.236C1206.93 168.874 1322.04 134.766 1439.47 193.236C1556.91 251.707 1674.44 217.599 1718.52 193.236C1763.82 167.744 1884.79 132.055 2006.3 193.236C2127.8 254.417 2270.09 218.728 2326.05 193.236" stroke="black" stroke-width="4.77465"/>
<path d="M1164.07 232.351C1206.94 207.988 1322.05 173.88 1439.49 232.351C1556.92 290.821 1674.45 256.713 1718.54 232.351C1763.84 206.858 1884.81 171.17 2006.31 232.351C2127.82 293.532 2270.11 257.843 2326.06 232.351" stroke="black" stroke-width="4.71831"/>
<path d="M1164.08 271.466C1206.96 247.103 1322.07 212.995 1439.5 271.466C1556.94 329.936 1674.47 295.828 1718.55 271.466C1763.85 245.974 1884.82 210.285 2006.33 271.466C2127.83 332.647 2270.12 296.958 2326.08 271.466" stroke="black" stroke-width="4.66197"/>
<path d="M1164.1 310.58C1206.97 286.217 1322.08 252.11 1439.52 310.58C1556.95 369.05 1674.48 334.943 1718.57 310.58C1763.87 285.088 1884.84 249.399 2006.34 310.58C2127.85 371.761 2270.13 336.072 2326.09 310.58" stroke="black" stroke-width="4.60563"/>
<path d="M1164.11 349.694C1206.98 325.332 1322.09 291.224 1439.53 349.694C1556.96 408.165 1674.49 374.057 1718.58 349.694C1763.88 324.202 1884.85 288.513 2006.35 349.694C2127.86 410.875 2270.15 375.186 2326.1 349.694" stroke="black" stroke-width="4.5493"/>
<path d="M1164.12 388.809C1207 364.446 1322.11 330.338 1439.54 388.809C1556.98 447.279 1674.51 413.171 1718.6 388.809C1763.89 363.316 1884.87 327.628 2006.37 388.809C2127.87 449.99 2270.16 414.301 2326.12 388.809" stroke="black" stroke-width="4.49296"/>
<path d="M1164.14 427.921C1207.01 403.558 1322.12 369.45 1439.56 427.921C1556.99 486.391 1674.52 452.284 1718.61 427.921C1763.91 402.429 1884.88 366.74 2006.38 427.921C2127.89 489.102 2270.18 453.413 2326.13 427.921" stroke="black" stroke-width="4.43662"/>
<path d="M1164.15 467.035C1207.03 442.672 1322.14 408.565 1439.57 467.035C1557.01 525.505 1674.54 491.398 1718.63 467.035C1763.92 441.543 1884.89 405.854 2006.4 467.035C2127.9 528.216 2270.19 492.527 2326.15 467.035" stroke="black" stroke-width="4.38028"/>
<path d="M1164.17 506.15C1207.04 481.788 1322.15 447.68 1439.58 506.15C1557.02 564.621 1674.55 530.513 1718.64 506.15C1763.94 480.658 1884.91 444.969 2006.41 506.15C2127.92 567.331 2270.2 531.642 2326.16 506.15" stroke="black" stroke-width="4.32394"/>
<path d="M1164.18 545.265C1207.06 520.902 1322.16 486.794 1439.6 545.265C1557.03 603.735 1674.57 569.627 1718.65 545.265C1763.95 519.773 1884.92 484.084 2006.43 545.265C2127.93 606.446 2270.22 570.757 2326.17 545.265" stroke="black" stroke-width="4.26761"/>
<path d="M1164.19 584.378C1207.07 560.016 1322.18 525.908 1439.61 584.378C1557.05 642.849 1674.58 608.741 1718.67 584.378C1763.96 558.886 1884.94 523.197 2006.44 584.378C2127.95 645.559 2270.23 609.87 2326.19 584.378" stroke="black" stroke-width="4.21127"/>
<path d="M1164.21 623.494C1207.08 599.131 1322.19 565.024 1439.63 623.494C1557.06 681.964 1674.6 647.857 1718.68 623.494C1763.98 598.002 1884.95 562.313 2006.46 623.494C2127.96 684.675 2270.25 648.986 2326.2 623.494" stroke="black" stroke-width="4.15493"/>
<path d="M1164.22 662.608C1207.1 638.245 1322.21 604.137 1439.64 662.608C1557.08 721.078 1674.61 686.971 1718.7 662.608C1763.99 637.116 1884.96 601.427 2006.47 662.608C2127.97 723.789 2270.26 688.1 2326.22 662.608" stroke="black" stroke-width="4.09859"/>
<path d="M1164.24 701.72C1207.11 677.357 1322.22 643.249 1439.66 701.72C1557.09 760.19 1674.62 726.082 1718.71 701.72C1764.01 676.228 1884.98 640.539 2006.48 701.72C2127.99 762.901 2270.28 727.212 2326.23 701.72" stroke="black" stroke-width="4.04225"/>
<path d="M1164.25 740.833C1207.13 716.471 1322.24 682.363 1439.67 740.833C1557.11 799.304 1674.64 765.196 1718.72 740.833C1764.02 715.341 1884.99 679.652 2006.5 740.833C2128 802.014 2270.29 766.326 2326.25 740.833" stroke="black" stroke-width="3.98592"/>
<path d="M1164.27 779.949C1207.14 755.586 1322.25 721.478 1439.69 779.949C1557.12 838.419 1674.65 804.311 1718.74 779.949C1764.04 754.457 1885.01 718.768 2006.51 779.949C2128.02 841.13 2270.3 805.441 2326.26 779.949" stroke="black" stroke-width="3.92958"/>
<path d="M1164.28 819.063C1207.15 794.7 1322.26 760.593 1439.7 819.063C1557.13 877.533 1674.67 843.426 1718.75 819.063C1764.05 793.571 1885.02 757.882 2006.53 819.063C2128.03 880.244 2270.32 844.555 2326.27 819.063" stroke="black" stroke-width="3.87324"/>
<path d="M1164.29 858.178C1207.17 833.815 1322.28 799.707 1439.71 858.178C1557.15 916.648 1674.68 882.54 1718.77 858.178C1764.06 832.686 1885.04 796.997 2006.54 858.178C2128.04 919.359 2270.33 883.67 2326.29 858.178" stroke="black" stroke-width="3.8169"/>
<path d="M1164.31 897.291C1207.18 872.929 1322.29 838.821 1439.73 897.291C1557.16 955.762 1674.69 921.654 1718.78 897.291C1764.08 871.799 1885.05 836.11 2006.55 897.291C2128.06 958.472 2270.35 922.784 2326.3 897.291" stroke="black" stroke-width="3.76056"/>
<path d="M1164.32 936.404C1207.2 912.041 1322.31 877.933 1439.74 936.404C1557.18 994.874 1674.71 960.766 1718.8 936.404C1764.09 910.912 1885.06 875.223 2006.57 936.404C2128.07 997.585 2270.36 961.896 2326.32 936.404" stroke="black" stroke-width="3.70423"/>
<path d="M1164.34 975.518C1207.21 951.155 1322.32 917.048 1439.76 975.518C1557.19 1033.99 1674.72 999.881 1718.81 975.518C1764.11 950.026 1885.08 914.337 2006.58 975.518C2128.09 1036.7 2270.37 1001.01 2326.33 975.518" stroke="black" stroke-width="3.64789"/>
<path d="M1164.35 1014.63C1207.23 990.27 1322.34 956.162 1439.77 1014.63C1557.21 1073.1 1674.74 1038.99 1718.82 1014.63C1764.12 989.14 1885.09 953.451 2006.6 1014.63C2128.1 1075.81 2270.39 1040.12 2326.35 1014.63" stroke="black" stroke-width="3.59155"/>
<path d="M1164.36 1053.75C1207.24 1029.38 1322.35 995.277 1439.78 1053.75C1557.22 1112.22 1674.75 1078.11 1718.84 1053.75C1764.13 1028.26 1885.11 992.566 2006.61 1053.75C2128.12 1114.93 2270.4 1079.24 2326.36 1053.75" stroke="black" stroke-width="3.53521"/>
<path d="M1164.38 1092.86C1207.25 1068.5 1322.36 1034.39 1439.8 1092.86C1557.23 1151.33 1674.77 1117.22 1718.85 1092.86C1764.15 1067.37 1885.12 1031.68 2006.63 1092.86C2128.13 1154.04 2270.42 1118.35 2326.37 1092.86" stroke="black" stroke-width="3.47887"/>
<path d="M1164.39 1131.98C1207.27 1107.61 1322.38 1073.51 1439.81 1131.98C1557.25 1190.45 1674.78 1156.34 1718.87 1131.98C1764.16 1106.48 1885.13 1070.8 2006.64 1131.98C2128.14 1193.16 2270.43 1157.47 2326.39 1131.98" stroke="black" stroke-width="3.42254"/>
<path d="M1164.41 1171.09C1207.28 1146.73 1322.39 1112.62 1439.83 1171.09C1557.26 1229.56 1674.79 1195.45 1718.88 1171.09C1764.18 1145.6 1885.15 1109.91 2006.65 1171.09C2128.16 1232.27 2270.45 1196.58 2326.4 1171.09" stroke="black" stroke-width="3.3662"/>
<path d="M1164.42 1210.2C1207.3 1185.84 1322.41 1151.73 1439.84 1210.2C1557.28 1268.67 1674.81 1234.57 1718.89 1210.2C1764.19 1184.71 1885.16 1149.02 2006.67 1210.2C2128.17 1271.38 2270.46 1235.7 2326.42 1210.2" stroke="black" stroke-width="3.30986"/>
<path d="M1164.44 1249.32C1207.31 1224.96 1322.42 1190.85 1439.86 1249.32C1557.29 1307.79 1674.82 1273.68 1718.91 1249.32C1764.21 1223.83 1885.18 1188.14 2006.68 1249.32C2128.19 1310.5 2270.48 1274.81 2326.43 1249.32" stroke="black" stroke-width="3.25352"/>
<path d="M1164.45 1288.43C1207.33 1264.07 1322.44 1229.96 1439.87 1288.43C1557.3 1346.9 1674.84 1312.8 1718.92 1288.43C1764.22 1262.94 1885.19 1227.25 2006.7 1288.43C2128.2 1349.61 2270.49 1313.92 2326.45 1288.43" stroke="black" stroke-width="3.19718"/>
<path d="M1164.46 1327.55C1207.34 1303.18 1322.45 1269.08 1439.88 1327.55C1557.32 1386.02 1674.85 1351.91 1718.94 1327.55C1764.23 1302.05 1885.21 1266.37 2006.71 1327.55C2128.21 1388.73 2270.5 1353.04 2326.46 1327.55" stroke="black" stroke-width="3.14085"/>
<path d="M1164.48 1366.66C1207.35 1342.3 1322.46 1308.19 1439.9 1366.66C1557.33 1425.13 1674.86 1391.02 1718.95 1366.66C1764.25 1341.17 1885.22 1305.48 2006.73 1366.66C2128.23 1427.84 2270.52 1392.15 2326.47 1366.66" stroke="black" stroke-width="3.08451"/>
<path d="M1164.49 1405.77C1207.37 1381.41 1322.48 1347.3 1439.91 1405.77C1557.35 1464.25 1674.88 1430.14 1718.97 1405.77C1764.26 1380.28 1885.24 1344.59 2006.74 1405.77C2128.24 1466.96 2270.53 1431.27 2326.49 1405.77" stroke="black" stroke-width="3.02817"/>
<path d="M1164.51 1444.89C1207.38 1420.52 1322.49 1386.42 1439.93 1444.89C1557.36 1503.36 1674.89 1469.25 1718.98 1444.89C1764.28 1419.4 1885.25 1383.71 2006.75 1444.89C2128.26 1506.07 2270.55 1470.38 2326.5 1444.89" stroke="black" stroke-width="2.97183"/>
<path d="M1164.52 1484C1207.4 1459.64 1322.51 1425.53 1439.94 1484C1557.38 1542.47 1674.91 1508.36 1718.99 1484C1764.29 1458.51 1885.26 1422.82 2006.77 1484C2128.27 1545.18 2270.56 1509.49 2326.52 1484" stroke="black" stroke-width="2.91549"/>
<path d="M1164.54 1523.12C1207.41 1498.75 1322.52 1464.65 1439.96 1523.12C1557.39 1581.59 1674.92 1547.48 1719.01 1523.12C1764.31 1497.62 1885.28 1461.94 2006.78 1523.12C2128.29 1584.3 2270.58 1548.61 2326.53 1523.12" stroke="black" stroke-width="2.85915"/>
<path d="M1164.55 1562.23C1207.43 1537.87 1322.53 1503.76 1439.97 1562.23C1557.4 1620.7 1674.94 1586.59 1719.02 1562.23C1764.32 1536.74 1885.29 1501.05 2006.8 1562.23C2128.3 1623.41 2270.59 1587.72 2326.54 1562.23" stroke="black" stroke-width="2.80282"/>
<path d="M1164.56 1601.35C1207.44 1576.98 1322.55 1542.87 1439.98 1601.35C1557.42 1659.82 1674.95 1625.71 1719.04 1601.35C1764.34 1575.85 1885.31 1540.16 2006.81 1601.35C2128.32 1662.53 2270.6 1626.84 2326.56 1601.35" stroke="black" stroke-width="2.74648"/>
<path d="M1164.58 1640.46C1207.45 1616.1 1322.56 1581.99 1440 1640.46C1557.43 1698.93 1674.96 1664.82 1719.05 1640.46C1764.35 1614.97 1885.32 1579.28 2006.82 1640.46C2128.33 1701.64 2270.62 1665.95 2326.57 1640.46" stroke="black" stroke-width="2.69014"/>
<path d="M1164.59 1679.57C1207.47 1655.21 1322.58 1621.1 1440.01 1679.57C1557.45 1738.04 1674.98 1703.93 1719.06 1679.57C1764.36 1654.08 1885.33 1618.39 2006.84 1679.57C2128.34 1740.75 2270.63 1705.06 2326.59 1679.57" stroke="black" stroke-width="2.6338"/>
<path d="M1164.61 1718.69C1207.48 1694.32 1322.59 1660.22 1440.03 1718.69C1557.46 1777.16 1674.99 1743.05 1719.08 1718.69C1764.38 1693.19 1885.35 1657.5 2006.85 1718.69C2128.36 1779.87 2270.65 1744.18 2326.6 1718.69" stroke="black" stroke-width="2.57746"/>
<path d="M1164.62 1757.8C1207.5 1733.44 1322.61 1699.33 1440.04 1757.8C1557.48 1816.27 1675.01 1782.16 1719.09 1757.8C1764.39 1732.31 1885.36 1696.62 2006.87 1757.8C2128.37 1818.98 2270.66 1783.29 2326.62 1757.8" stroke="black" stroke-width="2.52113"/>
<path d="M1164.64 1796.91C1207.51 1772.55 1322.62 1738.44 1440.06 1796.91C1557.49 1855.39 1675.02 1821.28 1719.11 1796.91C1764.41 1771.42 1885.38 1735.73 2006.88 1796.91C2128.39 1858.1 2270.67 1822.41 2326.63 1796.91" stroke="black" stroke-width="2.46479"/>
<path d="M1164.65 1836.03C1207.53 1811.67 1322.64 1777.56 1440.07 1836.03C1557.5 1894.5 1675.04 1860.39 1719.12 1836.03C1764.42 1810.54 1885.39 1774.85 2006.9 1836.03C2128.4 1897.21 2270.69 1861.52 2326.65 1836.03" stroke="black" stroke-width="2.40845"/>
<path d="M1164.66 1875.14C1207.54 1850.78 1322.65 1816.67 1440.08 1875.14C1557.52 1933.61 1675.05 1899.51 1719.14 1875.14C1764.43 1849.65 1885.41 1813.96 2006.91 1875.14C2128.41 1936.33 2270.7 1900.64 2326.66 1875.14" stroke="black" stroke-width="2.35211"/>
<path d="M1164.68 1914.26C1207.55 1889.9 1322.66 1855.79 1440.1 1914.26C1557.53 1972.73 1675.06 1938.62 1719.15 1914.26C1764.45 1888.77 1885.42 1853.08 2006.92 1914.26C2128.43 1975.44 2270.72 1939.75 2326.67 1914.26" stroke="black" stroke-width="2.29577"/>
<path d="M1164.69 1953.37C1207.57 1929.01 1322.68 1894.9 1440.11 1953.37C1557.55 2011.84 1675.08 1977.73 1719.17 1953.37C1764.46 1927.88 1885.43 1892.19 2006.94 1953.37C2128.44 2014.55 2270.73 1978.86 2326.69 1953.37" stroke="black" stroke-width="2.23944"/>
<path d="M1164.71 1992.48C1207.58 1968.12 1322.69 1934.01 1440.12 1992.48C1557.56 2050.95 1675.09 2016.85 1719.18 1992.48C1764.48 1966.99 1885.45 1931.3 2006.95 1992.48C2128.46 2053.66 2270.74 2017.98 2326.7 1992.48" stroke="black" stroke-width="2.1831"/>
<path d="M1164.72 2031.6C1207.6 2007.24 1322.7 1973.13 1440.14 2031.6C1557.57 2090.07 1675.11 2055.96 1719.19 2031.6C1764.49 2006.11 1885.46 1970.42 2006.97 2031.6C2128.47 2092.78 2270.76 2057.09 2326.71 2031.6" stroke="black" stroke-width="2.12676"/>
<path d="M1164.73 2070.71C1207.61 2046.35 1322.72 2012.24 1440.15 2070.71C1557.59 2129.18 1675.12 2095.08 1719.21 2070.71C1764.5 2045.22 1885.48 2009.53 2006.98 2070.71C2128.49 2131.89 2270.77 2096.21 2326.73 2070.71" stroke="black" stroke-width="2.07042"/>
<path d="M1164.75 2109.83C1207.62 2085.47 1322.73 2051.36 1440.17 2109.83C1557.6 2168.3 1675.14 2134.19 1719.22 2109.83C1764.52 2084.34 1885.49 2048.65 2007 2109.83C2128.5 2171.01 2270.79 2135.32 2326.74 2109.83" stroke="black" stroke-width="2.01408"/>
<path d="M1164.76 2148.94C1207.64 2124.58 1322.75 2090.47 1440.18 2148.94C1557.62 2207.41 1675.15 2173.3 1719.24 2148.94C1764.53 2123.45 1885.51 2087.76 2007.01 2148.94C2128.51 2210.12 2270.8 2174.43 2326.76 2148.94" stroke="black" stroke-width="1.95775"/>
<path d="M1164.78 2188.06C1207.65 2163.69 1322.76 2129.58 1440.2 2188.06C1557.63 2246.53 1675.16 2212.42 1719.25 2188.06C1764.55 2162.56 1885.52 2126.87 2007.02 2188.06C2128.53 2249.24 2270.82 2213.55 2326.77 2188.06" stroke="black" stroke-width="1.90141"/>
<path d="M1164.79 2227.17C1207.67 2202.81 1322.78 2168.7 1440.21 2227.17C1557.65 2285.64 1675.18 2251.53 1719.26 2227.17C1764.56 2201.68 1885.53 2165.99 2007.04 2227.17C2128.54 2288.35 2270.83 2252.66 2326.79 2227.17" stroke="black" stroke-width="1.84507"/>
<path d="M1164.81 2266.28C1207.68 2241.92 1322.79 2207.81 1440.23 2266.28C1557.66 2324.75 1675.19 2290.64 1719.28 2266.28C1764.58 2240.79 1885.55 2205.1 2007.05 2266.28C2128.56 2327.46 2270.84 2291.77 2326.8 2266.28" stroke="black" stroke-width="1.78873"/>
<path d="M1164.82 2305.4C1207.69 2281.04 1322.8 2246.93 1440.24 2305.4C1557.67 2363.87 1675.2 2329.76 1719.29 2305.4C1764.59 2279.91 1885.56 2244.22 2007.06 2305.4C2128.57 2366.58 2270.86 2330.89 2326.81 2305.4" stroke="black" stroke-width="1.73239"/>
<path d="M1164.83 2344.51C1207.71 2320.15 1322.82 2286.04 1440.25 2344.51C1557.69 2402.98 1675.22 2368.88 1719.31 2344.51C1764.61 2319.02 1885.58 2283.33 2007.08 2344.51C2128.59 2405.69 2270.87 2370 2326.83 2344.51" stroke="black" stroke-width="1.67606"/>
<path d="M1164.85 2383.63C1207.72 2359.27 1322.83 2325.16 1440.27 2383.63C1557.7 2442.1 1675.23 2407.99 1719.32 2383.63C1764.62 2358.14 1885.59 2322.45 2007.1 2383.63C2128.6 2444.81 2270.89 2409.12 2326.84 2383.63" stroke="black" stroke-width="1.61972"/>
<path d="M1164.86 2422.74C1207.74 2398.38 1322.85 2364.27 1440.28 2422.74C1557.72 2481.21 1675.25 2447.1 1719.34 2422.74C1764.63 2397.25 1885.6 2361.56 2007.11 2422.74C2128.61 2483.92 2270.9 2448.23 2326.86 2422.74" stroke="black" stroke-width="1.56338"/>
<path d="M1164.88 2461.85C1207.75 2437.49 1322.86 2403.38 1440.3 2461.85C1557.73 2520.32 1675.26 2486.22 1719.35 2461.85C1764.65 2436.36 1885.62 2400.67 2007.12 2461.85C2128.63 2523.03 2270.92 2487.34 2326.87 2461.85" stroke="black" stroke-width="1.50704"/>
<path d="M1164.89 2500.97C1207.77 2476.61 1322.88 2442.5 1440.31 2500.97C1557.75 2559.44 1675.28 2525.33 1719.36 2500.97C1764.66 2475.48 1885.63 2439.79 2007.14 2500.97C2128.64 2562.15 2270.93 2526.46 2326.89 2500.97" stroke="black" stroke-width="1.4507"/>
<path d="M1164.91 2540.08C1207.78 2515.72 1322.89 2481.61 1440.32 2540.08C1557.76 2598.55 1675.29 2564.45 1719.38 2540.08C1764.68 2514.59 1885.65 2478.9 2007.15 2540.08C2128.66 2601.26 2270.94 2565.58 2326.9 2540.08" stroke="black" stroke-width="1.39437"/>
<path d="M1164.92 2579.2C1207.79 2554.83 1322.9 2520.73 1440.34 2579.2C1557.77 2637.67 1675.31 2603.56 1719.39 2579.2C1764.69 2553.7 1885.66 2518.02 2007.17 2579.2C2128.67 2640.38 2270.96 2604.69 2326.91 2579.2" stroke="black" stroke-width="1.33803"/>
<path d="M1164.93 2618.31C1207.81 2593.95 1322.92 2559.84 1440.35 2618.31C1557.79 2676.78 1675.32 2642.67 1719.41 2618.31C1764.71 2592.82 1885.68 2557.13 2007.18 2618.31C2128.69 2679.49 2270.97 2643.8 2326.93 2618.31" stroke="black" stroke-width="1.28169"/>
<path d="M1164.95 2657.42C1207.82 2633.06 1322.93 2598.95 1440.37 2657.42C1557.8 2715.9 1675.33 2681.79 1719.42 2657.42C1764.72 2631.93 1885.69 2596.24 2007.19 2657.42C2128.7 2718.61 2270.99 2682.92 2326.94 2657.42" stroke="black" stroke-width="1.22535"/>
<path d="M1164.96 2696.54C1207.84 2672.17 1322.95 2638.07 1440.38 2696.54C1557.82 2755.01 1675.35 2720.9 1719.43 2696.54C1764.73 2671.04 1885.7 2635.36 2007.21 2696.54C2128.71 2757.72 2271 2722.03 2326.96 2696.54" stroke="black" stroke-width="1.16901"/>
<path d="M1164.98 2735.65C1207.85 2711.29 1322.96 2677.18 1440.4 2735.65C1557.83 2794.12 1675.36 2760.01 1719.45 2735.65C1764.75 2710.16 1885.72 2674.47 2007.22 2735.65C2128.73 2796.83 2271.02 2761.14 2326.97 2735.65" stroke="black" stroke-width="1.11268"/>
<path d="M1164.99 2774.77C1207.87 2750.4 1322.98 2716.3 1440.41 2774.77C1557.85 2833.24 1675.38 2799.13 1719.46 2774.77C1764.76 2749.27 1885.73 2713.59 2007.24 2774.77C2128.74 2835.95 2271.03 2800.26 2326.99 2774.77" stroke="black" stroke-width="1.05634"/>
</mask>
<g mask="url(#mask0_567_287)">
<rect x="1157" y="-5.44531" width="1172.5" height="2854.51" fill="url(#paint0_linear_567_287)" fill-opacity="0.3"/>
</g>
<mask id="mask1_567_287" style="mask-type:alpha" maskUnits="userSpaceOnUse" x="0" y="0" width="1166" height="2849">
<path d="M2 36.7812C44.8754 12.4186 159.985 -21.6892 277.42 36.7812C394.855 95.2516 512.386 61.1439 556.473 36.7812C601.771 11.2891 722.742 -24.3998 844.247 36.7812C965.751 97.9622 1108.04 62.2733 1164 36.7812" stroke="black" stroke-width="5"/>
<path d="M3.00977 2813.88C45.8851 2789.52 160.995 2755.41 278.429 2813.88C395.864 2872.35 513.396 2838.24 557.483 2813.88C602.78 2788.39 723.752 2752.7 845.256 2813.88C966.761 2875.06 1109.05 2839.37 1165 2813.88" stroke="black"/>
<path d="M2.01465 75.8964C44.89 51.5338 159.999 17.4261 277.434 75.8964C394.869 134.367 512.401 100.259 556.488 75.8964C601.785 50.4043 722.757 14.7154 844.261 75.8964C965.766 137.077 1108.05 101.389 1164.01 75.8964" stroke="black" stroke-width="4.94366"/>
<path d="M2.02734 115.01C44.9027 90.6471 160.012 56.5393 277.447 115.01C394.882 173.48 512.414 139.372 556.5 115.01C601.798 89.5176 722.769 53.8287 844.274 115.01C965.778 176.191 1108.07 140.502 1164.02 115.01" stroke="black" stroke-width="4.88732"/>
<path d="M2.04395 154.125C44.9193 129.762 160.029 95.6546 277.464 154.125C394.899 212.595 512.43 178.488 556.517 154.125C601.815 128.633 722.786 92.9439 844.29 154.125C965.795 215.306 1108.08 179.617 1164.04 154.125" stroke="black" stroke-width="4.83099"/>
<path d="M2.05664 193.236C44.932 168.874 160.041 134.766 277.476 193.236C394.911 251.707 512.443 217.599 556.53 193.236C601.827 167.744 722.799 132.055 844.303 193.236C965.808 254.417 1108.1 218.728 1164.05 193.236" stroke="black" stroke-width="4.77465"/>
<path d="M2.07129 232.351C44.9467 207.988 160.056 173.88 277.491 232.351C394.926 290.821 512.458 256.713 556.544 232.351C601.842 206.858 722.813 171.17 844.318 232.351C965.822 293.532 1108.11 257.843 1164.07 232.351" stroke="black" stroke-width="4.71831"/>
<path d="M2.08594 271.466C44.9613 247.103 160.071 212.995 277.506 271.466C394.941 329.936 512.472 295.828 556.559 271.466C601.857 245.974 722.828 210.285 844.332 271.466C965.837 332.647 1108.12 296.958 1164.08 271.466" stroke="black" stroke-width="4.66197"/>
<path d="M2.10059 310.58C44.9759 286.217 160.085 252.11 277.52 310.58C394.955 369.05 512.487 334.943 556.573 310.58C601.871 285.088 722.843 249.399 844.347 310.58C965.852 371.761 1108.14 336.072 1164.1 310.58" stroke="black" stroke-width="4.60563"/>
<path d="M2.11328 349.694C44.9886 325.332 160.098 291.224 277.533 349.694C394.968 408.165 512.5 374.057 556.586 349.694C601.884 324.202 722.855 288.513 844.36 349.694C965.864 410.875 1108.15 375.186 1164.11 349.694" stroke="black" stroke-width="4.5493"/>
<path d="M2.12793 388.809C45.0033 364.446 160.113 330.338 277.548 388.809C394.983 447.279 512.514 413.171 556.601 388.809C601.899 363.316 722.87 327.628 844.374 388.809C965.879 449.99 1108.17 414.301 1164.12 388.809" stroke="black" stroke-width="4.49296"/>
<path d="M2.14355 427.921C45.0189 403.558 160.128 369.45 277.563 427.921C394.998 486.391 512.53 452.284 556.616 427.921C601.914 402.429 722.886 366.74 844.39 427.921C965.895 489.102 1108.18 453.413 1164.14 427.921" stroke="black" stroke-width="4.43662"/>
<path d="M2.15723 467.035C45.0326 442.672 160.142 408.565 277.577 467.035C395.012 525.505 512.544 491.398 556.63 467.035C601.928 441.543 722.899 405.854 844.404 467.035C965.908 528.216 1108.2 492.527 1164.15 467.035" stroke="black" stroke-width="4.38028"/>
<path d="M2.16992 506.15C45.0453 481.788 160.155 447.68 277.59 506.15C395.025 564.621 512.556 530.513 556.643 506.15C601.941 480.658 722.912 444.969 844.416 506.15C965.921 567.331 1108.21 531.642 1164.16 506.15" stroke="black" stroke-width="4.32394"/>
<path d="M2.18457 545.265C45.0599 520.902 160.169 486.794 277.604 545.265C395.039 603.735 512.571 569.627 556.657 545.265C601.955 519.773 722.927 484.084 844.431 545.265C965.936 606.446 1108.22 570.757 1164.18 545.265" stroke="black" stroke-width="4.26761"/>
<path d="M2.19922 584.378C45.0746 560.016 160.184 525.908 277.619 584.378C395.054 642.849 512.586 608.741 556.672 584.378C601.97 558.886 722.941 523.197 844.446 584.378C965.95 645.559 1108.24 609.87 1164.19 584.378" stroke="black" stroke-width="4.21127"/>
<path d="M2.21387 623.494C45.0892 599.131 160.199 565.024 277.634 623.494C395.068 681.964 512.6 647.857 556.687 623.494C601.984 598.002 722.956 562.313 844.46 623.494C965.965 684.675 1108.25 648.986 1164.21 623.494" stroke="black" stroke-width="4.15493"/>
<path d="M2.22754 662.608C45.1029 638.245 160.212 604.137 277.647 662.608C395.082 721.078 512.614 686.971 556.7 662.608C601.998 637.116 722.97 601.427 844.474 662.608C965.978 723.789 1108.27 688.1 1164.22 662.608" stroke="black" stroke-width="4.09859"/>
<path d="M2.24219 701.72C45.1176 677.357 160.227 643.249 277.662 701.72C395.097 760.19 512.629 726.082 556.715 701.72C602.013 676.228 722.984 640.539 844.489 701.72C965.993 762.901 1108.28 727.212 1164.24 701.72" stroke="black" stroke-width="4.04225"/>
<path d="M2.25684 740.833C45.1322 716.471 160.242 682.363 277.677 740.833C395.111 799.304 512.643 765.196 556.73 740.833C602.027 715.341 722.999 679.652 844.503 740.833C966.008 802.014 1108.3 766.326 1164.25 740.833" stroke="black" stroke-width="3.98592"/>
<path d="M2.27051 779.949C45.1459 755.586 160.255 721.478 277.69 779.949C395.125 838.419 512.657 804.311 556.743 779.949C602.041 754.457 723.013 718.768 844.517 779.949C966.021 841.13 1108.31 805.441 1164.27 779.949" stroke="black" stroke-width="3.92958"/>
<path d="M2.28613 819.063C45.1615 794.7 160.271 760.593 277.706 819.063C395.141 877.533 512.672 843.426 556.759 819.063C602.057 793.571 723.028 757.882 844.533 819.063C966.037 880.244 1108.33 844.555 1164.28 819.063" stroke="black" stroke-width="3.87324"/>
<path d="M2.29883 858.178C45.1742 833.815 160.284 799.707 277.719 858.178C395.153 916.648 512.685 882.54 556.772 858.178C602.069 832.686 723.041 796.997 844.545 858.178C966.05 919.359 1108.34 883.67 1164.29 858.178" stroke="black" stroke-width="3.8169"/>
<path d="M2.3125 897.291C45.1879 872.929 160.297 838.821 277.732 897.291C395.167 955.762 512.699 921.654 556.785 897.291C602.083 871.799 723.055 836.11 844.559 897.291C966.063 958.472 1108.35 922.784 1164.31 897.291" stroke="black" stroke-width="3.76056"/>
<path d="M2.32715 936.404C45.2025 912.041 160.312 877.933 277.747 936.404C395.182 994.874 512.714 960.766 556.8 936.404C602.098 910.912 723.069 875.223 844.574 936.404C966.078 997.585 1108.37 961.896 1164.32 936.404" stroke="black" stroke-width="3.70423"/>
<path d="M2.33984 975.518C45.2152 951.155 160.325 917.048 277.76 975.518C395.194 1033.99 512.726 999.881 556.813 975.518C602.11 950.026 723.082 914.337 844.586 975.518C966.091 1036.7 1108.38 1001.01 1164.33 975.518" stroke="black" stroke-width="3.64789"/>
<path d="M2.35449 1014.63C45.2299 990.27 160.339 956.162 277.774 1014.63C395.209 1073.1 512.741 1038.99 556.827 1014.63C602.125 989.14 723.097 953.451 844.601 1014.63C966.105 1075.81 1108.39 1040.12 1164.35 1014.63" stroke="black" stroke-width="3.59155"/>
<path d="M2.36914 1053.75C45.2445 1029.38 160.354 995.277 277.789 1053.75C395.224 1112.22 512.756 1078.11 556.842 1053.75C602.14 1028.26 723.111 992.566 844.616 1053.75C966.12 1114.93 1108.41 1079.24 1164.36 1053.75" stroke="black" stroke-width="3.53521"/>
<path d="M2.38379 1092.86C45.2592 1068.5 160.369 1034.39 277.803 1092.86C395.238 1151.33 512.77 1117.22 556.857 1092.86C602.154 1067.37 723.126 1031.68 844.63 1092.86C966.135 1154.04 1108.42 1118.35 1164.38 1092.86" stroke="black" stroke-width="3.47887"/>
<path d="M2.39746 1131.98C45.2728 1107.61 160.382 1073.51 277.817 1131.98C395.252 1190.45 512.784 1156.34 556.87 1131.98C602.168 1106.48 723.14 1070.8 844.644 1131.98C966.148 1193.16 1108.44 1157.47 1164.39 1131.98" stroke="black" stroke-width="3.42254"/>
<path d="M2.41211 1171.09C45.2875 1146.73 160.397 1112.62 277.832 1171.09C395.267 1229.56 512.798 1195.45 556.885 1171.09C602.183 1145.6 723.154 1109.91 844.659 1171.09C966.163 1232.27 1108.45 1196.58 1164.41 1171.09" stroke="black" stroke-width="3.3662"/>
<path d="M2.42676 1210.2C45.3021 1185.84 160.412 1151.73 277.846 1210.2C395.281 1268.67 512.813 1234.57 556.9 1210.2C602.197 1184.71 723.169 1149.02 844.673 1210.2C966.178 1271.38 1108.47 1235.7 1164.42 1210.2" stroke="black" stroke-width="3.30986"/>
<path d="M2.44141 1249.32C45.3168 1224.96 160.426 1190.85 277.861 1249.32C395.296 1307.79 512.828 1273.68 556.914 1249.32C602.212 1223.83 723.184 1188.14 844.688 1249.32C966.192 1310.5 1108.48 1274.81 1164.44 1249.32" stroke="black" stroke-width="3.25352"/>
<path d="M2.45605 1288.43C45.3314 1264.07 160.441 1229.96 277.876 1288.43C395.311 1346.9 512.842 1312.8 556.929 1288.43C602.227 1262.94 723.198 1227.25 844.703 1288.43C966.207 1349.61 1108.5 1313.92 1164.45 1288.43" stroke="black" stroke-width="3.19718"/>
<path d="M2.46777 1327.55C45.3431 1303.18 160.453 1269.08 277.887 1327.55C395.322 1386.02 512.854 1351.91 556.941 1327.55C602.238 1302.05 723.21 1266.37 844.714 1327.55C966.219 1388.73 1108.51 1353.04 1164.46 1327.55" stroke="black" stroke-width="3.14085"/>
<path d="M2.4834 1366.66C45.3588 1342.3 160.468 1308.19 277.903 1366.66C395.338 1425.13 512.87 1391.02 556.956 1366.66C602.254 1341.17 723.226 1305.48 844.73 1366.66C966.234 1427.84 1108.52 1392.15 1164.48 1366.66" stroke="black" stroke-width="3.08451"/>
<path d="M2.5 1405.77C45.3754 1381.41 160.485 1347.3 277.92 1405.77C395.355 1464.25 512.886 1430.14 556.973 1405.77C602.271 1380.28 723.242 1344.59 844.747 1405.77C966.251 1466.96 1108.54 1431.27 1164.5 1405.77" stroke="black" stroke-width="3.02817"/>
<path d="M2.5127 1444.89C45.3881 1420.52 160.498 1386.42 277.932 1444.89C395.367 1503.36 512.899 1469.25 556.986 1444.89C602.283 1419.4 723.255 1383.71 844.759 1444.89C966.264 1506.07 1108.55 1470.38 1164.51 1444.89" stroke="black" stroke-width="2.97183"/>
<path d="M2.52539 1484C45.4008 1459.64 160.51 1425.53 277.945 1484C395.38 1542.47 512.912 1508.36 556.998 1484C602.296 1458.51 723.267 1422.82 844.772 1484C966.276 1545.18 1108.56 1509.49 1164.52 1484" stroke="black" stroke-width="2.91549"/>
<path d="M2.54004 1523.12C45.4154 1498.75 160.525 1464.65 277.96 1523.12C395.395 1581.59 512.926 1547.48 557.013 1523.12C602.311 1497.62 723.282 1461.94 844.787 1523.12C966.291 1584.3 1108.58 1548.61 1164.54 1523.12" stroke="black" stroke-width="2.85915"/>
<path d="M2.55469 1562.23C45.4301 1537.87 160.539 1503.76 277.974 1562.23C395.409 1620.7 512.941 1586.59 557.028 1562.23C602.325 1536.74 723.297 1501.05 844.801 1562.23C966.306 1623.41 1108.59 1587.72 1164.55 1562.23" stroke="black" stroke-width="2.80282"/>
<path d="M2.56934 1601.35C45.4447 1576.98 160.554 1542.87 277.989 1601.35C395.424 1659.82 512.956 1625.71 557.042 1601.35C602.34 1575.85 723.311 1540.16 844.816 1601.35C966.32 1662.53 1108.61 1626.84 1164.56 1601.35" stroke="black" stroke-width="2.74648"/>
<path d="M2.58203 1640.46C45.4574 1616.1 160.567 1581.99 278.002 1640.46C395.437 1698.93 512.968 1664.82 557.055 1640.46C602.353 1614.97 723.324 1579.28 844.829 1640.46C966.333 1701.64 1108.62 1665.95 1164.58 1640.46" stroke="black" stroke-width="2.69014"/>
<path d="M2.59668 1679.57C45.472 1655.21 160.581 1621.1 278.016 1679.57C395.451 1738.04 512.983 1703.93 557.07 1679.57C602.367 1654.08 723.339 1618.39 844.843 1679.57C966.348 1740.75 1108.64 1705.06 1164.59 1679.57" stroke="black" stroke-width="2.6338"/>
<path d="M2.61328 1718.69C45.4886 1694.32 160.598 1660.22 278.033 1718.69C395.468 1777.16 513 1743.05 557.086 1718.69C602.384 1693.19 723.355 1657.5 844.86 1718.69C966.364 1779.87 1108.65 1744.18 1164.61 1718.69" stroke="black" stroke-width="2.57746"/>
<path d="M2.62598 1757.8C45.5013 1733.44 160.611 1699.33 278.046 1757.8C395.481 1816.27 513.012 1782.16 557.099 1757.8C602.397 1732.31 723.368 1696.62 844.873 1757.8C966.377 1818.98 1108.67 1783.29 1164.62 1757.8" stroke="black" stroke-width="2.52113"/>
<path d="M2.64062 1796.91C45.516 1772.55 160.625 1738.44 278.06 1796.91C395.495 1855.39 513.027 1821.28 557.114 1796.91C602.411 1771.42 723.383 1735.73 844.887 1796.91C966.392 1858.1 1108.68 1822.41 1164.64 1796.91" stroke="black" stroke-width="2.46479"/>
<path d="M2.65527 1836.03C45.5306 1811.67 160.64 1777.56 278.075 1836.03C395.51 1894.5 513.042 1860.39 557.128 1836.03C602.426 1810.54 723.397 1774.85 844.902 1836.03C966.406 1897.21 1108.69 1861.52 1164.65 1836.03" stroke="black" stroke-width="2.40845"/>
<path d="M2.66797 1875.14C45.5433 1850.78 160.653 1816.67 278.088 1875.14C395.523 1933.61 513.054 1899.51 557.141 1875.14C602.439 1849.65 723.41 1813.96 844.914 1875.14C966.419 1936.33 1108.71 1900.64 1164.66 1875.14" stroke="black" stroke-width="2.35211"/>
<path d="M2.68164 1914.26C45.557 1889.9 160.666 1855.79 278.101 1914.26C395.536 1972.73 513.068 1938.62 557.155 1914.26C602.452 1888.77 723.424 1853.08 844.928 1914.26C966.433 1975.44 1108.72 1939.75 1164.68 1914.26" stroke="black" stroke-width="2.29577"/>
<path d="M2.69727 1953.37C45.5726 1929.01 160.682 1894.9 278.117 1953.37C395.552 2011.84 513.084 1977.73 557.17 1953.37C602.468 1927.88 723.439 1892.19 844.944 1953.37C966.448 2014.55 1108.74 1978.86 1164.69 1953.37" stroke="black" stroke-width="2.23944"/>
<path d="M2.71191 1992.48C45.5873 1968.12 160.697 1934.01 278.132 1992.48C395.567 2050.95 513.098 2016.85 557.185 1992.48C602.483 1966.99 723.454 1931.3 844.958 1992.48C966.463 2053.66 1108.75 2017.98 1164.71 1992.48" stroke="black" stroke-width="2.1831"/>
<path d="M2.72656 2031.6C45.6019 2007.24 160.711 1973.13 278.146 2031.6C395.581 2090.07 513.113 2055.96 557.199 2031.6C602.497 2006.11 723.469 1970.42 844.973 2031.6C966.478 2092.78 1108.77 2057.09 1164.72 2031.6" stroke="black" stroke-width="2.12676"/>
<path d="M2.73926 2070.71C45.6146 2046.35 160.724 2012.24 278.159 2070.71C395.594 2129.18 513.126 2095.08 557.212 2070.71C602.51 2045.22 723.481 2009.53 844.986 2070.71C966.49 2131.89 1108.78 2096.21 1164.73 2070.71" stroke="black" stroke-width="2.07042"/>
<path d="M2.75391 2109.83C45.6293 2085.47 160.739 2051.36 278.174 2109.83C395.609 2168.3 513.14 2134.19 557.227 2109.83C602.525 2084.34 723.496 2048.65 845 2109.83C966.505 2171.01 1108.79 2135.32 1164.75 2109.83" stroke="black" stroke-width="2.01408"/>
<path d="M2.76855 2148.94C45.6439 2124.58 160.753 2090.47 278.188 2148.94C395.623 2207.41 513.155 2173.3 557.241 2148.94C602.539 2123.45 723.511 2087.76 845.015 2148.94C966.52 2210.12 1108.81 2174.43 1164.76 2148.94" stroke="black" stroke-width="1.95775"/>
<path d="M2.78125 2188.06C45.6566 2163.69 160.766 2129.58 278.201 2188.06C395.636 2246.53 513.168 2212.42 557.254 2188.06C602.552 2162.56 723.523 2126.87 845.028 2188.06C966.532 2249.24 1108.82 2213.55 1164.78 2188.06" stroke="black" stroke-width="1.90141"/>
<path d="M2.7959 2227.17C45.6713 2202.81 160.781 2168.7 278.216 2227.17C395.65 2285.64 513.182 2251.53 557.269 2227.17C602.566 2201.68 723.538 2165.99 845.042 2227.17C966.547 2288.35 1108.83 2252.66 1164.79 2227.17" stroke="black" stroke-width="1.84507"/>
<path d="M2.81055 2266.28C45.6859 2241.92 160.795 2207.81 278.23 2266.28C395.665 2324.75 513.197 2290.64 557.283 2266.28C602.581 2240.79 723.553 2205.1 845.057 2266.28C966.561 2327.46 1108.85 2291.77 1164.81 2266.28" stroke="black" stroke-width="1.78873"/>
<path d="M2.8252 2305.4C45.7006 2281.04 160.81 2246.93 278.245 2305.4C395.68 2363.87 513.212 2329.76 557.298 2305.4C602.596 2279.91 723.567 2244.22 845.072 2305.4C966.576 2366.58 1108.86 2330.89 1164.82 2305.4" stroke="black" stroke-width="1.73239"/>
<path d="M2.83984 2344.51C45.7152 2320.15 160.825 2286.04 278.26 2344.51C395.694 2402.98 513.226 2368.88 557.313 2344.51C602.61 2319.02 723.582 2283.33 845.086 2344.51C966.591 2405.69 1108.88 2370 1164.83 2344.51" stroke="black" stroke-width="1.67606"/>
<path d="M2.85352 2383.63C45.7289 2359.27 160.838 2325.16 278.273 2383.63C395.708 2442.1 513.24 2407.99 557.326 2383.63C602.624 2358.14 723.596 2322.45 845.1 2383.63C966.604 2444.81 1108.89 2409.12 1164.85 2383.63" stroke="black" stroke-width="1.61972"/>
<path d="M2.86816 2422.74C45.7435 2398.38 160.853 2364.27 278.288 2422.74C395.723 2481.21 513.255 2447.1 557.341 2422.74C602.639 2397.25 723.61 2361.56 845.115 2422.74C966.619 2483.92 1108.91 2448.23 1164.86 2422.74" stroke="black" stroke-width="1.56338"/>
<path d="M2.88281 2461.85C45.7582 2437.49 160.868 2403.38 278.303 2461.85C395.737 2520.32 513.269 2486.22 557.356 2461.85C602.653 2436.36 723.625 2400.67 845.129 2461.85C966.634 2523.03 1108.92 2487.34 1164.88 2461.85" stroke="black" stroke-width="1.50704"/>
<path d="M2.89648 2500.97C45.7718 2476.61 160.881 2442.5 278.316 2500.97C395.751 2559.44 513.283 2525.33 557.369 2500.97C602.667 2475.48 723.639 2439.79 845.143 2500.97C966.647 2562.15 1108.94 2526.46 1164.89 2500.97" stroke="black" stroke-width="1.4507"/>
<path d="M2.90918 2540.08C45.7845 2515.72 160.894 2481.61 278.329 2540.08C395.764 2598.55 513.296 2564.45 557.382 2540.08C602.68 2514.59 723.651 2478.9 845.156 2540.08C966.66 2601.26 1108.95 2565.58 1164.9 2540.08" stroke="black" stroke-width="1.39437"/>
<path d="M2.9248 2579.2C45.8002 2554.83 160.91 2520.73 278.345 2579.2C395.779 2637.67 513.311 2603.56 557.398 2579.2C602.695 2553.7 723.667 2518.02 845.171 2579.2C966.676 2640.38 1108.96 2604.69 1164.92 2579.2" stroke="black" stroke-width="1.33803"/>
<path d="M2.93945 2618.31C45.8148 2593.95 160.924 2559.84 278.359 2618.31C395.794 2676.78 513.326 2642.67 557.412 2618.31C602.71 2592.82 723.682 2557.13 845.186 2618.31C966.69 2679.49 1108.98 2643.8 1164.93 2618.31" stroke="black" stroke-width="1.28169"/>
<path d="M2.95312 2657.42C45.8285 2633.06 160.938 2598.95 278.373 2657.42C395.808 2715.9 513.339 2681.79 557.426 2657.42C602.724 2631.93 723.695 2596.24 845.2 2657.42C966.704 2718.61 1108.99 2682.92 1164.95 2657.42" stroke="black" stroke-width="1.22535"/>
<path d="M2.9668 2696.54C45.8422 2672.17 160.952 2638.07 278.386 2696.54C395.821 2755.01 513.353 2720.9 557.44 2696.54C602.737 2671.04 723.709 2635.36 845.213 2696.54C966.718 2757.72 1109.01 2722.03 1164.96 2696.54" stroke="black" stroke-width="1.16901"/>
<path d="M2.98145 2735.65C45.8568 2711.29 160.966 2677.18 278.401 2735.65C395.836 2794.12 513.368 2760.01 557.454 2735.65C602.752 2710.16 723.724 2674.47 845.228 2735.65C966.732 2796.83 1109.02 2761.14 1164.98 2735.65" stroke="black" stroke-width="1.11268"/>
<path d="M2.99512 2774.77C45.8705 2750.4 160.98 2716.3 278.415 2774.77C395.85 2833.24 513.381 2799.13 557.468 2774.77C602.766 2749.27 723.737 2713.59 845.242 2774.77C966.746 2835.95 1109.03 2800.26 1164.99 2774.77" stroke="black" stroke-width="1.05634"/>
</mask>
<g mask="url(#mask1_567_287)">
<rect x="-5" y="-5.44531" width="1172.5" height="2854.51" fill="url(#paint1_linear_567_287)" fill-opacity="0.3"/>
</g>
<defs>
<linearGradient id="paint0_linear_567_287" x1="1771.24" y1="-3180.88" x2="1753.13" y2="2849.1" gradientUnits="userSpaceOnUse">
<stop stop-color="#1B5A70"/>
<stop offset="1" stop-color="#1B5A70" stop-opacity="0"/>
</linearGradient>
<linearGradient id="paint1_linear_567_287" x1="609.247" y1="-3180.88" x2="591.134" y2="2849.1" gradientUnits="userSpaceOnUse">
<stop stop-color="#1B5A70"/>
<stop offset="1" stop-color="#1B5A70" stop-opacity="0"/>
</linearGradient>
</defs>
</svg>
