<svg width="36" height="37" viewBox="0 0 36 37" fill="none" xmlns="http://www.w3.org/2000/svg">
<path fill-rule="evenodd" clip-rule="evenodd" d="M19.5118 0H19.0797H18.2957H17.5116H17.2613H17V0.0345412C16.5931 0.144491 16.2871 0.505101 16.2629 0.945062L16.0015 5.69506C15.9904 5.89707 16.0399 6.08776 16.1338 6.25H12.75C11.0931 6.25 9.75 7.59315 9.75 9.25V12.25H4C1.79086 12.25 0 14.0409 0 16.25V32.25C0 34.4591 1.79086 36.25 4 36.25H32C34.2091 36.25 36 34.4591 36 32.25V23.5V16.25V9.25C36 7.59315 34.6569 6.25 33 6.25H31.866C31.9599 6.08776 32.0094 5.89707 31.9982 5.69506L31.7369 0.945062C31.7127 0.505189 31.4068 0.144635 31 0.0346072V0H30.7384H30.4882H29.7041H28.9201H28.4879H28.1361H27.7039H27.3521H26.9199H26.568H26.1362H25.784H25.3521H25H24.5678H24.216H23.7838H23.4319H22.9998H22.6476H22.2158H21.8636H21.4317H21.0799H20.6477H20.2958H19.8637H19.5118ZM30.4882 6.25V6H29.9683C29.9455 6.08858 29.9108 6.17253 29.8659 6.25H30.4882ZM28.9201 6.25V6H28.4879V6.25H28.9201ZM27.3521 6.25V6H26.9199V6.25H27.3521ZM25.784 6.25V6H25.3521V6.25H25.784ZM24.216 6.25V6H23.7838V6.25H24.216ZM22.6476 6.25V6H22.2158V6.25H22.6476ZM21.0799 6.25V6H20.6477V6.25H21.0799ZM19.5118 6.25V6H19.0797V6.25H19.5118ZM18.1338 6.25C18.089 6.17253 18.0543 6.08858 18.0314 6H17.5116V6.25H18.1338Z" fill="black"/>
</svg>
