<svg width="24" height="41" viewBox="0 0 24 41" fill="none" xmlns="http://www.w3.org/2000/svg">
<path fill-rule="evenodd" clip-rule="evenodd" d="M0 3C0 1.34315 1.34315 0 3 0H20.0625C21.7194 0 23.0625 1.34315 23.0625 3V38C23.0625 39.6569 21.7194 41 20.0625 41H3C1.34315 41 0 39.6569 0 38V3ZM2.5625 11.25C2.5625 10.6977 3.01021 10.25 3.5625 10.25H9.25C9.80228 10.25 10.25 10.6977 10.25 11.25V16.2969C10.25 16.8492 9.80228 17.2969 9.25 17.2969H3.5625C3.01021 17.2969 2.5625 16.8492 2.5625 16.2969V11.25ZM13.8125 10.25C13.2602 10.25 12.8125 10.6977 12.8125 11.25V16.2969C12.8125 16.8492 13.2602 17.2969 13.8125 17.2969H19.5C20.0523 17.2969 20.5 16.8492 20.5 16.2969V11.25C20.5 10.6977 20.0523 10.25 19.5 10.25H13.8125ZM2.5625 20.8594C2.5625 20.3071 3.01021 19.8594 3.5625 19.8594H9.25C9.80228 19.8594 10.25 20.3071 10.25 20.8594V25.9062C10.25 26.4585 9.80228 26.9062 9.25 26.9062H3.5625C3.01021 26.9062 2.5625 26.4585 2.5625 25.9062V20.8594ZM13.8125 19.8594C13.2602 19.8594 12.8125 20.3071 12.8125 20.8594V25.9062C12.8125 26.4585 13.2602 26.9062 13.8125 26.9062H19.5C20.0523 26.9062 20.5 26.4585 20.5 25.9062V20.8594C20.5 20.3071 20.0523 19.8594 19.5 19.8594H13.8125ZM2.5625 30.4688C2.5625 29.9165 3.01021 29.4688 3.5625 29.4688H9.25C9.80228 29.4688 10.25 29.9165 10.25 30.4688V35.5156C10.25 36.0679 9.80228 36.5156 9.25 36.5156H3.5625C3.01021 36.5156 2.5625 36.0679 2.5625 35.5156V30.4688ZM13.8125 29.4688C13.2602 29.4688 12.8125 29.9165 12.8125 30.4688V35.5156C12.8125 36.0679 13.2602 36.5156 13.8125 36.5156H19.5C20.0523 36.5156 20.5 36.0679 20.5 35.5156V30.4688C20.5 29.9165 20.0523 29.4688 19.5 29.4688H13.8125Z" fill="black"/>
</svg>
