<svg width="25" height="41" viewBox="0 0 25 41" fill="none" xmlns="http://www.w3.org/2000/svg">
<path fill-rule="evenodd" clip-rule="evenodd" d="M3 0C1.34315 0 0 1.34315 0 3V38C0 39.6569 1.34315 41 3 41H22C23.6569 41 25 39.6569 25 38V3C25 1.34315 23.6569 0 22 0H3ZM4.72412 1.74463C3.06727 1.74463 1.72412 3.08778 1.72412 4.74463V36.2553C1.72412 37.9121 3.06727 39.2553 4.72412 39.2553H20.2758C21.9327 39.2553 23.2758 37.9121 23.2758 36.2553V4.74463C23.2758 3.08777 21.9327 1.74463 20.2758 1.74463H4.72412Z" fill="black"/>
<path d="M11.6377 5.22388C11.6377 4.74778 12.0237 4.36182 12.4998 4.36182V4.36182C12.9759 4.36182 13.3618 4.74778 13.3618 5.22389V35.7763C13.3618 36.2525 12.9759 36.6384 12.4998 36.6384V36.6384C12.0237 36.6384 11.6377 36.2525 11.6377 35.7763V5.22388Z" fill="black"/>
<rect x="17.2412" y="4.36182" width="1.72414" height="32.2766" rx="0.862069" fill="black"/>
<rect x="6.03467" y="4.36182" width="1.72414" height="32.2766" rx="0.862069" fill="black"/>
</svg>
